<?xml version="1.0" encoding="UTF-8" standalone="no"?>
<!-- Created with Inkscape (http://www.inkscape.org/) -->

<svg
   xmlns:dc="http://purl.org/dc/elements/1.1/"
   xmlns:cc="http://creativecommons.org/ns#"
   xmlns:rdf="http://www.w3.org/1999/02/22-rdf-syntax-ns#"
   xmlns:svg="http://www.w3.org/2000/svg"
   xmlns="http://www.w3.org/2000/svg"
   xmlns:sodipodi="http://sodipodi.sourceforge.net/DTD/sodipodi-0.dtd"
   xmlns:inkscape="http://www.inkscape.org/namespaces/inkscape"
   width="210mm"
   height="297mm"
   viewBox="0 0 744.09448819 1052.3622047"
   id="svg15415"
   version="1.1"
   inkscape:version="0.91 r13725"
   sodipodi:docname="card-calendar.svg">
  <defs
     id="defs15417" />
  <sodipodi:namedview
     id="base"
     pagecolor="#ffffff"
     bordercolor="#666666"
     borderopacity="1.0"
     inkscape:pageopacity="0.0"
     inkscape:pageshadow="2"
     inkscape:zoom="0.35"
     inkscape:cx="350.0083"
     inkscape:cy="668.81928"
     inkscape:document-units="px"
     inkscape:current-layer="layer1"
     showgrid="false"
     inkscape:window-width="1366"
     inkscape:window-height="705"
     inkscape:window-x="1272"
     inkscape:window-y="248"
     inkscape:window-maximized="1" />
  <metadata
     id="metadata15420">
    <rdf:RDF>
      <cc:Work
         rdf:about="">
        <dc:format>image/svg+xml</dc:format>
        <dc:type
           rdf:resource="http://purl.org/dc/dcmitype/StillImage" />
        <dc:title />
      </cc:Work>
    </rdf:RDF>
  </metadata>
  <g
     inkscape:label="Layer 1"
     inkscape:groupmode="layer"
     id="layer1">
    <g
       id="g4205"
       inkscape:export-filename="C:\Users\Parents\Documents\GitHub\LittleFamily\LittleFamilyApp\src\main\res\drawable\cupcake1.png"
       inkscape:export-xdpi="61.548683"
       inkscape:export-ydpi="61.548683">
      <g
         style="fill:#e42743;fill-opacity:1"
         transform="matrix(1.1067405,0,0,1.1067405,-530.45376,107.80896)"
         id="g5145">
        <linearGradient
           id="SVGID_59_"
           gradientUnits="userSpaceOnUse"
           x1="3237.4812"
           y1="2177.4331"
           x2="3237.4812"
           y2="2147.4946"
           gradientTransform="matrix(-1,0,0,-1,3849.9875,2144.5168)">
          <stop
             offset="0.0056"
             style="stop-color:#FFFA3F"
             id="stop5148" />
          <stop
             offset="0.5"
             style="stop-color:#DA2128"
             id="stop5150" />
          <stop
             offset="1"
             style="stop-color:#F26922"
             id="stop5152" />
        </linearGradient>
        <ellipse
           style="fill:#e42743;fill-opacity:1"
           cx="612.50623"
           cy="-17.947001"
           rx="3"
           ry="14.9691"
           id="ellipse5154" />
        <linearGradient
           id="SVGID_60_"
           gradientUnits="userSpaceOnUse"
           x1="612.50623"
           y1="49.952801"
           x2="612.50623"
           y2="-17.947001">
          <stop
             offset="0"
             style="stop-color:#00A8DE"
             id="stop5157" />
          <stop
             offset="0.0769"
             style="stop-color:#F4FF55"
             id="stop5159" />
          <stop
             offset="0.2"
             style="stop-color:#333391"
             id="stop5161" />
          <stop
             offset="0.4"
             style="stop-color:#BA7FFF"
             id="stop5163" />
          <stop
             offset="0.6"
             style="stop-color:#EB2D2E"
             id="stop5165" />
          <stop
             offset="0.6851"
             style="stop-color:#3FF6FF"
             id="stop5167" />
          <stop
             offset="0.8"
             style="stop-color:#FDE92B"
             id="stop5169" />
          <stop
             offset="1"
             style="stop-color:#FF3FCF"
             id="stop5171" />
        </linearGradient>
        <path
           style="fill:#e42743;fill-opacity:1"
           inkscape:connector-curvature="0"
           d="m 612.5062,-17.947 c -3.4058,0 -6.1666,2.1602 -6.1666,4.8249 l 0,58.25 c 0,2.6647 2.7608,4.8249 6.1666,4.8249 3.4058,0 6.1667,-2.1602 6.1667,-4.8249 l 0,-58.25 c 0,-2.6647 -2.7609,-4.8249 -6.1667,-4.8249 z"
           id="path5173" />
      </g>
      <path
         id="path5369"
         d="m 45.397155,212.96314 0.55337,0.20745 c 11.703781,3.54158 22.453,11.34412 35.125179,10.70773 8.97843,-0.29052 16.490433,-5.63054 24.265286,-9.43495 4.05344,-2.08899 8.85392,-2.06133 13.0457,-0.38736 8.97843,3.30638 17.87386,7.47049 27.54401,8.24521 8.57713,0.76089 17.01613,-1.86764 24.73565,-5.35388 4.44079,-2.01977 9.11677,-4.0811 14.11094,-3.8459 7.24915,0.37353 13.95876,3.38939 20.98657,4.93883 6.65426,1.75695 13.6129,1.9368 20.46086,1.59093 7.99619,-0.42885 15.43902,-3.62457 23.00636,-5.87957 -0.0691,1.27278 -0.20746,3.80444 -0.27661,5.07719 -2.26883,13.35006 -5.83807,26.46493 -8.28673,39.78733 -5.29853,31.61127 -9.9745,63.33321 -14.67816,95.04131 -16.58727,6.6128 -34.58563,8.35592 -52.27964,9.03379 -20.76522,2.26881 -41.64111,0.67788 -62.3925,-0.70556 -10.85989,-1.31424 -21.968795,-2.07513 -32.330654,-5.82422 -4.067272,-1.43877 -8.480398,-4.24712 -8.840089,-8.97842 -3.458564,-18.46874 -7.05547,-36.92362 -9.891493,-55.50304 -5.768887,-26.07756 -9.379626,-52.57018 -14.857993,-78.71693 z"
         inkscape:connector-curvature="0"
         style="fill:#eacd90" />
      <path
         id="path5357"
         d="m 117.91819,145.65084 c 27.54995,-4.79194 56.4188,-2.98946 82.81107,6.41856 17.70232,6.97542 34.73053,17.4825 46.11687,33.01598 7.85469,10.77086 12.03112,25.17599 8.14778,38.2329 0.0733,-1.34818 0.21975,-4.0299 0.293,-5.37811 -8.01586,2.38866 -15.89985,5.77378 -24.36998,6.22805 -7.25386,0.36637 -14.62495,0.17599 -21.6736,-1.68522 -7.44436,-1.64128 -14.55167,-4.8359 -22.23049,-5.23156 -5.29017,-0.24924 -10.24331,1.93436 -14.94732,4.07385 -8.17706,3.69287 -17.11614,6.4772 -26.20177,5.67122 -10.2433,-0.82064 -19.66598,-5.23157 -29.17658,-8.73393 -4.44023,-1.77318 -9.52525,-1.80248 -13.81895,0.41032 -8.23567,4.02991 -16.192924,9.68644 -25.70352,9.99417 -13.423279,0.67411 -24.809621,-7.59089 -37.207103,-11.34238 -1.333536,-17.7023 7.957251,-34.40814 20.633163,-46.11687 15.665376,-14.56631 36.66489,-21.68826 57.32736,-25.55698 z"
         inkscape:connector-curvature="0"
         style="fill:#8cc63f" />
    </g>
    <g
       id="g4245"
       inkscape:export-filename="C:\Users\Parents\Documents\GitHub\LittleFamily\LittleFamilyApp\src\main\res\drawable\cupcake2.png"
       inkscape:export-xdpi="61.548683"
       inkscape:export-ydpi="61.548683">
      <g
         style="fill:#27c9e4;fill-opacity:1"
         transform="matrix(1.1067405,0,0,1.1067405,-530.45376,107.80896)"
         id="g5115">
        <linearGradient
           id="SVGID_57_"
           gradientUnits="userSpaceOnUse"
           x1="2974.9751"
           y1="2177.4331"
           x2="2974.9751"
           y2="2147.4946"
           gradientTransform="matrix(-1,0,0,-1,3849.9875,2144.5168)">
          <stop
             offset="0.0056"
             style="stop-color:#FFFA3F;fill-opacity:1;fill:url(#radialGradient7026)"
             id="stop5118" />
          <stop
             offset="0.5"
             style="stop-color:#DA2128;fill-opacity:1;fill:url(#radialGradient7026)"
             id="stop5120" />
          <stop
             offset="1"
             style="stop-color:#F26922;fill-opacity:1;fill:url(#radialGradient7026)"
             id="stop5122" />
        </linearGradient>
        <ellipse
           style="fill:#27c9e4;fill-opacity:1"
           cx="875.01251"
           cy="-17.947001"
           rx="3"
           ry="14.9691"
           id="ellipse5124" />
        <linearGradient
           id="SVGID_58_"
           gradientUnits="userSpaceOnUse"
           x1="875.01251"
           y1="49.952801"
           x2="875.01251"
           y2="-17.947001">
          <stop
             offset="0"
             style="stop-color:#00A8DE;fill-opacity:1;fill:url(#radialGradient7026)"
             id="stop5127" />
          <stop
             offset="0.0769"
             style="stop-color:#F4FF55;fill-opacity:1;fill:url(#radialGradient7026)"
             id="stop5129" />
          <stop
             offset="0.2"
             style="stop-color:#333391;fill-opacity:1;fill:url(#radialGradient7026)"
             id="stop5131" />
          <stop
             offset="0.4"
             style="stop-color:#BA7FFF;fill-opacity:1;fill:url(#radialGradient7026)"
             id="stop5133" />
          <stop
             offset="0.6"
             style="stop-color:#EB2D2E;fill-opacity:1;fill:url(#radialGradient7026)"
             id="stop5135" />
          <stop
             offset="0.6851"
             style="stop-color:#3FF6FF;fill-opacity:1;fill:url(#radialGradient7026)"
             id="stop5137" />
          <stop
             offset="0.8"
             style="stop-color:#FDE92B;fill-opacity:1;fill:url(#radialGradient7026)"
             id="stop5139" />
          <stop
             offset="1"
             style="stop-color:#FF3FCF;fill-opacity:1;fill:url(#radialGradient7026)"
             id="stop5141" />
        </linearGradient>
        <path
           style="fill:#27c9e4;fill-opacity:1"
           inkscape:connector-curvature="0"
           d="m 875.0125,-17.947 c -3.4058,0 -6.1667,2.1602 -6.1667,4.8249 l 0,58.25 c 0,2.6647 2.7609,4.8249 6.1667,4.8249 3.4058,0 6.1666,-2.1602 6.1666,-4.8249 l 0,-58.25 c 0,-2.6647 -2.7608,-4.8249 -6.1666,-4.8249 z"
           id="path5143" />
      </g>
      <path
         id="path5371"
         d="m 335.87505,212.96314 0.60869,0.20745 c 11.68996,3.52775 22.42532,11.34412 35.11134,10.70773 8.93695,-0.29052 16.42127,-5.57522 24.15463,-9.37963 4.05341,-2.11665 8.8954,-2.15814 13.11486,-0.45654 9.42112,3.4724 18.78692,7.89937 28.98277,8.34208 9.19978,0.4842 17.98454,-2.91905 26.20209,-6.68195 5.22935,-2.51783 11.24725,-3.3479 16.90545,-1.82612 9.57331,2.33798 18.9806,6.11474 29.01042,5.87954 10.30665,0.76089 20.14268,-2.78067 29.74365,-6.04556 -0.0691,1.27275 -0.19368,3.81824 -0.26283,5.09102 -3.7076,20.21183 -9.10294,40.13317 -11.62077,60.56637 -4.01195,24.73564 -7.66418,49.52663 -11.3026,74.31762 -9.75305,3.5969 -19.79681,6.41909 -30.20019,7.29065 -20.25335,2.04746 -40.6312,3.43088 -60.99522,2.57318 -18.02604,-1.54943 -36.45326,-1.49411 -53.93977,-6.72346 -3.95661,-1.43877 -8.96459,-3.19572 -10.2235,-7.67801 -5.29853,-24.56965 -8.53574,-49.54046 -13.91728,-74.06862 -3.61073,-20.73755 -7.12465,-41.48893 -11.37174,-62.11581 z"
         inkscape:connector-curvature="0"
         style="fill:#eacd90" />
      <path
         id="path5359"
         d="m 404.50501,146.34073 c 28.73563,-5.6277 59.03868,-4.07523 86.75924,5.53815 17.76372,6.77714 34.75144,17.10704 46.63383,32.18391 8.8222,11.25543 13.83788,26.67563 9.59845,40.72252 0.0747,-1.37336 0.20899,-4.12004 0.2836,-5.49336 -10.35975,3.52292 -20.97326,7.34436 -32.09435,6.52334 -10.82249,0.25388 -20.97326,-3.82145 -31.30317,-6.34421 -6.10538,-1.64204 -12.59888,-0.74637 -18.24152,1.97045 -8.867,4.06028 -18.34603,7.7325 -28.27289,7.21004 -11.00165,-0.4777 -21.10765,-5.25454 -31.27345,-9.00137 -4.55282,-1.83609 -9.77748,-1.79132 -14.15137,0.49261 -8.34453,4.10509 -16.42036,9.80745 -26.06361,10.12092 -13.68861,0.68668 -25.27241,-7.74742 -37.88625,-11.55398 -1.3584,-17.62948 7.68762,-34.33348 20.1672,-46.18598 15.15164,-14.56936 35.61739,-21.98838 55.84429,-26.18304 z"
         inkscape:connector-curvature="0"
         style="fill:#93278f;fill-opacity:1" />
    </g>
    <g
       id="g4225"
       inkscape:export-filename="C:\Users\Parents\Documents\GitHub\LittleFamily\LittleFamilyApp\src\main\res\drawable\cupcake3.png"
       inkscape:export-xdpi="60.604904"
       inkscape:export-ydpi="60.604904">
      <g
         style="fill:#e4db27;fill-opacity:1"
         transform="matrix(1.1067405,0,0,1.1067405,-530.45376,107.80896)"
         id="g4963">
        <linearGradient
           id="SVGID_47_"
           gradientUnits="userSpaceOnUse"
           x1="3237.4812"
           y1="1908.2275"
           x2="3237.4812"
           y2="1878.2893"
           gradientTransform="matrix(-1,0,0,-1,3849.9875,2144.5168)">
          <stop
             offset="0.0056"
             style="stop-color:#FFFA3F"
             id="stop4966" />
          <stop
             offset="0.5"
             style="stop-color:#DA2128"
             id="stop4968" />
          <stop
             offset="1"
             style="stop-color:#F26922"
             id="stop4970" />
        </linearGradient>
        <ellipse
           style="fill:#e4db27;fill-opacity:1"
           cx="612.50623"
           cy="251.25841"
           rx="3"
           ry="14.9691"
           id="ellipse4972" />
        <linearGradient
           id="SVGID_48_"
           gradientUnits="userSpaceOnUse"
           x1="612.50623"
           y1="319.1582"
           x2="612.50623"
           y2="251.25841">
          <stop
             offset="0"
             style="stop-color:#00A8DE"
             id="stop4975" />
          <stop
             offset="0.0769"
             style="stop-color:#F4FF55"
             id="stop4977" />
          <stop
             offset="0.2"
             style="stop-color:#333391"
             id="stop4979" />
          <stop
             offset="0.4"
             style="stop-color:#BA7FFF"
             id="stop4981" />
          <stop
             offset="0.6"
             style="stop-color:#EB2D2E"
             id="stop4983" />
          <stop
             offset="0.6851"
             style="stop-color:#3FF6FF"
             id="stop4985" />
          <stop
             offset="0.8"
             style="stop-color:#FDE92B"
             id="stop4987" />
          <stop
             offset="1"
             style="stop-color:#FF3FCF"
             id="stop4989" />
        </linearGradient>
        <path
           style="fill:#e4db27;fill-opacity:1"
           inkscape:connector-curvature="0"
           d="m 612.5062,251.2584 c -3.4058,0 -6.1666,2.1602 -6.1666,4.8249 l 0,58.25 c 0,2.6647 2.7608,4.8249 6.1666,4.8249 3.4058,0 6.1667,-2.1602 6.1667,-4.8249 l 0,-58.25 c 0,-2.6647 -2.7609,-4.8249 -6.1667,-4.8249 z"
           id="path4991" />
      </g>
      <path
         id="path5393"
         d="m 45.687675,515.22781 c 13.516068,4.85582 27.281154,14.60898 42.22215,9.93301 10.002169,-2.32416 18.413395,-12.69985 29.370125,-8.95078 12.65835,4.68983 25.93923,11.01208 39.78732,7.81636 10.79072,-1.48026 20.01817,-10.34803 31.33448,-8.0377 9.87766,2.13047 19.45096,6.0179 29.66066,6.39143 10.77688,0.83003 21.1249,-2.73918 31.18241,-6.12857 -0.097,1.34192 -0.2766,4.05341 -0.35969,5.40917 -2.6284,15.50823 -7.00013,30.68439 -9.35198,46.26177 -4.82816,29.50848 -9.24127,59.09994 -13.64055,88.67757 -24.29296,8.45272 -50.2737,8.79859 -75.70106,9.7255 -21.78896,-0.47037 -43.75776,-1.13442 -65.104015,-5.83808 -5.118674,-0.92688 -9.877657,-3.18185 -13.889591,-6.47441 C 66.964651,633.8704 63.312407,613.61705 60.089025,593.29452 55.468383,573.29018 52.701533,552.92616 48.786439,532.78348 47.762812,526.9316 46.102703,521.17653 45.687675,515.22781 Z"
         inkscape:connector-curvature="0"
         style="fill:#eacd90" />
      <path
         id="path5381"
         d="m 117.44231,448.09778 c 25.8838,-4.51477 52.8709,-3.01954 77.91272,5.03741 17.94301,6.22779 35.015,16.3316 47.26737,31.05184 9.30537,11.22163 14.61859,26.87096 10.29254,41.22827 0.087,-1.42267 0.2758,-4.26798 0.37745,-5.67612 -10.55386,3.55666 -21.41258,7.30202 -32.72132,6.43102 -10.71356,-0.39196 -20.75932,-4.47124 -31.12446,-6.70685 -11.8749,-2.42435 -21.55762,6.88106 -32.881,8.43437 -14.53151,3.35343 -28.46782,-3.28083 -41.75088,-8.20211 -11.49746,-3.93409 -20.32379,6.95365 -30.819585,9.39251 C 68.316788,533.99486 53.872374,523.76037 39.689268,518.66491 38.9489,498.86372 50.431847,480.71748 65.689212,468.9587 80.641718,457.44672 99.09282,451.49475 117.44231,448.09778 Z"
         inkscape:connector-curvature="0"
         style="fill:#00a99d" />
    </g>
    <g
       id="g4265"
       inkscape:export-filename="C:\Users\Parents\Documents\GitHub\LittleFamily\LittleFamilyApp\src\main\res\drawable\cupcake4.png"
       inkscape:export-xdpi="60.604904"
       inkscape:export-ydpi="60.604904">
      <g
         style="fill:#8f27e4;fill-opacity:1"
         transform="matrix(1.1067405,0,0,1.1067405,-530.45376,107.80896)"
         id="g4933">
        <linearGradient
           id="SVGID_45_"
           gradientUnits="userSpaceOnUse"
           x1="2974.9751"
           y1="1908.2275"
           x2="2974.9751"
           y2="1878.2893"
           gradientTransform="matrix(-1,0,0,-1,3849.9875,2144.5168)">
          <stop
             offset="0.0056"
             style="stop-color:#FFFA3F"
             id="stop4936" />
          <stop
             offset="0.5"
             style="stop-color:#DA2128"
             id="stop4938" />
          <stop
             offset="1"
             style="stop-color:#F26922"
             id="stop4940" />
        </linearGradient>
        <ellipse
           style="fill:#8f27e4;fill-opacity:1"
           cx="875.01251"
           cy="251.25841"
           rx="3"
           ry="14.9691"
           id="ellipse4942" />
        <linearGradient
           id="SVGID_46_"
           gradientUnits="userSpaceOnUse"
           x1="875.01251"
           y1="319.1582"
           x2="875.01251"
           y2="251.25841">
          <stop
             offset="0"
             style="stop-color:#00A8DE"
             id="stop4945" />
          <stop
             offset="0.0769"
             style="stop-color:#F4FF55"
             id="stop4947" />
          <stop
             offset="0.2"
             style="stop-color:#333391"
             id="stop4949" />
          <stop
             offset="0.4"
             style="stop-color:#BA7FFF"
             id="stop4951" />
          <stop
             offset="0.6"
             style="stop-color:#EB2D2E"
             id="stop4953" />
          <stop
             offset="0.6851"
             style="stop-color:#3FF6FF"
             id="stop4955" />
          <stop
             offset="0.8"
             style="stop-color:#FDE92B"
             id="stop4957" />
          <stop
             offset="1"
             style="stop-color:#FF3FCF"
             id="stop4959" />
        </linearGradient>
        <path
           style="fill:#8f27e4;fill-opacity:1"
           inkscape:connector-curvature="0"
           d="m 875.0125,251.2584 c -3.4058,0 -6.1667,2.1602 -6.1667,4.8249 l 0,58.25 c 0,2.6647 2.7609,4.8249 6.1667,4.8249 3.4058,0 6.1666,-2.1602 6.1666,-4.8249 l 0,-58.25 c 0,-2.6647 -2.7608,-4.8249 -6.1666,-4.8249 z"
           id="path4961" />
      </g>
      <path
         id="path5395"
         d="m 336.20706,515.22781 c 10.77687,3.9566 20.95888,10.3342 32.62118,11.20576 9.79465,0.6087 18.20588,-5.06336 26.5756,-9.25513 4.49612,-2.50401 9.94684,-2.15814 14.58132,-0.22123 10.27885,3.98426 20.88971,8.66023 32.19231,7.78867 8.89543,-0.45651 16.96079,-4.52378 25.09534,-7.77484 5.92105,-2.421 12.50616,-1.14825 18.39956,0.66405 10.01599,3.04352 20.46086,5.68589 31.00257,4.5653 7.98235,-0.63639 15.5082,-3.50007 23.04787,-5.99024 -0.0829,1.38345 -0.23528,4.15028 -0.31821,5.51987 -3.65222,19.75532 -8.92309,39.23395 -11.42709,59.21061 -4.09493,25.19218 -7.80251,50.42588 -11.5516,75.67338 -24.7633,8.48042 -51.20057,8.9231 -77.09832,9.69781 -22.19014,-0.74703 -44.68453,-1.05138 -66.34907,-6.50209 -4.21946,-0.87156 -7.89937,-3.18186 -11.23342,-5.82422 -4.59299,-20.93123 -8.06539,-42.0838 -11.60694,-63.20871 -2.55936,-9.29662 -3.63842,-18.88376 -5.60288,-28.30488 -2.32416,-15.82641 -5.96258,-31.43145 -8.32822,-47.244 z"
         inkscape:connector-curvature="0"
         style="fill:#eacd90" />
      <path
         id="path5383"
         d="m 362.43207,464.93788 c 22.49319,-13.96483 49.38247,-18.88843 75.50977,-19.50388 21.86311,0.6301 44.1657,3.89784 63.91883,13.78898 13.97949,7.01905 27.197,16.45594 36.2236,29.39506 7.48796,10.75569 11.20996,24.83778 7.35606,37.63032 0.0878,-1.45071 0.24922,-4.3814 0.33705,-5.84678 -7.9863,2.63765 -15.95774,5.67092 -24.41282,6.345 -11.16602,1.18695 -22.22946,-1.6119 -32.83863,-4.83568 -6.24242,-1.91962 -13.21752,-3.26774 -19.48923,-0.70336 -8.6163,3.44359 -17.15931,7.75174 -26.58155,8.23528 -11.97197,0.92318 -23.21123,-4.02971 -34.09882,-8.24993 -4.90895,-2.05151 -10.68248,-2.41786 -15.44487,0.23432 -8.8654,4.44003 -17.77476,10.44799 -28.14948,9.80324 -12.35297,-0.92316 -23.13798,-7.67846 -34.55309,-11.86938 -0.8206,-22.58114 13.87691,-42.68582 32.22318,-54.42331 z"
         inkscape:connector-curvature="0"
         style="fill:#f15a24;fill-opacity:1" />
    </g>
  </g>
</svg>
