<?xml version="1.0" encoding="UTF-8" standalone="no"?>
<!-- Created with Inkscape (http://www.inkscape.org/) -->

<svg
   xmlns:dc="http://purl.org/dc/elements/1.1/"
   xmlns:cc="http://creativecommons.org/ns#"
   xmlns:rdf="http://www.w3.org/1999/02/22-rdf-syntax-ns#"
   xmlns:svg="http://www.w3.org/2000/svg"
   xmlns="http://www.w3.org/2000/svg"
   xmlns:xlink="http://www.w3.org/1999/xlink"
   xmlns:sodipodi="http://sodipodi.sourceforge.net/DTD/sodipodi-0.dtd"
   xmlns:inkscape="http://www.inkscape.org/namespaces/inkscape"
   width="210mm"
   height="297mm"
   viewBox="0 0 744.09448819 1052.3622047"
   id="svg15415"
   version="1.1"
   inkscape:version="0.91 r13725"
   sodipodi:docname="card-calendar.svg">
  <defs
     id="defs15417" />
  <sodipodi:namedview
     id="base"
     pagecolor="#ffffff"
     bordercolor="#666666"
     borderopacity="1.0"
     inkscape:pageopacity="0.0"
     inkscape:pageshadow="2"
     inkscape:zoom="0.175"
     inkscape:cx="361.86433"
     inkscape:cy="596.27891"
     inkscape:document-units="px"
     inkscape:current-layer="layer1"
     showgrid="false"
     inkscape:window-width="1366"
     inkscape:window-height="705"
     inkscape:window-x="1272"
     inkscape:window-y="248"
     inkscape:window-maximized="1" />
  <metadata
     id="metadata15420">
    <rdf:RDF>
      <cc:Work
         rdf:about="">
        <dc:format>image/svg+xml</dc:format>
        <dc:type
           rdf:resource="http://purl.org/dc/dcmitype/StillImage" />
        <dc:title />
      </cc:Work>
    </rdf:RDF>
  </metadata>
  <g
     inkscape:label="Layer 1"
     inkscape:groupmode="layer"
     id="layer1">
    <g
       transform="matrix(1.2387338,0,0,1.2387338,1459.6886,-69.566139)"
       id="layer1-5"
       inkscape:label="Layer 1">
      <g
         inkscape:export-ydpi="80.769226"
         inkscape:export-xdpi="80.769226"
         id="g3502">
        <rect
           style="opacity:1;fill:#00ffff;fill-opacity:1;stroke:none;stroke-width:2;stroke-linecap:round;stroke-linejoin:bevel;stroke-miterlimit:4;stroke-dasharray:none;stroke-dashoffset:0;stroke-opacity:1"
           id="rect3338"
           width="557.14288"
           height="554.28571"
           x="-1157.1428"
           y="175.21935"
           ry="15.9294" />
        <g
           id="g3415"
           transform="matrix(1.0037392,0,0,0.86494176,4.432249,35.40128)">
          <rect
             ry="15.9294"
             y="118.07649"
             x="-1025.7142"
             height="140"
             width="60"
             id="rect3340"
             style="opacity:1;fill:#00ffff;fill-opacity:1;stroke:#ffffff;stroke-width:16;stroke-linecap:round;stroke-linejoin:bevel;stroke-miterlimit:4;stroke-dasharray:none;stroke-dashoffset:0;stroke-opacity:1" />
          <rect
             style="opacity:1;fill:#00ffff;fill-opacity:1;stroke:#ffffff;stroke-width:16;stroke-linecap:round;stroke-linejoin:bevel;stroke-miterlimit:4;stroke-dasharray:none;stroke-dashoffset:0;stroke-opacity:1"
             id="rect3342"
             width="60"
             height="140"
             x="-793.71417"
             y="118.07649"
             ry="15.9294" />
        </g>
        <rect
           ry="17.728546"
           y="296.93365"
           x="-920"
           height="69.956566"
           width="82.85714"
           id="rect3344"
           style="opacity:1;fill:#ffffff;fill-opacity:1;stroke:none;stroke-width:2;stroke-linecap:round;stroke-linejoin:bevel;stroke-miterlimit:4;stroke-dasharray:none;stroke-dashoffset:0;stroke-opacity:1" />
        <rect
           style="opacity:1;fill:#ffffff;fill-opacity:1;stroke:none;stroke-width:2;stroke-linecap:round;stroke-linejoin:bevel;stroke-miterlimit:4;stroke-dasharray:none;stroke-dashoffset:0;stroke-opacity:1"
           id="rect3346"
           width="82.85714"
           height="69.956566"
           x="-834"
           y="296.93365"
           ry="17.728546" />
        <rect
           ry="17.728546"
           y="296.93365"
           x="-746"
           height="69.956566"
           width="82.85714"
           id="rect3348"
           style="opacity:1;fill:#ffffff;fill-opacity:1;stroke:none;stroke-width:2;stroke-linecap:round;stroke-linejoin:bevel;stroke-miterlimit:4;stroke-dasharray:none;stroke-dashoffset:0;stroke-opacity:1" />
        <rect
           ry="17.728546"
           y="372.61395"
           x="-1006"
           height="69.956566"
           width="82.85714"
           id="rect3350"
           style="opacity:1;fill:#ffffff;fill-opacity:1;stroke:none;stroke-width:2;stroke-linecap:round;stroke-linejoin:bevel;stroke-miterlimit:4;stroke-dasharray:none;stroke-dashoffset:0;stroke-opacity:1" />
        <rect
           style="opacity:1;fill:#ffffff;fill-opacity:1;stroke:none;stroke-width:2;stroke-linecap:round;stroke-linejoin:bevel;stroke-miterlimit:4;stroke-dasharray:none;stroke-dashoffset:0;stroke-opacity:1"
           id="rect3352"
           width="82.85714"
           height="69.956566"
           x="-920"
           y="372.61395"
           ry="17.728546" />
        <rect
           ry="17.728546"
           y="372.61395"
           x="-834"
           height="69.956566"
           width="82.85714"
           id="rect3354"
           style="opacity:1;fill:#ffffff;fill-opacity:1;stroke:none;stroke-width:2;stroke-linecap:round;stroke-linejoin:bevel;stroke-miterlimit:4;stroke-dasharray:none;stroke-dashoffset:0;stroke-opacity:1" />
        <rect
           style="opacity:1;fill:#ffffff;fill-opacity:1;stroke:none;stroke-width:2;stroke-linecap:round;stroke-linejoin:bevel;stroke-miterlimit:4;stroke-dasharray:none;stroke-dashoffset:0;stroke-opacity:1"
           id="rect3356"
           width="82.85714"
           height="69.956566"
           x="-746"
           y="372.61395"
           ry="17.728546" />
        <rect
           style="opacity:1;fill:#ffffff;fill-opacity:1;stroke:none;stroke-width:2;stroke-linecap:round;stroke-linejoin:bevel;stroke-miterlimit:4;stroke-dasharray:none;stroke-dashoffset:0;stroke-opacity:1"
           id="rect3358"
           width="82.85714"
           height="69.956566"
           x="-1093.9999"
           y="372.61395"
           ry="17.728546" />
        <rect
           style="opacity:1;fill:#ffffff;fill-opacity:1;stroke:none;stroke-width:2;stroke-linecap:round;stroke-linejoin:bevel;stroke-miterlimit:4;stroke-dasharray:none;stroke-dashoffset:0;stroke-opacity:1"
           id="rect3360"
           width="82.85714"
           height="69.956566"
           x="-1006"
           y="446.06833"
           ry="17.728546" />
        <rect
           ry="17.728546"
           y="446.06833"
           x="-920"
           height="69.956566"
           width="82.85714"
           id="rect3362"
           style="opacity:1;fill:#ffffff;fill-opacity:1;stroke:none;stroke-width:2;stroke-linecap:round;stroke-linejoin:bevel;stroke-miterlimit:4;stroke-dasharray:none;stroke-dashoffset:0;stroke-opacity:1" />
        <rect
           style="opacity:1;fill:#ffffff;fill-opacity:1;stroke:none;stroke-width:2;stroke-linecap:round;stroke-linejoin:bevel;stroke-miterlimit:4;stroke-dasharray:none;stroke-dashoffset:0;stroke-opacity:1"
           id="rect3364"
           width="82.85714"
           height="69.956566"
           x="-834"
           y="446.06833"
           ry="17.728546" />
        <rect
           ry="17.728546"
           y="446.06833"
           x="-746"
           height="69.956566"
           width="82.85714"
           id="rect3366"
           style="opacity:1;fill:#ffffff;fill-opacity:1;stroke:none;stroke-width:2;stroke-linecap:round;stroke-linejoin:bevel;stroke-miterlimit:4;stroke-dasharray:none;stroke-dashoffset:0;stroke-opacity:1" />
        <rect
           ry="17.728546"
           y="446.06833"
           x="-1093.9999"
           height="69.956566"
           width="82.85714"
           id="rect3368"
           style="opacity:1;fill:#ffffff;fill-opacity:1;stroke:none;stroke-width:2;stroke-linecap:round;stroke-linejoin:bevel;stroke-miterlimit:4;stroke-dasharray:none;stroke-dashoffset:0;stroke-opacity:1" />
        <rect
           ry="17.728546"
           y="519.52271"
           x="-1006"
           height="69.956566"
           width="82.85714"
           id="rect3370"
           style="opacity:1;fill:#ffffff;fill-opacity:1;stroke:none;stroke-width:2;stroke-linecap:round;stroke-linejoin:bevel;stroke-miterlimit:4;stroke-dasharray:none;stroke-dashoffset:0;stroke-opacity:1" />
        <rect
           style="opacity:1;fill:#ffffff;fill-opacity:1;stroke:none;stroke-width:2;stroke-linecap:round;stroke-linejoin:bevel;stroke-miterlimit:4;stroke-dasharray:none;stroke-dashoffset:0;stroke-opacity:1"
           id="rect3372"
           width="82.85714"
           height="69.956566"
           x="-920"
           y="519.52271"
           ry="17.728546" />
        <rect
           ry="17.728546"
           y="519.52271"
           x="-834"
           height="69.956566"
           width="82.85714"
           id="rect3374"
           style="opacity:1;fill:#ffffff;fill-opacity:1;stroke:none;stroke-width:2;stroke-linecap:round;stroke-linejoin:bevel;stroke-miterlimit:4;stroke-dasharray:none;stroke-dashoffset:0;stroke-opacity:1" />
        <rect
           style="opacity:1;fill:#ffffff;fill-opacity:1;stroke:none;stroke-width:2;stroke-linecap:round;stroke-linejoin:bevel;stroke-miterlimit:4;stroke-dasharray:none;stroke-dashoffset:0;stroke-opacity:1"
           id="rect3376"
           width="82.85714"
           height="69.956566"
           x="-746"
           y="519.52271"
           ry="17.728546" />
        <rect
           style="opacity:1;fill:#ffffff;fill-opacity:1;stroke:none;stroke-width:2;stroke-linecap:round;stroke-linejoin:bevel;stroke-miterlimit:4;stroke-dasharray:none;stroke-dashoffset:0;stroke-opacity:1"
           id="rect3378"
           width="82.85714"
           height="69.956566"
           x="-1093.9999"
           y="519.52271"
           ry="17.728546" />
        <rect
           style="opacity:1;fill:#ffffff;fill-opacity:1;stroke:none;stroke-width:2;stroke-linecap:round;stroke-linejoin:bevel;stroke-miterlimit:4;stroke-dasharray:none;stroke-dashoffset:0;stroke-opacity:1"
           id="rect3380"
           width="82.85714"
           height="69.956566"
           x="-1006"
           y="592.97711"
           ry="17.728546" />
        <rect
           ry="17.728546"
           y="592.97711"
           x="-920"
           height="69.956566"
           width="82.85714"
           id="rect3382"
           style="opacity:1;fill:#ffffff;fill-opacity:1;stroke:none;stroke-width:2;stroke-linecap:round;stroke-linejoin:bevel;stroke-miterlimit:4;stroke-dasharray:none;stroke-dashoffset:0;stroke-opacity:1" />
        <rect
           style="opacity:1;fill:#ffffff;fill-opacity:1;stroke:none;stroke-width:2;stroke-linecap:round;stroke-linejoin:bevel;stroke-miterlimit:4;stroke-dasharray:none;stroke-dashoffset:0;stroke-opacity:1"
           id="rect3384"
           width="82.85714"
           height="69.956566"
           x="-834"
           y="592.97711"
           ry="17.728546" />
        <rect
           ry="17.728546"
           y="592.97711"
           x="-1093.9999"
           height="69.956566"
           width="82.85714"
           id="rect3388"
           style="opacity:1;fill:#ffffff;fill-opacity:1;stroke:none;stroke-width:2;stroke-linecap:round;stroke-linejoin:bevel;stroke-miterlimit:4;stroke-dasharray:none;stroke-dashoffset:0;stroke-opacity:1" />
      </g>
    </g>
    <path
       id="rect4218-2"
       sodipodi:nodetypes="ssssssssssssssssssssssssssssssssssscssscsssssscsssccsssccsssccsssccccccccccccccccccccccccccccccccccccccccccccccccccccccccccccccccccsscccccccsscccccccccccccccc"
       style="fill:#000000"
       inkscape:connector-curvature="0"
       d="m 874.25927,158.90574 c -6.1606,0 -11.12,4.9596 -11.12,11.12 l 0,30.74 c 0,6.1606 4.9596,11.12 11.12,11.12 6.1606,0 11.12,-4.9596 11.12,-11.12 l 0,-30.74 c 0,-6.1607 -4.9596,-11.12 -11.12,-11.12 z m 56.094,0 c -6.1606,0 -11.12,4.9596 -11.12,11.12 l 0,30.74 c 0,6.1606 4.9596,11.12 11.12,11.12 6.1606,0 11.12,-4.9596 11.12,-11.12 l 0,-30.74 c 0,-6.1607 -4.9596,-11.12 -11.12,-11.12 z m 56.094,0 c -6.1606,0 -11.12,4.9596 -11.12,11.12 l 0,30.74 c 0,6.1606 4.9596,11.12 11.12,11.12 6.1606,0 11.12,-4.9596 11.12,-11.12 l 0,-30.74 c 0,-6.1607 -4.9596,-11.12 -11.12,-11.12 z m 56.09403,0 c -6.1606,0 -11.12,4.9596 -11.12,11.12 l 0,30.74 c 0,6.1606 4.9596,11.12 11.12,11.12 6.1606,0 11.12,-4.9596 11.12,-11.12 l 0,-30.74 c 0,-6.1607 -4.9596,-11.12 -11.12,-11.12 z m 56.094,0 c -6.1606,0 -11.12,4.9596 -11.12,11.12 l 0,30.74 c 0,6.1606 4.9596,11.12 11.12,11.12 6.1606,0 11.12,-4.9596 11.12,-11.12 l 0,-30.74 c 0,-6.1607 -4.9596,-11.12 -11.12,-11.12 z m -204.28003,27.261 0,14.6 c 0,11.003 -9.0925,20.095 -20.095,20.095 -11.003,0 -20.095,-9.0925 -20.095,-20.095 l 0,-14.541 c -9.9082,0.6007 -17.716,8.8682 -17.716,19.076 l 0,284.28 c 0,10.601 8.4125,19.136 18.862,19.136 l 262.28003,0 c 10.449,0 18.862,-8.5344 18.862,-19.136 l 0,-284.28 c 0,-10.208 -7.8076,-18.476 -17.716,-19.076 l 0,14.541 c 0,11.003 -9.0925,20.095 -20.095,20.095 -11.003,0 -20.095,-9.0925 -20.095,-20.095 l 0,-14.6 -15.904,0 0,14.6 c 0,11.003 -9.0925,20.095 -20.095,20.095 -11.003,0 -20.095,-9.0925 -20.095,-20.095 l 0,-14.6 -15.904,0 0,14.6 c 0,11.003 -9.09253,20.095 -20.09503,20.095 -11.003,0 -20.095,-9.0925 -20.095,-20.095 l 0,-14.6 -15.904,0 0,14.6 c 0,11.003 -9.0925,20.095 -20.095,20.095 -11.003,0 -20.095,-9.0925 -20.095,-20.095 l 0,-14.6 z m -41.411,70.966 58.338,0 0,50.485 -58.338,0 z m 69.557,0 58.338,0 0,50.485 -58.338,0 z m 69.557,0 58.33803,0 0,50.485 -58.33803,0 z m 69.55703,0 58.338,0 0,50.485 -58.338,0 z m -208.67003,61.704 58.338,0 0,50.485 -58.338,0 z m 69.557,0 58.338,0 0,50.485 -58.338,0 z m 69.557,0 58.33803,0 0,50.485 -58.33803,0 z m 69.55703,0 58.338,0 0,50.485 -58.338,0 z m -208.67003,61.704 58.338,0 0,50.485 -58.338,0 z m 69.557,0 58.338,0 0,50.485 -58.338,0 z m 139.11003,0 58.338,0 0,50.485 -58.338,0 z m -208.67003,61.702 18.029,0 29.89,0 10.419,0 0,29.651 0,10.417 0,10.417 -10.419,0 -29.89,0 -7.6121,0 c -5.7713,0 -10.417,-4.6455 -10.417,-10.417 l 0,-29.649 z m 208.67003,0 10.419,0 29.89,0 18.029,0 0,10.419 0,29.649 c 0,5.7714 -4.6456,10.417 -10.417,10.417 l -7.6121,0 -29.89,0 -10.419,0 0,-10.417 0,-10.417 z m -139.11003,0 58.338,0 0,50.485 -58.338,0 z m 69.557,0 58.33803,0 0,50.485 -58.33803,0 z" />
    <g
       id="g241576"
       transform="matrix(1.9262558,0,0,1.9262558,1361.3643,39.869014)">
      <g
         transform="translate(-180,-1)"
         inkscape:label="Wrapper"
         id="layer1-6">
        <rect
           x="182.5"
           y="3.5"
           width="398"
           height="498"
           ry="0.58408999"
           style="fill:#000000;stroke:#000000;stroke-linejoin:round"
           id="rect2179" />
        <rect
           x="180.5"
           y="1.5"
           width="398"
           height="498"
           ry="0.58408999"
           style="fill:#ffffff;stroke:#000000;stroke-linejoin:round"
           id="rect3935" />
      </g>
      <g
         transform="translate(-180,-1)"
         inkscape:label="Dates"
         id="layer2">
        <path
           d="m 201.08,260.5 49.84,0 c 0.32,0 0.58,0.26 0.58,0.58 l 0,41.84 c 0,0.32 -0.26,0.58 -0.58,0.58 l -49.84,0 c -0.32,0 -0.58,-0.26 -0.58,-0.58 l 0,-41.84 c 0,-0.32 0.26,-0.58 0.58,-0.58 z"
           style="fill:#ffffff;stroke:#000000;stroke-linejoin:round"
           id="rect2181"
           inkscape:connector-curvature="0" />
        <use
           x="0"
           y="0"
           inkscape:tiled-clone-of="#rect2181"
           width="800"
           height="600"
           xlink:href="#rect2181"
           id="use2349" />
        <path
           d="m 220.28,288.34 3.23,0 0,-11.12 -3.51,0.7 0,-1.8 3.49,-0.7 1.97,0 0,12.92 3.22,0 0,1.66 -8.4,0 0,-1.66 z"
           style="fill:#000000"
           id="text2484"
           inkscape:connector-curvature="0" />
        <use
           x="0"
           y="0"
           inkscape:tiled-clone-of="#rect2181"
           width="800"
           height="600"
           xlink:href="#rect2181"
           id="use3806" />
        <use
           x="0"
           y="0"
           inkscape:tiled-clone-of="#rect2181"
           width="800"
           height="600"
           transform="translate(0,44)"
           xlink:href="#rect2181"
           id="use3798" />
        <path
           d="m 219.96,319.42 7.75,0 0,1.66 -5.94,0 0,3.57 c 0.28,-0.09 0.57,-0.17 0.86,-0.22 0.28,-0.04 0.57,-0.07 0.86,-0.07 1.62,0 2.91,0.45 3.86,1.34 0.95,0.89 1.43,2.1 1.43,3.62 0,1.57 -0.49,2.79 -1.47,3.66 -0.97,0.87 -2.35,1.3 -4.13,1.3 -0.61,0 -1.23,-0.05 -1.87,-0.15 -0.63,-0.11 -1.29,-0.26 -1.96,-0.47 l 0,-1.98 c 0.58,0.31 1.19,0.55 1.81,0.71 0.63,0.15 1.29,0.23 1.98,0.23 1.13,0 2.02,-0.29 2.68,-0.89 0.66,-0.59 0.99,-1.39 0.99,-2.41 0,-1.01 -0.33,-1.82 -0.99,-2.41 -0.66,-0.59 -1.55,-0.89 -2.68,-0.89 -0.52,0 -1.05,0.06 -1.57,0.18 -0.53,0.11 -1.06,0.3 -1.61,0.54 l 0,-7.32 z"
           style="fill:#000000"
           id="text3800"
           inkscape:connector-curvature="0" />
        <use
           x="0"
           y="0"
           inkscape:tiled-clone-of="#rect2181"
           width="800"
           height="600"
           transform="translate(0,88)"
           xlink:href="#rect2181"
           id="use3790" />
        <path
           d="m 216.28,376.34 3.23,0 0,-11.12 -3.51,0.7 0,-1.8 3.49,-0.7 1.97,0 0,12.92 3.22,0 0,1.66 -8.4,0 0,-1.66 z m 14.1,0 6.88,0 0,1.66 -9.26,0 0,-1.66 c 0.75,-0.77 1.77,-1.81 3.06,-3.12 1.3,-1.31 2.11,-2.15 2.44,-2.52 0.63,-0.71 1.07,-1.31 1.32,-1.81 0.25,-0.49 0.38,-0.97 0.38,-1.45 0,-0.77 -0.27,-1.4 -0.82,-1.89 -0.54,-0.49 -1.25,-0.73 -2.12,-0.73 -0.62,0 -1.27,0.1 -1.96,0.32 -0.68,0.21 -1.42,0.54 -2.2,0.98 l 0,-2 c 0.79,-0.32 1.54,-0.56 2.23,-0.72 0.69,-0.16 1.32,-0.24 1.89,-0.24 1.51,0 2.72,0.37 3.61,1.13 0.9,0.75 1.35,1.76 1.35,3.03 0,0.6 -0.11,1.16 -0.34,1.7 -0.22,0.54 -0.63,1.17 -1.22,1.9 -0.16,0.19 -0.68,0.73 -1.55,1.64 -0.88,0.9 -2.11,2.16 -3.69,3.78 z"
           style="fill:#000000"
           id="text3792"
           inkscape:connector-curvature="0" />
        <use
           x="0"
           y="0"
           inkscape:tiled-clone-of="#rect2181"
           width="800"
           height="600"
           transform="translate(0,132)"
           xlink:href="#rect2181"
           id="use3782" />
        <path
           d="m 216.28,420.34 3.23,0 0,-11.12 -3.51,0.7 0,-1.8 3.49,-0.7 1.97,0 0,12.92 3.22,0 0,1.66 -8.4,0 0,-1.66 z m 12.45,1.36 0,-1.8 c 0.5,0.23 1,0.41 1.51,0.54 0.51,0.12 1,0.18 1.49,0.18 1.3,0 2.3,-0.43 2.99,-1.31 0.68,-0.88 1.08,-2.21 1.17,-3.99 -0.37,0.56 -0.85,0.99 -1.43,1.29 -0.58,0.3 -1.22,0.45 -1.93,0.45 -1.45,0 -2.61,-0.44 -3.46,-1.32 -0.85,-0.89 -1.27,-2.09 -1.27,-3.62 0,-1.5 0.44,-2.7 1.33,-3.61 0.88,-0.9 2.06,-1.35 3.53,-1.35 1.69,0 2.97,0.64 3.86,1.93 0.89,1.3 1.34,3.17 1.34,5.63 0,2.3 -0.55,4.14 -1.64,5.51 -1.09,1.37 -2.56,2.05 -4.4,2.05 -0.49,0 -1,-0.05 -1.5,-0.14 -0.51,-0.1 -1.04,-0.25 -1.59,-0.44 z m 3.93,-6.18 c 0.89,0 1.59,-0.31 2.1,-0.91 0.52,-0.61 0.78,-1.44 0.78,-2.49 0,-1.05 -0.26,-1.88 -0.78,-2.49 -0.51,-0.61 -1.21,-0.91 -2.1,-0.91 -0.89,0 -1.59,0.3 -2.1,0.91 -0.52,0.61 -0.78,1.44 -0.78,2.49 0,1.05 0.26,1.88 0.78,2.49 0.51,0.6 1.21,0.91 2.1,0.91 z"
           style="fill:#000000"
           id="text3784"
           inkscape:connector-curvature="0" />
        <use
           x="0"
           y="0"
           inkscape:tiled-clone-of="#rect2181"
           width="800"
           height="600"
           transform="translate(0,176)"
           xlink:href="#rect2181"
           id="use3774" />
        <path
           d="m 217.64,464.34 6.89,0 0,1.66 -9.26,0 0,-1.66 c 0.75,-0.77 1.77,-1.81 3.06,-3.12 1.29,-1.31 2.1,-2.15 2.44,-2.52 0.63,-0.71 1.07,-1.31 1.32,-1.81 0.25,-0.49 0.38,-0.97 0.38,-1.45 0,-0.77 -0.28,-1.4 -0.82,-1.89 -0.54,-0.49 -1.25,-0.73 -2.12,-0.73 -0.62,0 -1.28,0.1 -1.96,0.32 -0.69,0.21 -1.42,0.54 -2.2,0.98 l 0,-2 c 0.79,-0.32 1.53,-0.56 2.22,-0.72 0.69,-0.16 1.32,-0.24 1.9,-0.24 1.51,0 2.71,0.37 3.61,1.13 0.9,0.75 1.35,1.76 1.35,3.03 0,0.6 -0.11,1.16 -0.34,1.7 -0.22,0.54 -0.63,1.17 -1.22,1.9 -0.17,0.19 -0.69,0.73 -1.56,1.64 -0.87,0.9 -2.1,2.16 -3.69,3.78 z m 15.5,-6.42 c -0.89,0 -1.59,0.31 -2.11,0.91 -0.51,0.61 -0.77,1.44 -0.77,2.49 0,1.05 0.26,1.88 0.77,2.49 0.52,0.61 1.22,0.91 2.11,0.91 0.88,0 1.59,-0.3 2.1,-0.91 0.52,-0.61 0.78,-1.44 0.78,-2.49 0,-1.05 -0.26,-1.88 -0.78,-2.49 -0.51,-0.6 -1.22,-0.91 -2.1,-0.91 z m 3.91,-6.18 0,1.8 c -0.49,-0.24 -0.99,-0.41 -1.49,-0.54 -0.51,-0.12 -1.01,-0.18 -1.5,-0.18 -1.31,0 -2.3,0.44 -2.99,1.31 -0.68,0.88 -1.08,2.21 -1.17,3.99 0.38,-0.57 0.86,-1 1.44,-1.3 0.58,-0.31 1.22,-0.46 1.92,-0.46 1.46,0 2.62,0.45 3.47,1.33 0.85,0.89 1.27,2.1 1.27,3.63 0,1.5 -0.44,2.7 -1.33,3.61 -0.88,0.9 -2.06,1.35 -3.53,1.35 -1.69,0 -2.98,-0.64 -3.87,-1.94 -0.89,-1.29 -1.34,-3.16 -1.34,-5.62 0,-2.3 0.55,-4.14 1.64,-5.51 1.1,-1.37 2.57,-2.05 4.41,-2.05 0.49,0 0.99,0.05 1.5,0.14 0.5,0.1 1.03,0.25 1.57,0.44 z"
           style="fill:#000000"
           id="text3776"
           inkscape:connector-curvature="0" />
        <use
           x="0"
           y="0"
           inkscape:tiled-clone-of="#rect2181"
           width="800"
           height="600"
           transform="translate(52,0)"
           xlink:href="#rect2181"
           id="use3766" />
        <use
           x="0"
           y="0"
           inkscape:tiled-clone-of="#rect2181"
           width="800"
           height="600"
           transform="translate(52,44)"
           xlink:href="#rect2181"
           id="use3758" />
        <path
           d="m 276.4,325.92 c -0.88,0 -1.58,0.31 -2.1,0.91 -0.52,0.61 -0.78,1.44 -0.78,2.49 0,1.05 0.26,1.88 0.78,2.49 0.52,0.61 1.22,0.91 2.1,0.91 0.89,0 1.59,-0.3 2.11,-0.91 0.52,-0.61 0.78,-1.44 0.78,-2.49 0,-1.05 -0.26,-1.88 -0.78,-2.49 -0.52,-0.6 -1.22,-0.91 -2.11,-0.91 z m 3.92,-6.18 0,1.8 c -0.49,-0.24 -0.99,-0.41 -1.5,-0.54 -0.5,-0.12 -1,-0.18 -1.5,-0.18 -1.3,0 -2.29,0.44 -2.98,1.31 -0.69,0.88 -1.08,2.21 -1.18,3.99 0.39,-0.57 0.87,-1 1.45,-1.3 0.58,-0.31 1.22,-0.46 1.91,-0.46 1.47,0 2.62,0.45 3.47,1.33 0.85,0.89 1.28,2.1 1.28,3.63 0,1.5 -0.44,2.7 -1.33,3.61 -0.89,0.9 -2.06,1.35 -3.54,1.35 -1.68,0 -2.97,-0.64 -3.86,-1.94 -0.89,-1.29 -1.34,-3.16 -1.34,-5.62 0,-2.3 0.55,-4.14 1.64,-5.51 1.09,-1.37 2.56,-2.05 4.4,-2.05 0.5,0 1,0.05 1.5,0.14 0.51,0.1 1.03,0.25 1.58,0.44 z"
           style="fill:#000000"
           id="text3760"
           inkscape:connector-curvature="0" />
        <use
           x="0"
           y="0"
           inkscape:tiled-clone-of="#rect2181"
           width="800"
           height="600"
           transform="translate(52,88)"
           xlink:href="#rect2181"
           id="use3750" />
        <path
           d="m 268.28,376.34 3.23,0 0,-11.12 -3.51,0.7 0,-1.8 3.49,-0.7 1.97,0 0,12.92 3.22,0 0,1.66 -8.4,0 0,-1.66 z m 18.37,-6.2 c 0.95,0.2 1.68,0.62 2.21,1.26 0.54,0.64 0.8,1.42 0.8,2.36 0,1.44 -0.49,2.55 -1.48,3.34 -0.99,0.79 -2.4,1.18 -4.22,1.18 -0.61,0 -1.24,-0.06 -1.89,-0.18 -0.65,-0.12 -1.32,-0.3 -2.01,-0.54 l 0,-1.9 c 0.55,0.32 1.15,0.56 1.8,0.72 0.65,0.16 1.33,0.24 2.04,0.24 1.24,0 2.18,-0.24 2.83,-0.73 0.64,-0.49 0.97,-1.2 0.97,-2.13 0,-0.86 -0.3,-1.53 -0.91,-2.01 -0.6,-0.49 -1.44,-0.73 -2.51,-0.73 l -1.7,0 0,-1.62 1.78,0 c 0.97,0 1.71,-0.2 2.22,-0.58 0.52,-0.39 0.78,-0.95 0.78,-1.68 0,-0.75 -0.27,-1.32 -0.8,-1.72 -0.53,-0.4 -1.29,-0.6 -2.28,-0.6 -0.54,0 -1.12,0.06 -1.74,0.17 -0.62,0.12 -1.3,0.3 -2.04,0.55 l 0,-1.76 c 0.75,-0.21 1.45,-0.36 2.1,-0.47 0.66,-0.1 1.28,-0.15 1.86,-0.15 1.49,0 2.68,0.34 3.55,1.02 0.87,0.68 1.31,1.6 1.31,2.76 0,0.8 -0.23,1.48 -0.69,2.04 -0.47,0.56 -1.12,0.94 -1.98,1.16 z"
           style="fill:#000000"
           id="text3752"
           inkscape:connector-curvature="0" />
        <use
           x="0"
           y="0"
           inkscape:tiled-clone-of="#rect2181"
           width="800"
           height="600"
           transform="translate(52,132)"
           xlink:href="#rect2181"
           id="use3742" />
        <path
           d="m 269.64,420.34 6.89,0 0,1.66 -9.26,0 0,-1.66 c 0.75,-0.77 1.77,-1.81 3.06,-3.12 1.29,-1.31 2.1,-2.15 2.44,-2.52 0.63,-0.71 1.07,-1.31 1.32,-1.81 0.25,-0.49 0.38,-0.97 0.38,-1.45 0,-0.77 -0.28,-1.4 -0.82,-1.89 -0.54,-0.49 -1.25,-0.73 -2.12,-0.73 -0.62,0 -1.28,0.1 -1.96,0.32 -0.69,0.21 -1.42,0.54 -2.2,0.98 l 0,-2 c 0.79,-0.32 1.53,-0.56 2.22,-0.72 0.69,-0.16 1.32,-0.24 1.9,-0.24 1.51,0 2.71,0.37 3.61,1.13 0.9,0.75 1.35,1.76 1.35,3.03 0,0.6 -0.11,1.16 -0.34,1.7 -0.22,0.54 -0.63,1.17 -1.22,1.9 -0.17,0.19 -0.69,0.73 -1.56,1.64 -0.87,0.9 -2.1,2.16 -3.69,3.78 z m 15.25,-11.62 c -1.01,0 -1.77,0.5 -2.29,1.5 -0.51,1 -0.76,2.5 -0.76,4.5 0,2 0.25,3.5 0.76,4.5 0.52,1 1.28,1.5 2.29,1.5 1.03,0 1.79,-0.5 2.3,-1.5 0.52,-1 0.77,-2.5 0.77,-4.5 0,-2 -0.25,-3.5 -0.77,-4.5 -0.51,-1 -1.27,-1.5 -2.3,-1.5 z m 0,-1.56 c 1.64,0 2.89,0.64 3.75,1.93 0.86,1.3 1.29,3.17 1.29,5.63 0,2.46 -0.43,4.33 -1.29,5.62 -0.86,1.3 -2.11,1.94 -3.75,1.94 -1.63,0 -2.88,-0.64 -3.74,-1.94 -0.86,-1.29 -1.29,-3.16 -1.29,-5.62 0,-2.46 0.43,-4.33 1.29,-5.63 0.86,-1.29 2.11,-1.93 3.74,-1.93 z"
           style="fill:#000000"
           id="text3744"
           inkscape:connector-curvature="0" />
        <use
           x="0"
           y="0"
           inkscape:tiled-clone-of="#rect2181"
           width="800"
           height="600"
           transform="translate(52,176)"
           xlink:href="#rect2181"
           id="use3734" />
        <path
           d="m 269.64,464.34 6.89,0 0,1.66 -9.26,0 0,-1.66 c 0.75,-0.77 1.77,-1.81 3.06,-3.12 1.29,-1.31 2.1,-2.15 2.44,-2.52 0.63,-0.71 1.07,-1.31 1.32,-1.81 0.25,-0.49 0.38,-0.97 0.38,-1.45 0,-0.77 -0.28,-1.4 -0.82,-1.89 -0.54,-0.49 -1.25,-0.73 -2.12,-0.73 -0.62,0 -1.28,0.1 -1.96,0.32 -0.69,0.21 -1.42,0.54 -2.2,0.98 l 0,-2 c 0.79,-0.32 1.53,-0.56 2.22,-0.72 0.69,-0.16 1.32,-0.24 1.9,-0.24 1.51,0 2.71,0.37 3.61,1.13 0.9,0.75 1.35,1.76 1.35,3.03 0,0.6 -0.11,1.16 -0.34,1.7 -0.22,0.54 -0.63,1.17 -1.22,1.9 -0.17,0.19 -0.69,0.73 -1.56,1.64 -0.87,0.9 -2.1,2.16 -3.69,3.78 z m 10.54,-12.92 9.37,0 0,0.84 -5.29,13.74 -2.06,0 4.98,-12.92 -7,0 0,-1.66 z"
           style="fill:#000000"
           id="text3736"
           inkscape:connector-curvature="0" />
        <use
           x="0"
           y="0"
           inkscape:tiled-clone-of="#rect2181"
           width="800"
           height="600"
           transform="translate(104,0)"
           xlink:href="#rect2181"
           id="use3726" />
        <use
           x="0"
           y="0"
           inkscape:tiled-clone-of="#rect2181"
           width="800"
           height="600"
           transform="translate(104,44)"
           xlink:href="#rect2181"
           id="use3718" />
        <path
           d="m 323.44,319.42 9.38,0 0,0.84 -5.29,13.74 -2.06,0 4.98,-12.92 -7.01,0 0,-1.66 z"
           style="fill:#000000"
           id="text3720"
           inkscape:connector-curvature="0" />
        <use
           x="0"
           y="0"
           inkscape:tiled-clone-of="#rect2181"
           width="800"
           height="600"
           transform="translate(104,88)"
           xlink:href="#rect2181"
           id="use3710" />
        <path
           d="m 320.28,376.34 3.23,0 0,-11.12 -3.51,0.7 0,-1.8 3.49,-0.7 1.97,0 0,12.92 3.22,0 0,1.66 -8.4,0 0,-1.66 z m 17.82,-11.2 -4.98,7.78 4.98,0 0,-7.78 z m -0.52,-1.72 2.48,0 0,9.5 2.08,0 0,1.64 -2.08,0 0,3.44 -1.96,0 0,-3.44 -6.59,0 0,-1.9 6.07,-9.24 z"
           style="fill:#000000"
           id="text3712"
           inkscape:connector-curvature="0" />
        <use
           x="0"
           y="0"
           inkscape:tiled-clone-of="#rect2181"
           width="800"
           height="600"
           transform="translate(104,132)"
           xlink:href="#rect2181"
           id="use3702" />
        <path
           d="m 325.64,420.34 6.89,0 0,1.66 -9.26,0 0,-1.66 c 0.75,-0.77 1.77,-1.81 3.06,-3.12 1.29,-1.31 2.1,-2.15 2.44,-2.52 0.63,-0.71 1.07,-1.31 1.32,-1.81 0.25,-0.49 0.38,-0.97 0.38,-1.45 0,-0.77 -0.28,-1.4 -0.82,-1.89 -0.54,-0.49 -1.25,-0.73 -2.12,-0.73 -0.62,0 -1.28,0.1 -1.96,0.32 -0.69,0.21 -1.42,0.54 -2.2,0.98 l 0,-2 c 0.79,-0.32 1.53,-0.56 2.22,-0.72 0.69,-0.16 1.32,-0.24 1.9,-0.24 1.51,0 2.71,0.37 3.61,1.13 0.9,0.75 1.35,1.76 1.35,3.03 0,0.6 -0.11,1.16 -0.34,1.7 -0.22,0.54 -0.63,1.17 -1.22,1.9 -0.17,0.19 -0.69,0.73 -1.56,1.64 -0.87,0.9 -2.1,2.16 -3.69,3.78 z m 11.38,0 3.22,0 0,-11.12 -3.51,0.7 0,-1.8 3.49,-0.7 1.97,0 0,12.92 3.23,0 0,1.66 -8.4,0 0,-1.66 z"
           style="fill:#000000"
           id="text3704"
           inkscape:connector-curvature="0" />
        <use
           x="0"
           y="0"
           inkscape:tiled-clone-of="#rect2181"
           width="800"
           height="600"
           transform="translate(104,176)"
           xlink:href="#rect2181"
           id="use3694" />
        <path
           d="m 321.64,464.34 6.89,0 0,1.66 -9.26,0 0,-1.66 c 0.75,-0.77 1.77,-1.81 3.06,-3.12 1.29,-1.31 2.1,-2.15 2.44,-2.52 0.63,-0.71 1.07,-1.31 1.32,-1.81 0.25,-0.49 0.38,-0.97 0.38,-1.45 0,-0.77 -0.28,-1.4 -0.82,-1.89 -0.54,-0.49 -1.25,-0.73 -2.12,-0.73 -0.62,0 -1.28,0.1 -1.96,0.32 -0.69,0.21 -1.42,0.54 -2.2,0.98 l 0,-2 c 0.79,-0.32 1.53,-0.56 2.22,-0.72 0.69,-0.16 1.32,-0.24 1.9,-0.24 1.51,0 2.71,0.37 3.61,1.13 0.9,0.75 1.35,1.76 1.35,3.03 0,0.6 -0.11,1.16 -0.34,1.7 -0.22,0.54 -0.63,1.17 -1.22,1.9 -0.17,0.19 -0.69,0.73 -1.56,1.64 -0.87,0.9 -2.1,2.16 -3.69,3.78 z m 15.25,-5.26 c -0.93,0 -1.67,0.25 -2.21,0.75 -0.53,0.5 -0.8,1.19 -0.8,2.07 0,0.88 0.27,1.57 0.8,2.07 0.54,0.5 1.28,0.75 2.21,0.75 0.94,0 1.68,-0.25 2.22,-0.76 0.54,-0.5 0.81,-1.19 0.81,-2.06 0,-0.88 -0.27,-1.57 -0.8,-2.07 -0.54,-0.5 -1.28,-0.75 -2.23,-0.75 z m -1.97,-0.84 c -0.84,-0.21 -1.5,-0.61 -1.98,-1.19 -0.47,-0.57 -0.7,-1.28 -0.7,-2.11 0,-1.17 0.41,-2.09 1.24,-2.77 0.83,-0.68 1.97,-1.01 3.41,-1.01 1.46,0 2.6,0.33 3.42,1.01 0.83,0.68 1.24,1.6 1.24,2.77 0,0.83 -0.23,1.54 -0.71,2.11 -0.47,0.58 -1.12,0.98 -1.96,1.19 0.95,0.22 1.69,0.65 2.22,1.3 0.53,0.64 0.79,1.43 0.79,2.36 0,1.41 -0.43,2.5 -1.29,3.25 -0.86,0.76 -2.1,1.13 -3.71,1.13 -1.6,0 -2.84,-0.37 -3.7,-1.13 -0.86,-0.75 -1.3,-1.84 -1.3,-3.25 0,-0.93 0.27,-1.72 0.81,-2.36 0.53,-0.65 1.27,-1.08 2.22,-1.3 z m -0.72,-3.12 c 0,0.76 0.24,1.35 0.71,1.77 0.47,0.42 1.13,0.63 1.98,0.63 0.85,0 1.51,-0.21 1.99,-0.63 0.48,-0.42 0.72,-1.01 0.72,-1.77 0,-0.75 -0.24,-1.34 -0.72,-1.77 -0.48,-0.42 -1.14,-0.63 -1.99,-0.63 -0.85,0 -1.51,0.21 -1.98,0.63 -0.47,0.43 -0.71,1.02 -0.71,1.77 z"
           style="fill:#000000"
           id="text3696"
           inkscape:connector-curvature="0" />
        <use
           x="0"
           y="0"
           inkscape:tiled-clone-of="#rect2181"
           width="800"
           height="600"
           transform="translate(156,0)"
           xlink:href="#rect2181"
           id="use3686" />
        <path
           d="m 376.28,288.34 3.23,0 0,-11.12 -3.51,0.7 0,-1.8 3.49,-0.7 1.97,0 0,12.92 3.22,0 0,1.66 -8.4,0 0,-1.66 z"
           style="fill:#000000"
           id="text3688"
           inkscape:connector-curvature="0" />
        <use
           x="0"
           y="0"
           inkscape:tiled-clone-of="#rect2181"
           width="800"
           height="600"
           transform="translate(156,44)"
           xlink:href="#rect2181"
           id="use3678" />
        <path
           d="m 380.16,327.08 c -0.94,0 -1.67,0.25 -2.21,0.75 -0.54,0.5 -0.81,1.19 -0.81,2.07 0,0.88 0.27,1.57 0.81,2.07 0.54,0.5 1.27,0.75 2.21,0.75 0.94,0 1.68,-0.25 2.22,-0.76 0.54,-0.5 0.81,-1.19 0.81,-2.06 0,-0.88 -0.27,-1.57 -0.81,-2.07 -0.54,-0.5 -1.28,-0.75 -2.22,-0.75 z m -1.97,-0.84 c -0.85,-0.21 -1.51,-0.61 -1.98,-1.19 -0.47,-0.57 -0.71,-1.28 -0.71,-2.11 0,-1.17 0.42,-2.09 1.25,-2.77 0.83,-0.68 1.97,-1.01 3.41,-1.01 1.45,0 2.59,0.33 3.42,1.01 0.83,0.68 1.24,1.6 1.24,2.77 0,0.83 -0.24,1.54 -0.71,2.11 -0.47,0.58 -1.13,0.98 -1.97,1.19 0.95,0.22 1.69,0.65 2.22,1.3 0.54,0.64 0.8,1.43 0.8,2.36 0,1.41 -0.43,2.5 -1.29,3.25 -0.87,0.76 -2.1,1.13 -3.71,1.13 -1.61,0 -2.84,-0.37 -3.71,-1.13 -0.86,-0.75 -1.29,-1.84 -1.29,-3.25 0,-0.93 0.27,-1.72 0.8,-2.36 0.54,-0.65 1.28,-1.08 2.23,-1.3 z m -0.72,-3.12 c 0,0.76 0.23,1.35 0.7,1.77 0.48,0.42 1.14,0.63 1.99,0.63 0.85,0 1.51,-0.21 1.99,-0.63 0.48,-0.42 0.72,-1.01 0.72,-1.77 0,-0.75 -0.24,-1.34 -0.72,-1.77 -0.48,-0.42 -1.14,-0.63 -1.99,-0.63 -0.85,0 -1.51,0.21 -1.99,0.63 -0.47,0.43 -0.7,1.02 -0.7,1.77 z"
           style="fill:#000000"
           id="text3680"
           inkscape:connector-curvature="0" />
        <use
           x="0"
           y="0"
           inkscape:tiled-clone-of="#rect2181"
           width="800"
           height="600"
           transform="translate(156,88)"
           xlink:href="#rect2181"
           id="use3670" />
        <path
           d="m 372.28,376.34 3.23,0 0,-11.12 -3.51,0.7 0,-1.8 3.49,-0.7 1.97,0 0,12.92 3.22,0 0,1.66 -8.4,0 0,-1.66 z m 12.42,-12.92 7.74,0 0,1.66 -5.94,0 0,3.57 c 0.29,-0.09 0.58,-0.17 0.86,-0.22 0.29,-0.04 0.57,-0.07 0.86,-0.07 1.63,0 2.92,0.45 3.87,1.34 0.95,0.89 1.42,2.1 1.42,3.62 0,1.57 -0.48,2.79 -1.46,3.66 -0.98,0.87 -2.35,1.3 -4.13,1.3 -0.61,0 -1.24,-0.05 -1.87,-0.15 -0.64,-0.11 -1.29,-0.26 -1.97,-0.47 l 0,-1.98 c 0.59,0.31 1.19,0.55 1.82,0.71 0.62,0.15 1.28,0.23 1.98,0.23 1.13,0 2.02,-0.29 2.67,-0.89 0.66,-0.59 0.99,-1.39 0.99,-2.41 0,-1.01 -0.33,-1.82 -0.99,-2.41 -0.65,-0.59 -1.54,-0.89 -2.67,-0.89 -0.53,0 -1.05,0.06 -1.58,0.18 -0.52,0.11 -1.06,0.3 -1.6,0.54 l 0,-7.32 z"
           style="fill:#000000"
           id="text3672"
           inkscape:connector-curvature="0" />
        <use
           x="0"
           y="0"
           inkscape:tiled-clone-of="#rect2181"
           width="800"
           height="600"
           transform="translate(156,132)"
           xlink:href="#rect2181"
           id="use3662" />
        <path
           d="m 373.64,420.34 6.89,0 0,1.66 -9.26,0 0,-1.66 c 0.75,-0.77 1.77,-1.81 3.06,-3.12 1.29,-1.31 2.1,-2.15 2.44,-2.52 0.63,-0.71 1.07,-1.31 1.32,-1.81 0.25,-0.49 0.38,-0.97 0.38,-1.45 0,-0.77 -0.28,-1.4 -0.82,-1.89 -0.54,-0.49 -1.25,-0.73 -2.12,-0.73 -0.62,0 -1.28,0.1 -1.96,0.32 -0.69,0.21 -1.42,0.54 -2.2,0.98 l 0,-2 c 0.79,-0.32 1.53,-0.56 2.22,-0.72 0.69,-0.16 1.32,-0.24 1.9,-0.24 1.51,0 2.71,0.37 3.61,1.13 0.9,0.75 1.35,1.76 1.35,3.03 0,0.6 -0.11,1.16 -0.34,1.7 -0.22,0.54 -0.63,1.17 -1.22,1.9 -0.17,0.19 -0.69,0.73 -1.56,1.64 -0.87,0.9 -2.1,2.16 -3.69,3.78 z m 12.74,0 6.88,0 0,1.66 -9.26,0 0,-1.66 c 0.75,-0.77 1.77,-1.81 3.06,-3.12 1.3,-1.31 2.11,-2.15 2.44,-2.52 0.63,-0.71 1.07,-1.31 1.32,-1.81 0.25,-0.49 0.38,-0.97 0.38,-1.45 0,-0.77 -0.27,-1.4 -0.82,-1.89 -0.54,-0.49 -1.25,-0.73 -2.12,-0.73 -0.62,0 -1.27,0.1 -1.96,0.32 -0.68,0.21 -1.42,0.54 -2.2,0.98 l 0,-2 c 0.79,-0.32 1.54,-0.56 2.23,-0.72 0.69,-0.16 1.32,-0.24 1.89,-0.24 1.51,0 2.72,0.37 3.61,1.13 0.9,0.75 1.35,1.76 1.35,3.03 0,0.6 -0.11,1.16 -0.34,1.7 -0.22,0.54 -0.63,1.17 -1.22,1.9 -0.16,0.19 -0.68,0.73 -1.55,1.64 -0.88,0.9 -2.11,2.16 -3.69,3.78 z"
           style="fill:#000000"
           id="text3664"
           inkscape:connector-curvature="0" />
        <use
           x="0"
           y="0"
           inkscape:tiled-clone-of="#rect2181"
           width="800"
           height="600"
           transform="translate(156,176)"
           xlink:href="#rect2181"
           id="use3654" />
        <path
           d="m 373.64,464.34 6.89,0 0,1.66 -9.26,0 0,-1.66 c 0.75,-0.77 1.77,-1.81 3.06,-3.12 1.29,-1.31 2.1,-2.15 2.44,-2.52 0.63,-0.71 1.07,-1.31 1.32,-1.81 0.25,-0.49 0.38,-0.97 0.38,-1.45 0,-0.77 -0.28,-1.4 -0.82,-1.89 -0.54,-0.49 -1.25,-0.73 -2.12,-0.73 -0.62,0 -1.28,0.1 -1.96,0.32 -0.69,0.21 -1.42,0.54 -2.2,0.98 l 0,-2 c 0.79,-0.32 1.53,-0.56 2.22,-0.72 0.69,-0.16 1.32,-0.24 1.9,-0.24 1.51,0 2.71,0.37 3.61,1.13 0.9,0.75 1.35,1.76 1.35,3.03 0,0.6 -0.11,1.16 -0.34,1.7 -0.22,0.54 -0.63,1.17 -1.22,1.9 -0.17,0.19 -0.69,0.73 -1.56,1.64 -0.87,0.9 -2.1,2.16 -3.69,3.78 z m 11.09,1.36 0,-1.8 c 0.5,0.23 1,0.41 1.51,0.54 0.51,0.12 1,0.18 1.49,0.18 1.3,0 2.3,-0.43 2.99,-1.31 0.68,-0.88 1.08,-2.21 1.17,-3.99 -0.37,0.56 -0.85,0.99 -1.43,1.29 -0.58,0.3 -1.22,0.45 -1.93,0.45 -1.45,0 -2.61,-0.44 -3.46,-1.32 -0.85,-0.89 -1.27,-2.09 -1.27,-3.62 0,-1.5 0.44,-2.7 1.33,-3.61 0.88,-0.9 2.06,-1.35 3.53,-1.35 1.69,0 2.97,0.64 3.86,1.93 0.89,1.3 1.34,3.17 1.34,5.63 0,2.3 -0.55,4.14 -1.64,5.51 -1.09,1.37 -2.56,2.05 -4.4,2.05 -0.49,0 -1,-0.05 -1.5,-0.14 -0.51,-0.1 -1.04,-0.25 -1.59,-0.44 z m 3.93,-6.18 c 0.89,0 1.59,-0.31 2.1,-0.91 0.52,-0.61 0.78,-1.44 0.78,-2.49 0,-1.05 -0.26,-1.88 -0.78,-2.49 -0.51,-0.61 -1.21,-0.91 -2.1,-0.91 -0.88,0 -1.59,0.3 -2.1,0.91 -0.52,0.61 -0.78,1.44 -0.78,2.49 0,1.05 0.26,1.88 0.78,2.49 0.51,0.6 1.22,0.91 2.1,0.91 z"
           style="fill:#000000"
           id="text3656"
           inkscape:connector-curvature="0" />
        <use
           x="0"
           y="0"
           inkscape:tiled-clone-of="#rect2181"
           width="800"
           height="600"
           transform="translate(208,0)"
           xlink:href="#rect2181"
           id="use3646" />
        <path
           d="m 429.64,288.34 6.89,0 0,1.66 -9.26,0 0,-1.66 c 0.75,-0.77 1.77,-1.81 3.06,-3.12 1.29,-1.31 2.1,-2.15 2.44,-2.52 0.63,-0.71 1.07,-1.31 1.32,-1.81 0.25,-0.49 0.38,-0.97 0.38,-1.45 0,-0.77 -0.28,-1.4 -0.82,-1.89 -0.54,-0.49 -1.25,-0.73 -2.12,-0.73 -0.62,0 -1.28,0.1 -1.96,0.32 -0.69,0.21 -1.42,0.54 -2.2,0.98 l 0,-2 c 0.79,-0.32 1.53,-0.56 2.22,-0.72 0.69,-0.16 1.32,-0.24 1.9,-0.24 1.51,0 2.71,0.37 3.61,1.13 0.9,0.75 1.35,1.76 1.35,3.03 0,0.6 -0.11,1.16 -0.34,1.7 -0.22,0.54 -0.63,1.17 -1.22,1.9 -0.17,0.19 -0.69,0.73 -1.56,1.64 -0.87,0.9 -2.1,2.16 -3.69,3.78 z"
           style="fill:#000000"
           id="text3648"
           inkscape:connector-curvature="0" />
        <use
           x="0"
           y="0"
           inkscape:tiled-clone-of="#rect2181"
           width="800"
           height="600"
           transform="translate(208,44)"
           xlink:href="#rect2181"
           id="use3638" />
        <path
           d="m 428,333.7 0,-1.8 c 0.5,0.23 1,0.41 1.5,0.54 0.51,0.12 1.01,0.18 1.5,0.18 1.3,0 2.29,-0.43 2.98,-1.31 0.69,-0.88 1.08,-2.21 1.18,-3.99 -0.38,0.56 -0.86,0.99 -1.44,1.29 -0.58,0.3 -1.22,0.45 -1.92,0.45 -1.46,0 -2.61,-0.44 -3.46,-1.32 -0.85,-0.89 -1.28,-2.09 -1.28,-3.62 0,-1.5 0.45,-2.7 1.33,-3.61 0.89,-0.9 2.06,-1.35 3.54,-1.35 1.68,0 2.97,0.64 3.86,1.93 0.89,1.3 1.33,3.17 1.33,5.63 0,2.3 -0.54,4.14 -1.63,5.51 -1.09,1.37 -2.56,2.05 -4.4,2.05 -0.5,0 -1,-0.05 -1.51,-0.14 -0.51,-0.1 -1.03,-0.25 -1.58,-0.44 z m 3.93,-6.18 c 0.88,0 1.58,-0.31 2.1,-0.91 0.52,-0.61 0.78,-1.44 0.78,-2.49 0,-1.05 -0.26,-1.88 -0.78,-2.49 -0.52,-0.61 -1.22,-0.91 -2.1,-0.91 -0.89,0 -1.59,0.3 -2.11,0.91 -0.52,0.61 -0.77,1.44 -0.77,2.49 0,1.05 0.25,1.88 0.77,2.49 0.52,0.6 1.22,0.91 2.11,0.91 z"
           style="fill:#000000"
           id="text3640"
           inkscape:connector-curvature="0" />
        <use
           x="0"
           y="0"
           inkscape:tiled-clone-of="#rect2181"
           width="800"
           height="600"
           transform="translate(208,88)"
           xlink:href="#rect2181"
           id="use3630" />
        <path
           d="m 424.28,376.34 3.23,0 0,-11.12 -3.51,0.7 0,-1.8 3.49,-0.7 1.97,0 0,12.92 3.22,0 0,1.66 -8.4,0 0,-1.66 z m 16.86,-6.42 c -0.89,0 -1.59,0.31 -2.11,0.91 -0.51,0.61 -0.77,1.44 -0.77,2.49 0,1.05 0.26,1.88 0.77,2.49 0.52,0.61 1.22,0.91 2.11,0.91 0.88,0 1.59,-0.3 2.1,-0.91 0.52,-0.61 0.78,-1.44 0.78,-2.49 0,-1.05 -0.26,-1.88 -0.78,-2.49 -0.51,-0.6 -1.22,-0.91 -2.1,-0.91 z m 3.91,-6.18 0,1.8 c -0.49,-0.24 -0.99,-0.41 -1.49,-0.54 -0.51,-0.12 -1.01,-0.18 -1.5,-0.18 -1.31,0 -2.3,0.44 -2.99,1.31 -0.68,0.88 -1.08,2.21 -1.17,3.99 0.38,-0.57 0.86,-1 1.44,-1.3 0.58,-0.31 1.22,-0.46 1.92,-0.46 1.46,0 2.62,0.45 3.47,1.33 0.85,0.89 1.27,2.1 1.27,3.63 0,1.5 -0.44,2.7 -1.33,3.61 -0.88,0.9 -2.06,1.35 -3.53,1.35 -1.69,0 -2.98,-0.64 -3.87,-1.94 -0.89,-1.29 -1.34,-3.16 -1.34,-5.62 0,-2.3 0.55,-4.14 1.64,-5.51 1.1,-1.37 2.57,-2.05 4.41,-2.05 0.49,0 0.99,0.05 1.5,0.14 0.5,0.1 1.03,0.25 1.57,0.44 z"
           style="fill:#000000"
           id="text3632"
           inkscape:connector-curvature="0" />
        <use
           x="0"
           y="0"
           inkscape:tiled-clone-of="#rect2181"
           width="800"
           height="600"
           transform="translate(208,132)"
           xlink:href="#rect2181"
           id="use3622" />
        <path
           d="m 425.64,420.34 6.89,0 0,1.66 -9.26,0 0,-1.66 c 0.75,-0.77 1.77,-1.81 3.06,-3.12 1.29,-1.31 2.1,-2.15 2.44,-2.52 0.63,-0.71 1.07,-1.31 1.32,-1.81 0.25,-0.49 0.38,-0.97 0.38,-1.45 0,-0.77 -0.28,-1.4 -0.82,-1.89 -0.54,-0.49 -1.25,-0.73 -2.12,-0.73 -0.62,0 -1.28,0.1 -1.96,0.32 -0.69,0.21 -1.42,0.54 -2.2,0.98 l 0,-2 c 0.79,-0.32 1.53,-0.56 2.22,-0.72 0.69,-0.16 1.32,-0.24 1.9,-0.24 1.51,0 2.71,0.37 3.61,1.13 0.9,0.75 1.35,1.76 1.35,3.03 0,0.6 -0.11,1.16 -0.34,1.7 -0.22,0.54 -0.63,1.17 -1.22,1.9 -0.17,0.19 -0.69,0.73 -1.56,1.64 -0.87,0.9 -2.1,2.16 -3.69,3.78 z m 17.01,-6.2 c 0.95,0.2 1.68,0.62 2.21,1.26 0.54,0.64 0.8,1.42 0.8,2.36 0,1.44 -0.49,2.55 -1.48,3.34 -0.99,0.79 -2.4,1.18 -4.22,1.18 -0.61,0 -1.24,-0.06 -1.89,-0.18 -0.65,-0.12 -1.32,-0.3 -2.01,-0.54 l 0,-1.9 c 0.55,0.32 1.15,0.56 1.8,0.72 0.65,0.16 1.33,0.24 2.04,0.24 1.24,0 2.18,-0.24 2.83,-0.73 0.64,-0.49 0.97,-1.2 0.97,-2.13 0,-0.86 -0.3,-1.53 -0.91,-2.01 -0.6,-0.49 -1.44,-0.73 -2.51,-0.73 l -1.7,0 0,-1.62 1.78,0 c 0.97,0 1.71,-0.2 2.22,-0.58 0.52,-0.39 0.78,-0.95 0.78,-1.68 0,-0.75 -0.27,-1.32 -0.8,-1.72 -0.53,-0.4 -1.29,-0.6 -2.28,-0.6 -0.54,0 -1.12,0.06 -1.74,0.17 -0.62,0.12 -1.3,0.3 -2.04,0.55 l 0,-1.76 c 0.75,-0.21 1.45,-0.36 2.1,-0.47 0.66,-0.1 1.28,-0.15 1.86,-0.15 1.49,0 2.68,0.34 3.55,1.02 0.87,0.68 1.31,1.6 1.31,2.76 0,0.8 -0.23,1.48 -0.69,2.04 -0.47,0.56 -1.12,0.94 -1.98,1.16 z"
           style="fill:#000000"
           id="text3624"
           inkscape:connector-curvature="0" />
        <use
           x="0"
           y="0"
           inkscape:tiled-clone-of="#rect2181"
           width="800"
           height="600"
           transform="translate(208,176)"
           xlink:href="#rect2181"
           id="use3614" />
        <path
           d="m 429.92,458.14 c 0.94,0.2 1.68,0.62 2.21,1.26 0.53,0.64 0.8,1.42 0.8,2.36 0,1.44 -0.5,2.55 -1.49,3.34 -0.99,0.79 -2.39,1.18 -4.22,1.18 -0.61,0 -1.24,-0.06 -1.89,-0.18 -0.64,-0.12 -1.31,-0.3 -2,-0.54 l 0,-1.9 c 0.54,0.32 1.14,0.56 1.79,0.72 0.65,0.16 1.33,0.24 2.04,0.24 1.24,0 2.18,-0.24 2.83,-0.73 0.65,-0.49 0.97,-1.2 0.97,-2.13 0,-0.86 -0.3,-1.53 -0.9,-2.01 -0.6,-0.49 -1.44,-0.73 -2.51,-0.73 l -1.7,0 0,-1.62 1.77,0 c 0.97,0 1.72,-0.2 2.23,-0.58 0.51,-0.39 0.77,-0.95 0.77,-1.68 0,-0.75 -0.26,-1.32 -0.79,-1.72 -0.54,-0.4 -1.3,-0.6 -2.28,-0.6 -0.55,0 -1.12,0.06 -1.74,0.17 -0.62,0.12 -1.3,0.3 -2.04,0.55 l 0,-1.76 c 0.74,-0.21 1.45,-0.36 2.1,-0.47 0.65,-0.1 1.27,-0.15 1.85,-0.15 1.5,0 2.68,0.34 3.56,1.02 0.87,0.68 1.3,1.6 1.3,2.76 0,0.8 -0.23,1.48 -0.69,2.04 -0.46,0.56 -1.12,0.94 -1.97,1.16 z m 10.97,-5.42 c -1.01,0 -1.77,0.5 -2.29,1.5 -0.51,1 -0.76,2.5 -0.76,4.5 0,2 0.25,3.5 0.76,4.5 0.52,1 1.28,1.5 2.29,1.5 1.03,0 1.79,-0.5 2.3,-1.5 0.52,-1 0.77,-2.5 0.77,-4.5 0,-2 -0.25,-3.5 -0.77,-4.5 -0.51,-1 -1.27,-1.5 -2.3,-1.5 z m 0,-1.56 c 1.64,0 2.89,0.64 3.75,1.93 0.86,1.3 1.29,3.17 1.29,5.63 0,2.46 -0.43,4.33 -1.29,5.62 -0.86,1.3 -2.11,1.94 -3.75,1.94 -1.63,0 -2.88,-0.64 -3.74,-1.94 -0.86,-1.29 -1.29,-3.16 -1.29,-5.62 0,-2.46 0.43,-4.33 1.29,-5.63 0.86,-1.29 2.11,-1.93 3.74,-1.93 z"
           style="fill:#000000"
           id="text3616"
           inkscape:connector-curvature="0" />
        <use
           x="0"
           y="0"
           inkscape:tiled-clone-of="#rect2181"
           width="800"
           height="600"
           transform="translate(260,0)"
           xlink:href="#rect2181"
           id="use3606" />
        <path
           d="m 485.92,282.14 c 0.94,0.2 1.68,0.62 2.21,1.26 0.53,0.64 0.8,1.42 0.8,2.36 0,1.44 -0.5,2.55 -1.49,3.34 -0.99,0.79 -2.39,1.18 -4.22,1.18 -0.61,0 -1.24,-0.06 -1.89,-0.18 -0.64,-0.12 -1.31,-0.3 -2,-0.54 l 0,-1.9 c 0.54,0.32 1.14,0.56 1.79,0.72 0.65,0.16 1.33,0.24 2.04,0.24 1.24,0 2.18,-0.24 2.83,-0.73 0.65,-0.49 0.97,-1.2 0.97,-2.13 0,-0.86 -0.3,-1.53 -0.9,-2.01 -0.6,-0.49 -1.44,-0.73 -2.51,-0.73 l -1.7,0 0,-1.62 1.77,0 c 0.97,0 1.72,-0.2 2.23,-0.58 0.51,-0.39 0.77,-0.95 0.77,-1.68 0,-0.75 -0.26,-1.32 -0.79,-1.72 -0.54,-0.4 -1.3,-0.6 -2.28,-0.6 -0.55,0 -1.12,0.06 -1.74,0.17 -0.62,0.12 -1.3,0.3 -2.04,0.55 l 0,-1.76 c 0.74,-0.21 1.45,-0.36 2.1,-0.47 0.65,-0.1 1.27,-0.15 1.85,-0.15 1.5,0 2.68,0.34 3.56,1.02 0.87,0.68 1.3,1.6 1.3,2.76 0,0.8 -0.23,1.48 -0.69,2.04 -0.46,0.56 -1.12,0.94 -1.97,1.16 z"
           style="fill:#000000"
           id="text3608"
           inkscape:connector-curvature="0" />
        <use
           x="0"
           y="0"
           inkscape:tiled-clone-of="#rect2181"
           width="800"
           height="600"
           transform="translate(260,44)"
           xlink:href="#rect2181"
           id="use3598" />
        <path
           d="m 476.28,332.34 3.23,0 0,-11.12 -3.51,0.7 0,-1.8 3.49,-0.7 1.97,0 0,12.92 3.22,0 0,1.66 -8.4,0 0,-1.66 z m 16.61,-11.62 c -1.01,0 -1.77,0.5 -2.29,1.5 -0.51,1 -0.76,2.5 -0.76,4.5 0,2 0.25,3.5 0.76,4.5 0.52,1 1.28,1.5 2.29,1.5 1.03,0 1.79,-0.5 2.3,-1.5 0.52,-1 0.77,-2.5 0.77,-4.5 0,-2 -0.25,-3.5 -0.77,-4.5 -0.51,-1 -1.27,-1.5 -2.3,-1.5 z m 0,-1.56 c 1.64,0 2.89,0.64 3.75,1.93 0.86,1.3 1.29,3.17 1.29,5.63 0,2.46 -0.43,4.33 -1.29,5.62 -0.86,1.3 -2.11,1.94 -3.75,1.94 -1.63,0 -2.88,-0.64 -3.74,-1.94 -0.86,-1.29 -1.29,-3.16 -1.29,-5.62 0,-2.46 0.43,-4.33 1.29,-5.63 0.86,-1.29 2.11,-1.93 3.74,-1.93 z"
           style="fill:#000000"
           id="text3600"
           inkscape:connector-curvature="0" />
        <use
           x="0"
           y="0"
           inkscape:tiled-clone-of="#rect2181"
           width="800"
           height="600"
           transform="translate(260,88)"
           xlink:href="#rect2181"
           id="use3590" />
        <path
           d="m 476.28,376.34 3.23,0 0,-11.12 -3.51,0.7 0,-1.8 3.49,-0.7 1.97,0 0,12.92 3.22,0 0,1.66 -8.4,0 0,-1.66 z m 11.9,-12.92 9.37,0 0,0.84 -5.29,13.74 -2.06,0 4.98,-12.92 -7,0 0,-1.66 z"
           style="fill:#000000"
           id="text3592"
           inkscape:connector-curvature="0" />
        <use
           x="0"
           y="0"
           inkscape:tiled-clone-of="#rect2181"
           width="800"
           height="600"
           transform="translate(260,132)"
           xlink:href="#rect2181"
           id="use3582" />
        <path
           d="m 477.64,420.34 6.89,0 0,1.66 -9.26,0 0,-1.66 c 0.75,-0.77 1.77,-1.81 3.06,-3.12 1.29,-1.31 2.1,-2.15 2.44,-2.52 0.63,-0.71 1.07,-1.31 1.32,-1.81 0.25,-0.49 0.38,-0.97 0.38,-1.45 0,-0.77 -0.28,-1.4 -0.82,-1.89 -0.54,-0.49 -1.25,-0.73 -2.12,-0.73 -0.62,0 -1.28,0.1 -1.96,0.32 -0.69,0.21 -1.42,0.54 -2.2,0.98 l 0,-2 c 0.79,-0.32 1.53,-0.56 2.22,-0.72 0.69,-0.16 1.32,-0.24 1.9,-0.24 1.51,0 2.71,0.37 3.61,1.13 0.9,0.75 1.35,1.76 1.35,3.03 0,0.6 -0.11,1.16 -0.34,1.7 -0.22,0.54 -0.63,1.17 -1.22,1.9 -0.17,0.19 -0.69,0.73 -1.56,1.64 -0.87,0.9 -2.1,2.16 -3.69,3.78 z m 16.46,-11.2 -4.98,7.78 4.98,0 0,-7.78 z m -0.52,-1.72 2.48,0 0,9.5 2.08,0 0,1.64 -2.08,0 0,3.44 -1.96,0 0,-3.44 -6.59,0 0,-1.9 6.07,-9.24 z"
           style="fill:#000000"
           id="text3584"
           inkscape:connector-curvature="0" />
        <use
           x="0"
           y="0"
           inkscape:tiled-clone-of="#rect2181"
           width="800"
           height="600"
           transform="translate(260,176)"
           xlink:href="#rect2181"
           id="use3574" />
        <use
           x="0"
           y="0"
           inkscape:tiled-clone-of="#rect2181"
           width="800"
           height="600"
           transform="translate(312,0)"
           xlink:href="#rect2181"
           id="use3566" />
        <path
           d="m 537.36,277.14 -4.98,7.78 4.98,0 0,-7.78 z m -0.52,-1.72 2.48,0 0,9.5 2.08,0 0,1.64 -2.08,0 0,3.44 -1.96,0 0,-3.44 -6.58,0 0,-1.9 6.06,-9.24 z"
           style="fill:#000000"
           id="text3568"
           inkscape:connector-curvature="0" />
        <use
           x="0"
           y="0"
           inkscape:tiled-clone-of="#rect2181"
           width="800"
           height="600"
           transform="translate(312,44)"
           xlink:href="#rect2181"
           id="use3558" />
        <path
           d="m 528.28,332.34 3.23,0 0,-11.12 -3.51,0.7 0,-1.8 3.49,-0.7 1.97,0 0,12.92 3.22,0 0,1.66 -8.4,0 0,-1.66 z m 12.74,0 3.22,0 0,-11.12 -3.51,0.7 0,-1.8 3.49,-0.7 1.97,0 0,12.92 3.23,0 0,1.66 -8.4,0 0,-1.66 z"
           style="fill:#000000"
           id="text3560"
           inkscape:connector-curvature="0" />
        <use
           x="0"
           y="0"
           inkscape:tiled-clone-of="#rect2181"
           width="800"
           height="600"
           transform="translate(312,88)"
           xlink:href="#rect2181"
           id="use3550" />
        <path
           d="m 528.28,376.34 3.23,0 0,-11.12 -3.51,0.7 0,-1.8 3.49,-0.7 1.97,0 0,12.92 3.22,0 0,1.66 -8.4,0 0,-1.66 z m 16.61,-5.26 c -0.93,0 -1.67,0.25 -2.21,0.75 -0.53,0.5 -0.8,1.19 -0.8,2.07 0,0.88 0.27,1.57 0.8,2.07 0.54,0.5 1.28,0.75 2.21,0.75 0.94,0 1.68,-0.25 2.22,-0.76 0.54,-0.5 0.81,-1.19 0.81,-2.06 0,-0.88 -0.27,-1.57 -0.8,-2.07 -0.54,-0.5 -1.28,-0.75 -2.23,-0.75 z m -1.97,-0.84 c -0.84,-0.21 -1.5,-0.61 -1.98,-1.19 -0.47,-0.57 -0.7,-1.28 -0.7,-2.11 0,-1.17 0.41,-2.09 1.24,-2.77 0.83,-0.68 1.97,-1.01 3.41,-1.01 1.46,0 2.6,0.33 3.42,1.01 0.83,0.68 1.24,1.6 1.24,2.77 0,0.83 -0.23,1.54 -0.71,2.11 -0.47,0.58 -1.12,0.98 -1.96,1.19 0.95,0.22 1.69,0.65 2.22,1.3 0.53,0.64 0.79,1.43 0.79,2.36 0,1.41 -0.43,2.5 -1.29,3.25 -0.86,0.76 -2.1,1.13 -3.71,1.13 -1.6,0 -2.84,-0.37 -3.7,-1.13 -0.86,-0.75 -1.3,-1.84 -1.3,-3.25 0,-0.93 0.27,-1.72 0.81,-2.36 0.53,-0.65 1.27,-1.08 2.22,-1.3 z m -0.72,-3.12 c 0,0.76 0.24,1.35 0.71,1.77 0.47,0.42 1.13,0.63 1.98,0.63 0.85,0 1.51,-0.21 1.99,-0.63 0.48,-0.42 0.72,-1.01 0.72,-1.77 0,-0.75 -0.24,-1.34 -0.72,-1.77 -0.48,-0.42 -1.14,-0.63 -1.99,-0.63 -0.85,0 -1.51,0.21 -1.98,0.63 -0.47,0.43 -0.71,1.02 -0.71,1.77 z"
           style="fill:#000000"
           id="text3552"
           inkscape:connector-curvature="0" />
        <use
           x="0"
           y="0"
           inkscape:tiled-clone-of="#rect2181"
           width="800"
           height="600"
           transform="translate(312,132)"
           xlink:href="#rect2181"
           id="use3542" />
        <path
           d="m 529.64,420.34 6.89,0 0,1.66 -9.26,0 0,-1.66 c 0.75,-0.77 1.77,-1.81 3.06,-3.12 1.29,-1.31 2.1,-2.15 2.44,-2.52 0.63,-0.71 1.07,-1.31 1.32,-1.81 0.25,-0.49 0.38,-0.97 0.38,-1.45 0,-0.77 -0.28,-1.4 -0.82,-1.89 -0.54,-0.49 -1.25,-0.73 -2.12,-0.73 -0.62,0 -1.28,0.1 -1.96,0.32 -0.69,0.21 -1.42,0.54 -2.2,0.98 l 0,-2 c 0.79,-0.32 1.53,-0.56 2.22,-0.72 0.69,-0.16 1.32,-0.24 1.9,-0.24 1.51,0 2.71,0.37 3.61,1.13 0.9,0.75 1.35,1.76 1.35,3.03 0,0.6 -0.11,1.16 -0.34,1.7 -0.22,0.54 -0.63,1.17 -1.22,1.9 -0.17,0.19 -0.69,0.73 -1.56,1.64 -0.87,0.9 -2.1,2.16 -3.69,3.78 z m 11.06,-12.92 7.74,0 0,1.66 -5.94,0 0,3.57 c 0.29,-0.09 0.58,-0.17 0.86,-0.22 0.29,-0.04 0.57,-0.07 0.86,-0.07 1.63,0 2.92,0.45 3.87,1.34 0.95,0.89 1.42,2.1 1.42,3.62 0,1.57 -0.48,2.79 -1.46,3.66 -0.98,0.87 -2.35,1.3 -4.13,1.3 -0.61,0 -1.24,-0.05 -1.87,-0.15 -0.64,-0.11 -1.29,-0.26 -1.97,-0.47 l 0,-1.98 c 0.59,0.31 1.19,0.55 1.82,0.71 0.62,0.15 1.28,0.23 1.98,0.23 1.13,0 2.02,-0.29 2.67,-0.89 0.66,-0.59 0.99,-1.39 0.99,-2.41 0,-1.01 -0.33,-1.82 -0.99,-2.41 -0.65,-0.59 -1.54,-0.89 -2.67,-0.89 -0.53,0 -1.05,0.06 -1.58,0.18 -0.52,0.11 -1.06,0.3 -1.6,0.54 l 0,-7.32 z"
           style="fill:#000000"
           id="text3544"
           inkscape:connector-curvature="0" />
        <use
           x="0"
           y="0"
           inkscape:tiled-clone-of="#rect2181"
           width="800"
           height="600"
           transform="translate(312,176)"
           xlink:href="#rect2181"
           id="use3534" />
        <use
           inkscape:tile-cx="226"
           x="0"
           y="0"
           inkscape:tile-cy="238"
           inkscape:tiled-clone-of="#rect2181"
           inkscape:tile-h="44"
           width="800"
           height="600"
           transform="translate(0,-44)"
           xlink:href="#rect2181"
           inkscape:tile-w="52"
           id="use2265" />
        <use
           x="0"
           y="0"
           inkscape:tiled-clone-of="#use2265"
           width="800"
           height="600"
           transform="translate(52,0)"
           xlink:href="#use2265"
           id="use2279" />
        <use
           x="0"
           y="0"
           inkscape:tiled-clone-of="#use2265"
           width="800"
           height="600"
           transform="translate(104,0)"
           xlink:href="#use2265"
           id="use2281" />
        <use
           x="0"
           y="0"
           inkscape:tiled-clone-of="#use2265"
           width="800"
           height="600"
           transform="translate(156,0)"
           xlink:href="#use2265"
           id="use2283" />
        <use
           x="0"
           y="0"
           inkscape:tiled-clone-of="#use2265"
           width="800"
           height="600"
           transform="translate(208,0)"
           xlink:href="#use2265"
           id="use2285" />
        <use
           x="0"
           y="0"
           inkscape:tiled-clone-of="#use2265"
           width="800"
           height="600"
           transform="translate(260,0)"
           xlink:href="#use2265"
           id="use2287" />
        <use
           x="0"
           y="0"
           inkscape:tiled-clone-of="#use2265"
           width="800"
           height="600"
           transform="translate(312,0)"
           xlink:href="#use2265"
           id="use2289" />
        <path
           d="m 529.39,236.28 0,1.92 c -0.75,-0.36 -1.46,-0.62 -2.12,-0.8 -0.67,-0.18 -1.31,-0.26 -1.93,-0.26 -1.07,0 -1.9,0.21 -2.48,0.62 -0.59,0.42 -0.88,1.01 -0.88,1.78 0,0.64 0.2,1.13 0.58,1.46 0.39,0.33 1.13,0.59 2.21,0.8 l 1.19,0.24 c 1.47,0.28 2.55,0.77 3.25,1.48 0.7,0.71 1.05,1.65 1.05,2.84 0,1.41 -0.47,2.48 -1.42,3.21 -0.94,0.73 -2.33,1.09 -4.16,1.09 -0.69,0 -1.43,-0.08 -2.2,-0.23 -0.78,-0.16 -1.59,-0.39 -2.42,-0.7 l 0,-2.03 c 0.8,0.45 1.58,0.79 2.35,1.02 0.77,0.23 1.53,0.34 2.27,0.34 1.12,0 1.99,-0.22 2.61,-0.66 0.61,-0.45 0.91,-1.08 0.91,-1.9 0,-0.71 -0.22,-1.27 -0.66,-1.68 -0.44,-0.4 -1.16,-0.7 -2.16,-0.91 l -1.2,-0.23 c -1.47,-0.29 -2.54,-0.75 -3.19,-1.38 -0.66,-0.62 -0.99,-1.49 -0.99,-2.6 0,-1.29 0.45,-2.31 1.36,-3.05 0.91,-0.74 2.16,-1.11 3.76,-1.11 0.68,0 1.38,0.06 2.09,0.18 0.71,0.12 1.43,0.31 2.18,0.56 z m 3.69,9.78 0,-6.62 1.79,0 0,6.55 c 0,1.04 0.21,1.82 0.61,2.33 0.4,0.52 1.01,0.78 1.82,0.78 0.97,0 1.73,-0.31 2.3,-0.93 0.56,-0.62 0.84,-1.46 0.84,-2.53 l 0,-6.2 1.8,0 0,10.94 -1.8,0 0,-1.68 c -0.44,0.66 -0.94,1.16 -1.52,1.48 -0.57,0.32 -1.24,0.48 -2.01,0.48 -1.25,0 -2.21,-0.39 -2.86,-1.17 -0.65,-0.78 -0.97,-1.92 -0.97,-3.43 z m 21.97,-2.28 0,6.6 -1.8,0 0,-6.54 c 0,-1.04 -0.2,-1.81 -0.6,-2.33 -0.41,-0.51 -1.01,-0.77 -1.82,-0.77 -0.97,0 -1.73,0.31 -2.29,0.93 -0.56,0.62 -0.84,1.46 -0.84,2.53 l 0,6.18 -1.81,0 0,-10.94 1.81,0 0,1.7 c 0.43,-0.66 0.93,-1.15 1.51,-1.47 0.59,-0.33 1.26,-0.49 2.02,-0.49 1.26,0 2.21,0.39 2.85,1.16 0.65,0.78 0.97,1.93 0.97,3.44 z"
           style="fill:#000000"
           id="text2291"
           inkscape:connector-curvature="0" />
        <path
           d="m 207.49,234 2.94,0 3.72,9.92 3.74,-9.92 2.94,0 0,14.58 -1.92,0 0,-12.8 -3.76,10 -1.98,0 -3.76,-10 0,12.8 -1.92,0 0,-14.58 z m 21.43,4.9 c -0.96,0 -1.73,0.38 -2.29,1.13 -0.56,0.75 -0.84,1.78 -0.84,3.09 0,1.31 0.28,2.34 0.84,3.09 0.56,0.75 1.32,1.13 2.29,1.13 0.96,0 1.72,-0.38 2.28,-1.13 0.55,-0.76 0.83,-1.79 0.83,-3.09 0,-1.29 -0.28,-2.32 -0.83,-3.08 -0.56,-0.76 -1.32,-1.14 -2.28,-1.14 z m 0,-1.52 c 1.56,0 2.79,0.51 3.68,1.52 0.89,1.02 1.34,2.42 1.34,4.22 0,1.79 -0.45,3.2 -1.34,4.21 -0.89,1.02 -2.12,1.53 -3.68,1.53 -1.57,0 -2.8,-0.51 -3.69,-1.53 -0.89,-1.01 -1.33,-2.42 -1.33,-4.21 0,-1.8 0.44,-3.2 1.33,-4.22 0.89,-1.01 2.12,-1.52 3.69,-1.52 z m 17.08,4.6 0,6.6 -1.8,0 0,-6.54 c 0,-1.04 -0.2,-1.81 -0.6,-2.33 -0.41,-0.51 -1.01,-0.77 -1.82,-0.77 -0.97,0 -1.73,0.31 -2.29,0.93 -0.56,0.62 -0.84,1.46 -0.84,2.53 l 0,6.18 -1.81,0 0,-10.94 1.81,0 0,1.7 c 0.43,-0.66 0.93,-1.15 1.51,-1.47 0.59,-0.33 1.26,-0.49 2.02,-0.49 1.26,0 2.21,0.39 2.85,1.17 0.65,0.77 0.97,1.92 0.97,3.43 z"
           style="fill:#000000"
           id="text2295"
           inkscape:connector-curvature="0" />
        <path
           d="m 260.43,236 12.34,0 0,1.66 -5.18,0 0,12.92 -1.98,0 0,-12.92 -5.18,0 0,-1.66 z m 13.99,10.26 0,-6.62 1.79,0 0,6.56 c 0,1.03 0.21,1.81 0.61,2.32 0.4,0.52 1.01,0.78 1.82,0.78 0.97,0 1.73,-0.31 2.3,-0.93 0.56,-0.62 0.84,-1.46 0.84,-2.53 l 0,-6.2 1.8,0 0,10.94 -1.8,0 0,-1.68 c -0.44,0.66 -0.94,1.16 -1.52,1.48 -0.57,0.32 -1.24,0.48 -2,0.48 -1.26,0 -2.21,-0.39 -2.87,-1.17 -0.65,-0.78 -0.97,-1.92 -0.97,-3.43 z m 22.23,-1.6 0,0.88 -8.26,0 c 0.08,1.24 0.45,2.18 1.12,2.83 0.67,0.65 1.6,0.97 2.79,0.97 0.69,0 1.36,-0.08 2.01,-0.25 0.64,-0.17 1.29,-0.43 1.92,-0.77 l 0,1.7 c -0.64,0.28 -1.3,0.49 -1.98,0.63 -0.68,0.14 -1.36,0.21 -2.06,0.21 -1.74,0 -3.13,-0.5 -4.14,-1.52 -1.02,-1.02 -1.53,-2.39 -1.53,-4.12 0,-1.79 0.48,-3.21 1.45,-4.26 0.96,-1.06 2.27,-1.58 3.91,-1.58 1.47,0 2.63,0.47 3.49,1.42 0.86,0.95 1.28,2.23 1.28,3.86 z m -1.79,-0.53 c -0.02,-0.98 -0.29,-1.76 -0.83,-2.35 -0.54,-0.58 -1.25,-0.88 -2.13,-0.88 -1,0 -1.81,0.29 -2.41,0.85 -0.6,0.57 -0.95,1.37 -1.04,2.39 l 6.41,-0.01 z"
           style="fill:#000000"
           id="text2299"
           inkscape:connector-curvature="0" />
        <path
           d="m 309.2,234.97 1.99,0 3.07,12.33 3.05,-12.33 2.22,0 3.07,12.33 3.05,-12.33 2,0 -3.66,14.58 -2.48,0 -3.07,-12.65 -3.11,12.65 -2.48,0 -3.65,-14.58 z m 30.34,8.67 0,0.87 -8.26,0 c 0.08,1.24 0.45,2.18 1.12,2.83 0.66,0.65 1.59,0.97 2.78,0.97 0.69,0 1.36,-0.08 2.01,-0.25 0.65,-0.17 1.29,-0.42 1.93,-0.76 l 0,1.7 c -0.65,0.27 -1.31,0.48 -1.98,0.62 -0.68,0.15 -1.37,0.22 -2.06,0.22 -1.75,0 -3.13,-0.51 -4.15,-1.53 -1.02,-1.01 -1.53,-2.39 -1.53,-4.12 0,-1.79 0.49,-3.21 1.45,-4.26 0.97,-1.05 2.27,-1.58 3.91,-1.58 1.47,0 2.64,0.48 3.49,1.42 0.86,0.95 1.29,2.24 1.29,3.87 z m -1.8,-0.53 c -0.01,-0.98 -0.29,-1.77 -0.82,-2.35 -0.54,-0.59 -1.25,-0.88 -2.14,-0.88 -1,0 -1.8,0.28 -2.4,0.85 -0.61,0.56 -0.95,1.36 -1.04,2.39 l 6.4,-0.01 z m 11.95,-2.83 0,-5.92 1.79,0 0,15.19 -1.79,0 0,-1.64 c -0.38,0.65 -0.86,1.14 -1.44,1.45 -0.57,0.32 -1.26,0.48 -2.07,0.48 -1.32,0 -2.4,-0.53 -3.23,-1.58 -0.83,-1.06 -1.24,-2.45 -1.24,-4.16 0,-1.72 0.41,-3.11 1.24,-4.17 0.83,-1.05 1.91,-1.58 3.23,-1.58 0.81,0 1.5,0.16 2.07,0.48 0.58,0.31 1.06,0.8 1.44,1.45 z m -6.13,3.82 c 0,1.32 0.27,2.35 0.82,3.11 0.54,0.75 1.29,1.12 2.24,1.12 0.95,0 1.7,-0.37 2.25,-1.12 0.54,-0.76 0.82,-1.79 0.82,-3.11 0,-1.33 -0.28,-2.36 -0.82,-3.12 -0.55,-0.75 -1.3,-1.12 -2.25,-1.12 -0.95,0 -1.7,0.37 -2.24,1.12 -0.55,0.76 -0.82,1.79 -0.82,3.12 z"
           style="fill:#000000"
           id="text2303"
           inkscape:connector-curvature="0" />
        <path
           d="m 365.53,234.78 12.34,0 0,1.66 -5.18,0 0,12.92 -1.98,0 0,-12.92 -5.18,0 0,-1.66 z m 23.27,7.98 0,6.6 -1.8,0 0,-6.54 c 0,-1.04 -0.2,-1.81 -0.61,-2.32 -0.4,-0.52 -1.01,-0.78 -1.81,-0.78 -0.97,0 -1.74,0.31 -2.3,0.93 -0.56,0.62 -0.84,1.46 -0.84,2.53 l 0,6.18 -1.8,0 0,-15.19 1.8,0 0,5.95 c 0.43,-0.65 0.94,-1.14 1.52,-1.47 0.58,-0.33 1.26,-0.49 2.02,-0.49 1.25,0 2.2,0.39 2.85,1.17 0.64,0.78 0.97,1.92 0.97,3.43 z m 9.94,-2.65 c -0.2,-0.12 -0.42,-0.21 -0.66,-0.26 -0.24,-0.06 -0.5,-0.09 -0.79,-0.09 -1.01,0 -1.79,0.33 -2.34,0.99 -0.54,0.67 -0.81,1.61 -0.81,2.85 l 0,5.76 -1.81,0 0,-10.93 1.81,0 0,1.69 c 0.38,-0.66 0.87,-1.15 1.47,-1.47 0.61,-0.33 1.34,-0.49 2.21,-0.49 0.12,0 0.26,0.01 0.41,0.03 0.15,0.01 0.32,0.04 0.5,0.07 l 0.01,1.85 z"
           style="fill:#000000"
           id="text2307"
           inkscape:connector-curvature="0" />
        <path
           d="m 423.19,235.45 8.38,0 0,1.66 -6.41,0 0,4.3 5.78,0 0,1.66 -5.78,0 0,6.96 -1.97,0 0,-14.58 z m 17.78,5.32 c -0.2,-0.12 -0.42,-0.2 -0.66,-0.26 -0.23,-0.05 -0.5,-0.08 -0.78,-0.08 -1.02,0 -1.8,0.33 -2.34,0.99 -0.54,0.66 -0.82,1.61 -0.82,2.85 l 0,5.76 -1.8,0 0,-10.94 1.8,0 0,1.7 c 0.38,-0.66 0.87,-1.16 1.48,-1.48 0.6,-0.32 1.34,-0.48 2.21,-0.48 0.12,0 0.26,0.01 0.41,0.02 0.15,0.02 0.31,0.04 0.49,0.08 l 0.01,1.84 z m 1.91,-1.68 1.79,0 0,10.94 -1.79,0 0,-10.94 z m 0,-4.26 1.79,0 0,2.28 -1.79,0 0,-2.28 z"
           style="fill:#000000"
           id="text2311"
           inkscape:connector-curvature="0" />
        <path
           d="m 479.61,235.94 0,1.93 c -0.75,-0.36 -1.45,-0.63 -2.12,-0.8 -0.66,-0.18 -1.3,-0.27 -1.92,-0.27 -1.08,0 -1.91,0.21 -2.49,0.63 -0.58,0.41 -0.87,1.01 -0.87,1.78 0,0.64 0.19,1.13 0.58,1.46 0.39,0.32 1.12,0.59 2.2,0.79 l 1.19,0.25 c 1.47,0.28 2.56,0.77 3.26,1.47 0.7,0.71 1.05,1.66 1.05,2.84 0,1.41 -0.47,2.49 -1.42,3.21 -0.95,0.73 -2.34,1.1 -4.17,1.1 -0.69,0 -1.42,-0.08 -2.2,-0.24 -0.78,-0.15 -1.58,-0.38 -2.42,-0.69 l 0,-2.03 c 0.8,0.45 1.59,0.79 2.36,1.01 0.77,0.23 1.52,0.35 2.26,0.35 1.13,0 2,-0.22 2.61,-0.67 0.61,-0.44 0.92,-1.07 0.92,-1.89 0,-0.72 -0.22,-1.28 -0.66,-1.68 -0.44,-0.41 -1.16,-0.71 -2.16,-0.91 l -1.2,-0.23 c -1.48,-0.3 -2.54,-0.76 -3.2,-1.38 -0.66,-0.63 -0.98,-1.5 -0.98,-2.61 0,-1.29 0.45,-2.3 1.36,-3.05 0.91,-0.74 2.16,-1.11 3.75,-1.11 0.69,0 1.38,0.06 2.09,0.19 0.71,0.12 1.44,0.31 2.18,0.55 z m 8.85,8.61 c -1.45,0 -2.46,0.16 -3.02,0.49 -0.56,0.34 -0.84,0.9 -0.84,1.7 0,0.64 0.21,1.15 0.63,1.52 0.42,0.38 0.99,0.56 1.71,0.56 1,0 1.8,-0.35 2.4,-1.06 0.6,-0.7 0.9,-1.64 0.9,-2.81 l 0,-0.4 -1.78,0 z m 3.58,-0.75 0,6.24 -1.8,0 0,-1.66 c -0.41,0.67 -0.92,1.16 -1.53,1.47 -0.61,0.32 -1.36,0.48 -2.24,0.48 -1.12,0 -2.01,-0.32 -2.68,-0.94 -0.66,-0.63 -0.99,-1.47 -0.99,-2.53 0,-1.23 0.42,-2.16 1.24,-2.78 0.82,-0.63 2.05,-0.94 3.69,-0.94 l 2.51,0 0,-0.18 c 0,-0.82 -0.27,-1.46 -0.81,-1.91 -0.54,-0.46 -1.31,-0.68 -2.29,-0.68 -0.63,0 -1.23,0.07 -1.83,0.22 -0.59,0.15 -1.16,0.38 -1.71,0.68 l 0,-1.66 c 0.66,-0.26 1.3,-0.45 1.92,-0.58 0.62,-0.12 1.22,-0.19 1.8,-0.19 1.59,0 2.77,0.41 3.55,1.23 0.78,0.82 1.17,2.07 1.17,3.73 z m 5.49,-7.8 0,3.11 3.7,0 0,1.39 -3.7,0 0,5.94 c 0,0.89 0.12,1.47 0.37,1.72 0.24,0.25 0.74,0.38 1.49,0.38 l 1.84,0 0,1.5 -1.84,0 c -1.39,0 -2.35,-0.25 -2.88,-0.77 -0.52,-0.52 -0.79,-1.46 -0.79,-2.83 l 0,-5.94 -1.31,0 0,-1.39 1.31,0 0,-3.11 1.81,0 z"
           style="fill:#000000"
           id="text2315"
           inkscape:connector-curvature="0" />
      </g>
      <g
         transform="translate(-180,-1)"
         inkscape:label="Picture"
         id="layer3">
        <g
           transform="matrix(0.48372,0,0,0.38087,200.78,-199.13)"
           id="g2776">
          <path
             d="m -0.22134,573.06 -2.0062,483.64 748.89,1.8 -1.99,-485.44 -744.89,0 z"
             style="fill:#aabdd6;fill-rule:evenodd;stroke:#000000;stroke-width:0.67907px"
             id="path4858"
             inkscape:connector-curvature="0" />
          <g
             style="stroke:#000000;stroke-width:3.29999995"
             id="g20218">
            <path
               d="m 395.5,905.26 117,-318 47.2,233.02 6.4,-31.4 89.4,269.42 -262.8,-3.2 2.8,-149.84 z"
               style="fill:#938763;fill-rule:evenodd;stroke:#000000;stroke-width:3.29999995"
               sodipodi:nodetypes="ccccccc"
               id="path14954"
               inkscape:connector-curvature="0" />
            <path
               d="m 191.5,906.86 61.4,-146.24 18.1,44.67 31.92,-101.62 162.48,352.23 -268.95,0 -4.95,-149.04 z"
               style="fill:#938763;fill-rule:evenodd;stroke:#000000;stroke-width:3.29999995"
               sodipodi:nodetypes="ccccccc"
               id="path14077"
               inkscape:connector-curvature="0" />
            <path
               d="m 0,905.36 117,-318 32,137 20,-49 91.99,381.04 -262.99,2 2,-153.04 z"
               style="fill:#938763;fill-rule:evenodd;stroke:#000000;stroke-width:3.29999995"
               sodipodi:nodetypes="ccccccc"
               id="path13200"
               inkscape:connector-curvature="0" />
            <path
               d="m 73.467,705.88 8.935,44.48 14.598,-43.49 17,66.49 6,-55.57 25,78.57 18,-59 30,44 -24,-104 -20,47 -32,-137 -43.533,118.52 z"
               style="fill:#fbfbfb;fill-rule:evenodd;stroke:#000000;stroke-width:3.29999995"
               id="path13202"
               inkscape:connector-curvature="0" />
            <path
               d="m 230,818.36 7,32.46 11,-31.46 13,47 7,-40 8,31.41 9,-47.41 10,35.5 7,-45.5 8,36.57 5,-31.57 16.59,45.46 13.9,-54.46 -42.49,-90.48 -32,101.48 -18,-46 -23,57 z"
               style="fill:#efe7e7;fill-rule:evenodd;stroke:#000000;stroke-width:3.29999995"
               id="path14079"
               inkscape:connector-curvature="0" />
            <path
               d="m 481,673.91 c 0,4.45 6,33.45 6,33.45 l 9,-29 6,39 4,-35 8,24 4.47,-32.45 8.53,33.45 7,-14 -22,-107 -31,87.55 z"
               style="fill:#f8f5f5;fill-rule:evenodd;stroke:#000000;stroke-width:3.29999995"
               id="path14958"
               inkscape:connector-curvature="0" />
            <path
               d="m 574.47,816.36 -4,17.57 -3.47,-9.57 -3,8 -5,-13 7,-30 8.47,27 z"
               style="fill:#f8f0f0;fill-rule:evenodd;stroke:#000000;stroke-width:3.29999995"
               id="path15833"
               inkscape:connector-curvature="0" />
            <path
               d="m 746.24,945.59 -90.71,-292.19 -30.78,137 -19.24,-49 -80.59,315.5 221.26,2 0.06,-113.31 z"
               style="fill:#938763;fill-rule:evenodd;stroke:#000000;stroke-width:3.29999995"
               sodipodi:nodetypes="ccccccc"
               id="path16708"
               inkscape:connector-curvature="0" />
            <path
               d="m 594,791.36 8,25 8.57,-30 12.9,28 11.53,-42 5,18 5,-22 20,42 -2,-30 18,28 9,-48 -34,-107 -31.53,138 -18.47,-51 -12,51 z"
               style="fill:#fcf6f6;fill-rule:evenodd;stroke:#000000;stroke-width:3.29999995"
               id="path16710"
               inkscape:connector-curvature="0" />
          </g>
        </g>
      </g>
    </g>
  </g>
</svg>
