<?xml version="1.0" encoding="UTF-8" standalone="no"?>
<!-- Created with Inkscape (http://www.inkscape.org/) -->

<svg
   xmlns:dc="http://purl.org/dc/elements/1.1/"
   xmlns:cc="http://creativecommons.org/ns#"
   xmlns:rdf="http://www.w3.org/1999/02/22-rdf-syntax-ns#"
   xmlns:svg="http://www.w3.org/2000/svg"
   xmlns="http://www.w3.org/2000/svg"
   xmlns:sodipodi="http://sodipodi.sourceforge.net/DTD/sodipodi-0.dtd"
   xmlns:inkscape="http://www.inkscape.org/namespaces/inkscape"
   width="210mm"
   height="297mm"
   viewBox="0 0 744.09448819 1052.3622047"
   id="svg2"
   version="1.1"
   inkscape:version="0.91 r13725"
   sodipodi:docname="growing-plant.svg">
  <defs
     id="defs4" />
  <sodipodi:namedview
     id="base"
     pagecolor="#ffffff"
     bordercolor="#666666"
     borderopacity="1.0"
     inkscape:pageopacity="0.0"
     inkscape:pageshadow="2"
     inkscape:zoom="0.49497475"
     inkscape:cx="-64.400419"
     inkscape:cy="1117.2927"
     inkscape:document-units="px"
     inkscape:current-layer="layer1"
     showgrid="false"
     inkscape:window-width="1331"
     inkscape:window-height="696"
     inkscape:window-x="125"
     inkscape:window-y="125"
     inkscape:window-maximized="0"
     inkscape:snap-grids="true" />
  <metadata
     id="metadata7">
    <rdf:RDF>
      <cc:Work
         rdf:about="">
        <dc:format>image/svg+xml</dc:format>
        <dc:type
           rdf:resource="http://purl.org/dc/dcmitype/StillImage" />
        <dc:title></dc:title>
      </cc:Work>
    </rdf:RDF>
  </metadata>
  <g
     inkscape:label="Layer 1"
     inkscape:groupmode="layer"
     id="layer1">
    <path
       style="fill:#016700"
       d="m -224.76933,-331.90433 c 2.91259,21.31876 21.59985,17.48055 25.09428,29.86008 -3.23939,30.90447 -15.60528,60.48987 -32.46877,86.39373 -12.79563,16.08813 -22.96446,34.67216 -26.61614,55.08283 -7.93641,42.28267 4.84815,85.243501 22.08912,123.605671 l 10.41054,-4.95953 c -9.2177,-18.32722 -14.51753,-38.64718 -19.81035,-58.511891 -8.64199,-32.43529 -8.23715,-69.03866 9.66104,-98.37411 12.29885,-17.80986 22.29902,-37.21296 28.85,-57.87834 13.22996,-11.86312 34.45578,4.39984 52.48066,-20.91695 -11.44065,-9.88665 -25.68076,-9.06869 -33.55453,-4.74943 -7.26461,3.28772 -11.5017,6.04392 -14.53011,9.89895 2.38722,-9.46755 4.26077,-19.13679 4.51935,-28.80596 2.08683,-10.92515 2.08999,-14.45063 -4.59337,-23.01143 -3.34443,-5.04394 -11.62276,-9.95829 -21.53923,-7.63891 z"
       id="path4154"
       inkscape:connector-curvature="0" />
    <path
       style="fill:#016700"
       d="m -284.53729,-270.2695 c 12.67132,18.98148 7.6657,36.28434 25.24775,44.31085 12.93714,5.90608 22.06144,1.80854 33.798,-6.3256 -7.80114,2.10475 -12.16515,2.275 -18.17023,1.34653 -13.61643,-2.10602 -13.7504,-12.60337 -25.36732,-22.64752 9.68644,6.06512 12.5884,16.5132 19.74978,19.2248 8.83376,3.34546 15.17525,0.86041 24.54619,-0.32778 -32.37114,-8.63623 -16.53812,-27.53049 -59.80264,-35.58179 z"
       id="path4152"
       inkscape:connector-curvature="0" />
    <path
       style="fill:#016700"
       d="m -345.05439,-178.30179 c 22.14042,27.70721 12.23841,48.70514 34.32922,58.69096 17.81388,8.05232 27.23995,1.56464 40.73588,-5.31779 0,0 -21.66959,1.55069 -32.04809,-6.85834 -10.28632,-8.3353 -2.36672,-20.07458 -29.08002,-40.26871 24.21131,15.71253 22.20515,30.32261 29.0918,37.45957 9.45263,9.79583 32.7758,5.3353 32.7758,5.3353 -33.70302,-3.69396 -24.03715,-60.86363 -75.80215,-49.03772 z"
       id="path4150"
       inkscape:connector-curvature="0" />
    <path
       style="fill:#016700"
       d="m -196.51655,-195.86042 c -38.28717,18.75162 -25.13873,48.81846 -48.425,82.3989 13.94316,-3.20466 26.26469,-14.6565 34.77997,-34.70724 4.30225,-10.1303 1.67218,-22.76853 22.04342,-39.83048 -22.30774,22.53705 -12.93937,27.10048 -22.10687,46.0914 -4.72827,9.79382 -12.94178,26.26534 -32.31288,32.11299 17.44714,5.98509 35.2145,2.21182 53.55036,-22.01506 17.40844,-23.00215 6.19712,-34.50561 16.4679,-72.67875 -9.88979,2.69856 -17.7316,5.55963 -23.9969,8.62824 z"
       id="path2985"
       inkscape:connector-curvature="0" />
    <path
       inkscape:connector-curvature="0"
       style="fill:#016700"
       d="m -129.35296,53.386998 c -1.32339,0.13364 -2.70124,-0.0018 -3.96485,0.490234 4.84054,4.975889 11.81737,6.748843 18.36133,8.255859 1.34472,0.606103 2.65318,1.290277 3.92383,2.039063 0.21359,11.459194 -4.93329,21.979076 -8.29712,32.674954 -3.84899,11.475052 -6.12238,23.744072 -5.4948,35.716832 0.0761,10.38403 3.39235,21.28605 9.07599,30.23164 2.04174,3.01642 4.00477,6.55834 7.48507,8.06722 2.16791,0.44029 4.17969,-0.76013 6.15078,-1.46408 -0.0173,-2.03971 -2.47616,-2.53633 -3.38894,-4.08123 -9.40447,-9.20254 -14.53848,-22.13904 -15.58284,-35.13099 -1.408,-12.25737 0.97994,-24.6516 5.29605,-36.118047 1.42965,-3.820925 2.74338,-7.840236 5.22859,-11.109573 3.36208,-2.948913 8.12704,-2.51535 12.250084,-3.295477 7.61613,-0.987172 15.57828,-2.24051 22.01542,-6.741249 1.03465,-1.201652 -0.7621,-2.496368 -1.93612,-2.319595 -10.34372,-2.440834 -21.44547,-0.411617 -30.692784,4.663345 -1.92547,-1.409484 -0.60171,-3.939591 -0.82563,-5.878065 0.17964,-4.652033 -0.84848,-10.110824 -5.06596,-12.791394 -4.32402,-2.663985 -9.55305,-3.308286 -14.5381,-3.209447 z"
       id="path4154-8"
       sodipodi:nodetypes="cccccccccccccccccccc"
       inkscape:export-filename="C:\Users\jfinlay\AndroidStudioProjects\LittleFamily\LittleFamilyApp\src\main\res\drawable\growing_plant\plant2.png"
       inkscape:export-xdpi="90"
       inkscape:export-ydpi="90" />
    <path
       inkscape:connector-curvature="0"
       style="fill:#016700"
       d="m -33.812344,10.728316 c -1.620167,0.185598 -3.307007,-0.0028 -4.853988,0.680828 5.926056,6.910483 14.467476,9.372758 22.478952,11.465683 1.64628,0.841762 3.248169,1.791933 4.803769,2.831847 0.261489,15.914447 -6.039606,30.524386 -10.157792,45.378747 -4.712145,15.936474 -7.495355,32.975609 -6.727037,49.603299 0.09317,14.42127 4.153102,29.56192 11.111327,41.9855 2.499611,4.18918 4.902861,9.10818 9.1636356,11.2037 2.6540749,0.61147 5.1170073,-1.05566 7.53012432,-2.03331 -0.0211796,-2.83273 -3.03145152,-3.52243 -4.14892762,-5.66798 -11.5134703,-12.78043 -17.7988083,-30.74655 -19.0773713,-48.78969 -1.723751,-17.02295 1.199696,-34.235973 6.483716,-50.160484 1.750257,-5.306482 3.358597,-10.888473 6.401128,-15.428911 4.1160438,-4.095426 9.94957087,-3.493301 14.9972236,-4.576726 C 13.516502,45.84983 23.264204,44.109213 31.144905,37.858616 32.411581,36.189758 30.211901,34.391674 28.774601,34.637171 16.111249,31.247362 2.519875,34.065516 -8.8011919,41.1136 -11.158458,39.15611 -9.5378385,35.642324 -9.8119737,32.950176 -9.5920485,26.489467 -10.85073,18.908336 -16.014001,15.185579 c -5.293704,-3.699732 -11.69537,-4.594531 -17.798343,-4.457263 z"
       id="path4154-8-0"
       sodipodi:nodetypes="cccccccccccccccccccc"
       inkscape:export-filename="C:\Users\jfinlay\AndroidStudioProjects\LittleFamily\LittleFamilyApp\src\main\res\drawable\growing_plant\plant3.png"
       inkscape:export-xdpi="90"
       inkscape:export-ydpi="90" />
    <path
       style="fill:#016700"
       d="m -44.895278,57.381403 c 4.346012,6.892599 2.629183,13.175667 8.659479,16.090275 4.437184,2.144629 7.566639,0.656722 11.592047,-2.296972 -2.675637,0.764285 -4.172406,0.826108 -6.23203,0.488956 -4.670167,-0.76474 -4.716116,-4.576571 -8.70049,-8.22383 3.322257,2.202388 4.317573,5.996318 6.773784,6.980967 3.029806,1.214808 5.204812,0.31243 8.418859,-0.119024 -11.102662,-3.136016 -5.672248,-9.996951 -20.511124,-12.920558 z"
       id="path4152-7"
       inkscape:connector-curvature="0"
       inkscape:export-filename="C:\Users\jfinlay\AndroidStudioProjects\LittleFamily\LittleFamilyApp\src\main\res\drawable\growing_plant\plant3.png"
       inkscape:export-xdpi="90"
       inkscape:export-ydpi="90" />
    <path
       inkscape:connector-curvature="0"
       style="fill:#016700"
       d="m 85.338053,-9.2708736 c -1.771608,0.196955 -3.616116,-0.0032 -5.307693,0.7225126 6.479958,7.3336825 15.819744,9.9467399 24.58006,12.1678396 1.80015,0.8933087 3.55177,1.9016663 5.25278,3.0052595 0.28593,16.8890369 -6.60414,32.3936779 -11.107243,48.1577059 -5.152595,16.912417 -8.195951,34.995009 -7.355816,52.640966 0.101911,15.30442 4.54129,31.37227 12.149909,44.55666 2.73324,4.44572 5.36113,9.66596 10.02015,11.8898 2.90216,0.64892 5.5953,-1.1203 8.23397,-2.15782 -0.0232,-3.00621 -3.3148,-3.73814 -4.53673,-6.01509 -12.58963,-13.56309 -19.462463,-32.62944 -20.86053,-51.77753 -1.884869,-18.065421 1.311825,-36.332552 7.08974,-53.232265 1.91386,-5.631455 3.67253,-11.555282 6.99945,-16.373764 4.50077,-4.34623 10.87955,-3.707237 16.39902,-4.857005 10.1956,-1.454948 20.85442,-3.302162 29.47174,-9.935533 1.38506,-1.77106 -1.02022,-3.679263 -2.59187,-3.418729 -13.84699,-3.597399 -28.70874,-0.606657 -41.088,6.873041 -2.5776,-2.077365 -0.8055,-5.806336 -1.10525,-8.663341 C 111.82221,7.4554761 110.44588,-0.58991637 104.8,-4.5406551 99.011501,-8.4669534 92.011467,-9.4165506 85.338053,-9.2708736 Z"
       id="path4154-8-0-4"
       sodipodi:nodetypes="cccccccccccccccccccc"
       inkscape:export-filename="C:\Users\jfinlay\AndroidStudioProjects\LittleFamily\LittleFamilyApp\src\main\res\drawable\growing_plant\plant4.png"
       inkscape:export-xdpi="90"
       inkscape:export-ydpi="90" />
    <path
       style="fill:#016700"
       d="m 55.567866,25.953638 c 8.492195,13.071299 5.137492,24.98667 16.920807,30.514009 8.670363,4.06713 14.785373,1.24542 22.65111,-4.356032 -5.228257,1.4494 -8.152978,1.566637 -12.177518,0.927257 -9.125611,-1.450272 -9.215399,-8.679121 -17.000942,-15.595876 6.491767,4.176667 8.436623,11.37157 13.236109,13.238887 5.920313,2.303794 10.17031,0.592498 16.450632,-0.225713 C 73.953232,44.508943 84.564367,31.497683 55.5689,25.953297 Z"
       id="path4152-7-4"
       inkscape:connector-curvature="0"
       inkscape:export-filename="C:\Users\jfinlay\AndroidStudioProjects\LittleFamily\LittleFamilyApp\src\main\res\drawable\growing_plant\plant4.png"
       inkscape:export-xdpi="90"
       inkscape:export-ydpi="90" />
    <path
       style="fill:#016700"
       d="m 66.887032,105.23855 c 4.346012,6.8926 2.629183,13.17566 8.659479,16.09027 4.437184,2.14463 7.566639,0.65672 11.592043,-2.29697 -2.67563,0.76429 -4.172402,0.82611 -6.232026,0.48896 -4.670167,-0.76474 -4.716116,-4.57657 -8.70049,-8.22383 3.322257,2.20238 4.317573,5.99631 6.773784,6.98096 3.029806,1.21481 5.204812,0.31243 8.418862,-0.11902 -11.102665,-3.13602 -5.672251,-9.99695 -20.511127,-12.92056 z"
       id="path4152-7-9"
       inkscape:connector-curvature="0"
       inkscape:export-filename="C:\Users\jfinlay\AndroidStudioProjects\LittleFamily\LittleFamilyApp\src\main\res\drawable\growing_plant\plant4.png"
       inkscape:export-xdpi="90"
       inkscape:export-ydpi="90" />
    <path
       style="fill:#016700"
       d="m 120.21005,97.825493 c -11.85375,5.805517 -7.78298,15.114247 -14.99243,25.510787 4.31682,-0.99217 8.13158,-4.53767 10.76792,-10.7454 1.33198,-3.13635 0.51771,-7.04916 6.82466,-12.33156 -6.9065,6.97749 -4.00604,8.39034 -6.84431,14.26995 -1.46387,3.03217 -4.00679,8.13177 -10.0041,9.94221 5.40165,1.85299 10.90245,0.68478 16.57925,-6.81588 5.38967,-7.12149 1.91864,-10.68298 5.09848,-22.501417 -3.06189,0.83547 -5.48972,1.72126 -7.42947,2.67131 z"
       id="path2985-2"
       inkscape:connector-curvature="0"
       inkscape:export-filename="C:\Users\jfinlay\AndroidStudioProjects\LittleFamily\LittleFamilyApp\src\main\res\drawable\growing_plant\plant4.png"
       inkscape:export-xdpi="90"
       inkscape:export-ydpi="90" />
    <path
       inkscape:connector-curvature="0"
       style="fill:#016700"
       d="m 228.22911,-59.981226 c -1.93649,0.252152 -3.95265,-0.0038 -5.80166,0.925018 7.08302,9.389186 17.29202,12.734643 26.86763,15.57828 1.96768,1.143689 3.88232,2.434676 5.74163,3.847583 0.31254,21.622752 -7.21876,41.4730797 -12.14094,61.655501 -5.63214,21.652672 -8.95872,44.803519 -8.0404,67.39533 0.11139,19.593984 4.96393,40.165384 13.28065,57.045134 2.98762,5.69178 5.86007,12.37516 10.95269,15.22231 3.17225,0.8308 6.11603,-1.4343 9.00027,-2.76262 -0.0254,-3.8488 -3.62329,-4.78588 -4.95894,-7.70102 -13.7613,-17.36459 -21.27376,-41.77492 -22.80194,-66.28989 -2.06029,-23.128852 1.43391,-46.515949 7.74955,-68.152362 2.09198,-7.2098631 4.01432,-14.7940295 7.65086,-20.9630604 4.91964,-5.564405 11.89207,-4.746304 17.92522,-6.2183346 11.14446,-1.862748 22.79525,-4.2277 32.21455,-12.720291 1.51396,-2.267458 -1.11517,-4.710507 -2.83308,-4.376942 -15.13568,-4.60569 -31.38055,-0.776697 -44.9119,8.799436 -2.81749,-2.659621 -0.88046,-7.433758 -1.20811,-11.091527 0.26285,-8.778082 -1.24157,-19.078458 -7.41289,-24.136524 -6.32721,-5.026775 -13.97871,-6.242532 -21.27319,-6.056021 z"
       id="path4154-8-0-4-1"
       sodipodi:nodetypes="cccccccccccccccccccc"
       inkscape:export-filename="C:\Users\jfinlay\AndroidStudioProjects\LittleFamily\LittleFamilyApp\src\main\res\drawable\growing_plant\plant5.png"
       inkscape:export-xdpi="90"
       inkscape:export-ydpi="90" />
    <path
       style="fill:#016700"
       d="m 183.67925,13.810888 c 11.51904,17.100922 6.96863,32.689563 22.95185,39.920872 11.76073,5.320945 20.05531,1.629358 30.7246,-5.698907 -7.09174,1.896221 -11.05893,2.04959 -16.51793,1.213102 -12.37823,-1.897359 -12.50001,-11.35472 -23.06055,-20.403766 8.80562,5.464254 11.44368,14.877199 17.95383,17.320176 8.03048,3.014003 13.7953,0.775143 22.3141,-0.295305 -29.42748,-7.780629 -15.03423,-24.803002 -54.36451,-32.056617 z"
       id="path4152-7-4-5"
       inkscape:connector-curvature="0"
       inkscape:export-filename="C:\Users\jfinlay\AndroidStudioProjects\LittleFamily\LittleFamilyApp\src\main\res\drawable\growing_plant\plant5.png"
       inkscape:export-xdpi="90"
       inkscape:export-ydpi="90" />
    <path
       style="fill:#016700"
       d="m 184.99841,88.810134 c 9.49166,12.649206 5.74211,24.179786 18.91227,29.528636 9.69078,3.93579 16.52551,1.2052 25.31697,-4.21537 -5.84357,1.40262 -9.11251,1.51607 -13.61071,0.89734 -10.19963,-1.40344 -10.29999,-8.39886 -19.00184,-15.092261 7.25578,4.041781 9.42956,11.004341 14.79391,12.811361 6.6171,2.2294 11.36729,0.57337 18.38676,-0.21843 C 205.5476,106.76623 217.4076,94.175153 184.99956,88.809786 Z"
       id="path4152-7-9-3"
       inkscape:connector-curvature="0"
       inkscape:export-filename="C:\Users\jfinlay\AndroidStudioProjects\LittleFamily\LittleFamilyApp\src\main\res\drawable\growing_plant\plant5.png"
       inkscape:export-xdpi="90"
       inkscape:export-ydpi="90" />
    <path
       style="fill:#016700"
       d="m 278.84581,80.061563 c -24.69284,9.112756 -16.21292,23.724437 -31.2311,40.043617 8.99247,-1.55738 16.9391,-7.12267 22.43092,-16.86678 2.77468,-4.92305 1.07845,-11.064888 14.21662,-19.356532 -14.3871,10.952384 -8.34508,13.170098 -14.25755,22.399172 -3.04943,4.75952 -8.34665,12.76423 -20.83979,15.60603 11.25231,2.90859 22.71116,1.07489 34.53664,-10.69871 11.22736,-11.17842 3.99677,-16.768801 10.62077,-35.319884 -6.37829,1.311416 -11.43577,2.701818 -15.47651,4.193087 z"
       id="path2985-2-1"
       inkscape:connector-curvature="0"
       inkscape:export-filename="C:\Users\jfinlay\AndroidStudioProjects\LittleFamily\LittleFamilyApp\src\main\res\drawable\growing_plant\plant5.png"
       inkscape:export-xdpi="90"
       inkscape:export-ydpi="90" />
    <path
       inkscape:connector-curvature="0"
       style="fill:#016700"
       d="m 401.16232,-85.69332 c -2.2003,0.282998 -4.49111,-0.0045 -6.59201,1.038186 8.04792,10.537856 19.64767,14.292586 30.52774,17.484114 2.23573,1.283608 4.4112,2.732537 6.5238,4.31829 0.35511,24.26807 -8.20216,46.546863 -13.79487,69.198394 -6.39939,24.30164 -10.17915,50.284734 -9.13573,75.640408 0.12657,21.991098 5.64016,45.079188 15.08984,64.023998 3.39462,6.3881 6.65838,13.88912 12.44475,17.08459 3.6044,0.93244 6.9492,-1.60977 10.22635,-3.1006 -0.0289,-4.31965 -4.11688,-5.37138 -5.63448,-8.64315 -15.63597,-19.48896 -24.17183,-46.88563 -25.90819,-74.399741 -2.34096,-25.958415 1.62925,-52.206673 8.80525,-76.49006393 2.37697,-8.09191957 4.56118,-16.60391907 8.69312,-23.52766307 5.58983,-6.245156 13.5121,-5.32697 20.36713,-6.979087 12.66264,-2.090637 25.90058,-4.744913 36.60305,-14.27648 1.7202,-2.544859 -1.26708,-5.28679 -3.21902,-4.912411 -17.19758,-5.169146 -35.65544,-0.871721 -51.03014,9.875956 -3.2013,-2.985007 -1.0004,-8.3432 -1.37268,-12.448458 0.29865,-9.851983 -1.41071,-21.412503 -8.42273,-27.089374 -7.18915,-5.64174 -15.883,-7.006235 -24.17118,-6.796908 z"
       id="path4154-8-0-4-1-9"
       sodipodi:nodetypes="cccccccccccccccccccc"
       inkscape:export-filename="C:\Users\jfinlay\AndroidStudioProjects\LittleFamily\LittleFamilyApp\src\main\res\drawable\growing_plant\plant6.png"
       inkscape:export-xdpi="90"
       inkscape:export-ydpi="90" />
    <path
       style="fill:#016700"
       d="m 350.10782,5.239567 c 12.72979,21.130541 7.70109,40.392452 25.36428,49.327732 12.99687,6.574754 22.16328,2.013298 33.95399,-7.041788 -7.83713,2.34304 -12.22131,2.53255 -18.25409,1.498952 -13.67928,-2.34445 -13.81386,-14.03032 -25.4844,-25.211655 9.73116,6.751833 12.6465,18.382829 19.84092,21.401455 8.87455,3.724224 15.2453,0.957804 24.65949,-0.364884 -32.52054,-9.61404 -16.61445,-30.647522 -60.07865,-39.610368 z"
       id="path4152-7-4-5-9"
       inkscape:connector-curvature="0"
       inkscape:export-filename="C:\Users\jfinlay\AndroidStudioProjects\LittleFamily\LittleFamilyApp\src\main\res\drawable\growing_plant\plant6.png"
       inkscape:export-xdpi="90"
       inkscape:export-ydpi="90" />
    <path
       style="fill:#016700"
       d="m 332.85556,71.667479 c 14.63731,20.132796 8.85504,38.485151 29.16506,46.998511 14.94438,6.26431 25.48438,1.91823 39.0419,-6.70928 -9.01151,2.23244 -14.05262,2.41301 -20.9894,1.42823 -15.72909,-2.23375 -15.88386,-13.36784 -29.30319,-24.02122 11.18931,6.432997 14.54155,17.51478 22.81404,20.39088 10.20439,3.54837 17.52977,0.91259 28.35466,-0.34766 -37.39368,-9.16009 -19.10409,-29.200361 -69.0813,-37.740018 z"
       id="path4152-7-9-3-6"
       inkscape:connector-curvature="0"
       inkscape:export-filename="C:\Users\jfinlay\AndroidStudioProjects\LittleFamily\LittleFamilyApp\src\main\res\drawable\growing_plant\plant6.png"
       inkscape:export-xdpi="90"
       inkscape:export-ydpi="90" />
    <path
       style="fill:#016700"
       d="m 465.31691,51.169285 c -36.02145,14.624844 -23.6511,38.074773 -45.55934,64.265025 13.11805,-2.4994 24.71044,-11.431 32.7218,-27.069082 4.04765,-7.900886 1.57323,-17.757773 20.73894,-31.064822 -20.98763,17.577205 -12.17364,21.136353 -20.79864,35.94788 -4.44846,7.638434 -12.17594,20.484994 -30.4007,25.045734 16.41466,4.66792 33.13061,1.72506 50.3814,-17.1701 16.37826,-17.939974 5.83042,-26.911835 15.49338,-56.684022 -9.30453,2.104666 -16.68228,4.336085 -22.57684,6.729387 z"
       id="path2985-2-1-3"
       inkscape:connector-curvature="0"
       inkscape:export-filename="C:\Users\jfinlay\AndroidStudioProjects\LittleFamily\LittleFamilyApp\src\main\res\drawable\growing_plant\plant6.png"
       inkscape:export-xdpi="90"
       inkscape:export-ydpi="90" />
    <path
       style="fill:#016700"
       d="m 436.87867,7.1497763 c -4.38072,6.8705967 -2.69559,13.1622347 -8.74051,16.0463977 -4.44794,2.122226 -7.56986,0.618554 -11.58031,-2.355398 2.67174,0.777773 4.16818,0.84714 6.22947,0.520381 4.67397,-0.741179 4.73915,-4.552729 8.74185,-8.179851 -3.33331,2.185599 -4.34774,5.974461 -6.80889,6.946712 -3.0359,1.199517 -5.20632,0.286179 -8.41815,-0.161473 11.11832,-3.079991 5.72259,-9.9682185 20.57601,-12.8169613 z"
       id="path4152-7-9-7"
       inkscape:connector-curvature="0"
       inkscape:transform-center-x="-85.161831"
       inkscape:transform-center-y="111.87922"
       inkscape:export-filename="C:\Users\jfinlay\AndroidStudioProjects\LittleFamily\LittleFamilyApp\src\main\res\drawable\growing_plant\plant6.png"
       inkscape:export-xdpi="90"
       inkscape:export-ydpi="90" />
    <path
       inkscape:connector-curvature="0"
       style="fill:#016700"
       d="m 598.35988,-106.40633 c -2.2003,0.30085 -4.49111,-0.005 -6.59201,1.1037 8.04792,11.202878 19.64767,15.19456 30.52774,18.587488 2.23573,1.364616 4.4112,2.904984 6.5238,4.590806 0.35511,25.799566 -8.20216,49.484324 -13.79487,73.5653342 -6.39939,25.8352538 -10.17915,53.4580798 -9.13573,80.4138818 0.12657,23.378901 5.64016,47.92402 15.08984,68.06439 3.39462,6.79124 6.65838,14.76563 12.44475,18.16276 3.6044,0.99128 6.9492,-1.71136 10.22635,-3.29627 -0.0289,-4.59226 -4.11688,-5.71036 -5.63448,-9.1886 -15.63597,-20.71886 -24.17183,-49.844465 -25.90819,-79.09492 -2.34096,-27.596589 1.62925,-55.501309 8.80525,-81.317161 2.37697,-8.602581 4.56118,-17.651752 8.69312,-25.012431 5.58983,-6.639276 13.5121,-5.663141 20.36713,-7.419522 12.66264,-2.222575 25.90058,-5.044349 36.60305,-15.177432 1.7202,-2.70546 -1.26708,-5.620426 -3.21902,-5.22242 -17.19758,-5.495362 -35.65544,-0.926732 -51.03014,10.499196 -3.2013,-3.173376 -1.0004,-8.869718 -1.37268,-13.23404 0.29865,-10.473724 -1.41071,-22.763798 -8.42273,-28.79892 -7.18915,-5.99778 -15.883,-7.44838 -24.17118,-7.22584 z"
       id="path4154-8-0-4-1-9-8"
       sodipodi:nodetypes="cccccccccccccccccccc"
       inkscape:export-filename="C:\Users\jfinlay\AndroidStudioProjects\LittleFamily\LittleFamilyApp\src\main\res\drawable\growing_plant\plant7.png"
       inkscape:export-xdpi="90"
       inkscape:export-ydpi="90" />
    <path
       style="fill:#016700"
       d="m 541.59109,-2.6175439 c 13.94054,22.2818699 8.43355,42.5932859 27.77671,52.0154139 14.23301,6.932983 24.27125,2.122987 37.18338,-7.425469 -8.58252,2.470703 -13.38369,2.670539 -19.99025,1.580622 -14.98033,-2.47219 -15.12771,-14.794777 -27.90825,-26.585334 10.6567,7.119711 13.84932,19.384428 21.72801,22.567531 9.71862,3.927138 16.6953,1.009987 27.00488,-0.384761 C 571.77197,29.012588 589.1909,6.8330661 541.59278,-2.6181344 Z"
       id="path4152-7-4-5-9-0"
       inkscape:connector-curvature="0"
       inkscape:export-filename="C:\Users\jfinlay\AndroidStudioProjects\LittleFamily\LittleFamilyApp\src\main\res\drawable\growing_plant\plant7.png"
       inkscape:export-xdpi="90"
       inkscape:export-ydpi="90" />
    <path
       style="fill:#016700"
       d="m 514.33883,59.524711 c 17.96686,23.011091 10.8693,43.987219 35.79923,53.717689 18.34377,7.1599 31.28129,2.19248 47.92273,-7.66847 -11.06136,2.5516 -17.24916,2.75799 -25.76384,1.63242 -19.30698,-2.5531 -19.49695,-15.278992 -35.96878,-27.455441 13.73454,7.352688 17.84931,20.0188 28.00354,23.306081 12.52558,4.05567 21.51726,1.04306 34.80448,-0.39736 C 553.23659,92.189954 575.6865,69.284611 514.34101,59.524071 Z"
       id="path4152-7-9-3-6-6"
       inkscape:connector-curvature="0"
       inkscape:export-filename="C:\Users\jfinlay\AndroidStudioProjects\LittleFamily\LittleFamilyApp\src\main\res\drawable\growing_plant\plant7.png"
       inkscape:export-xdpi="90"
       inkscape:export-ydpi="90" />
    <path
       style="fill:#016700"
       d="m 667.29055,37.056991 c -39.79765,16.55408 -26.13049,43.097396 -50.33542,72.742519 14.49324,-2.8291 27.30089,-12.938913 36.15209,-30.639883 4.47198,-8.943132 1.73816,-20.100289 22.91305,-35.162732 -23.18781,19.895899 -13.44983,23.924553 -22.979,40.689927 -4.91481,8.646061 -13.45237,23.187268 -33.58767,28.349638 18.13544,5.28369 36.60376,1.95262 55.66298,-19.435086 18.09523,-20.306524 6.44164,-30.461903 17.11759,-64.161466 -10.27995,2.382295 -18.43112,4.908072 -24.94362,7.617083 z"
       id="path2985-2-1-3-3"
       inkscape:connector-curvature="0"
       inkscape:export-filename="C:\Users\jfinlay\AndroidStudioProjects\LittleFamily\LittleFamilyApp\src\main\res\drawable\growing_plant\plant7.png"
       inkscape:export-xdpi="90"
       inkscape:export-ydpi="90" />
    <path
       style="fill:#016700"
       d="m 654.77598,-14.992888 c -8.78767,13.7823415 -5.40732,26.403295 -17.53336,32.188885 -8.92251,4.257168 -15.18504,1.240824 -23.22996,-4.724904 5.35948,1.560217 8.36132,1.699353 12.49624,1.043876 9.37593,-1.486778 9.50668,-9.1327016 17.53605,-16.4086798 -6.68658,4.3842863 -8.72151,11.984694 -13.65855,13.9350358 -6.08998,2.406203 -10.44382,0.574054 -16.88671,-0.323927 22.30322,-6.1784228 11.47945,-19.9961284 41.27523,-25.710667 z"
       id="path4152-7-9-7-6"
       inkscape:connector-curvature="0"
       inkscape:transform-center-x="-170.83361"
       inkscape:transform-center-y="224.42837"
       inkscape:export-filename="C:\Users\jfinlay\AndroidStudioProjects\LittleFamily\LittleFamilyApp\src\main\res\drawable\growing_plant\plant7.png"
       inkscape:export-xdpi="90"
       inkscape:export-ydpi="90" />
    <path
       inkscape:connector-curvature="0"
       style="fill:#016700"
       d="m -184.88898,96.017014 c -0.89471,0.08493 -0.81609,1.008853 -1.67038,1.321704 3.27257,3.162202 1.92852,2.773702 6.35273,3.731422 0.90914,0.38519 1.79375,0.81998 2.65281,1.29584 0.1444,7.28239 -1.31497,14.97799 -3.58917,21.77529 -2.60221,7.29246 -3.63413,15.0895 -3.20984,22.69827 0.0514,6.59911 -0.23189,12.51727 3.61068,18.20224 1.38037,1.91696 2.70753,4.16787 5.06048,5.12677 1.46567,0.27981 2.82579,-0.48306 4.15839,-0.93043 -0.0117,-1.29625 -1.67407,-1.61185 -2.29118,-2.59365 -6.35813,-5.84827 -7.30373,-14.0695 -8.0098,-22.32596 -0.95192,-7.78964 0.66251,-15.16117 3.58053,-22.44816 0.96655,-2.42823 0.84458,-3.97237 2.52477,-6.05006 2.27303,-1.87405 3.97927,-3.11375 6.76676,-3.60952 5.14908,-0.62736 1.9458,-0.41371 6.2978,-3.27396 l -1.30897,-1.47412 c -6.99314,-1.55116 -5.91247,-1.27173 -12.16435,1.95344 -1.30176,-0.89574 -0.4068,-2.50363 -0.55819,-3.73555 0.12145,-2.95639 -0.57363,-6.425497 -3.42497,-8.129016 -2.92337,-1.692982 -1.40783,-1.597363 -4.7781,-1.53455 z"
       id="path4154-8-3"
       sodipodi:nodetypes="cccccccccccccccccccc"
       inkscape:export-filename="C:\Users\jfinlay\AndroidStudioProjects\LittleFamily\LittleFamilyApp\src\main\res\drawable\growing_plant\plant1.png"
       inkscape:export-xdpi="90"
       inkscape:export-ydpi="90" />
  </g>
</svg>
