<?xml version="1.0" encoding="UTF-8" standalone="no"?>
<!-- Created with Inkscape (http://www.inkscape.org/) -->

<svg
   xmlns:dc="http://purl.org/dc/elements/1.1/"
   xmlns:cc="http://creativecommons.org/ns#"
   xmlns:rdf="http://www.w3.org/1999/02/22-rdf-syntax-ns#"
   xmlns:svg="http://www.w3.org/2000/svg"
   xmlns="http://www.w3.org/2000/svg"
   xmlns:xlink="http://www.w3.org/1999/xlink"
   xmlns:sodipodi="http://sodipodi.sourceforge.net/DTD/sodipodi-0.dtd"
   xmlns:inkscape="http://www.inkscape.org/namespaces/inkscape"
   width="210mm"
   height="297mm"
   viewBox="0 0 744.09448819 1052.3622047"
   id="svg2"
   version="1.1"
   inkscape:version="0.91 r13725"
   sodipodi:docname="stage.svg">
  <defs
     id="defs4">
    <linearGradient
       id="linearGradient5203">
      <stop
         offset="0"
         style="stop-color:#803300"
         id="stop5205" />
      <stop
         offset="1"
         style="stop-color:#c83737"
         id="stop5207" />
    </linearGradient>
    <linearGradient
       id="linearGradient5193">
      <stop
         offset="0"
         style="stop-color:#784421"
         id="stop5195" />
      <stop
         offset="1"
         style="stop-color:#d45500"
         id="stop5197" />
    </linearGradient>
    <linearGradient
       id="linearGradient5159">
      <stop
         offset="0"
         style="stop-color:#784421"
         id="stop5161" />
      <stop
         offset="1"
         style="stop-color:#552200"
         id="stop5163" />
    </linearGradient>
    <linearGradient
       id="linearGradient5143">
      <stop
         offset="0"
         style="stop-color:#784421"
         id="stop5145" />
      <stop
         offset="1"
         style="stop-color:#28170b"
         id="stop5147" />
    </linearGradient>
    <linearGradient
       id="linearGradient5129">
      <stop
         offset="0"
         style="stop-color:#784421"
         id="stop5131" />
      <stop
         offset="1"
         style="stop-color:#803300"
         id="stop5133" />
    </linearGradient>
    <linearGradient
       id="linearGradient5121">
      <stop
         offset="0"
         style="stop-color:#552200"
         id="stop5123" />
      <stop
         offset="1"
         style="stop-color:#c83737"
         id="stop5125" />
    </linearGradient>
    <linearGradient
       id="linearGradient5113">
      <stop
         offset="0"
         style="stop-color:#784421"
         id="stop5115" />
      <stop
         offset="1"
         style="stop-color:#d38d5f"
         id="stop5117" />
    </linearGradient>
    <linearGradient
       id="linearGradient4159">
      <stop
         offset="0"
         style="stop-color:#ed9647"
         id="stop4161" />
      <stop
         offset=".51012"
         style="stop-color:#ffed00"
         id="stop4163" />
      <stop
         offset="1"
         style="stop-color:#ed9647"
         id="stop4165" />
    </linearGradient>
    <linearGradient
       id="linearGradient4149">
      <stop
         offset="0"
         style="stop-color:#ed9647"
         id="stop4151" />
      <stop
         offset=".50946"
         style="stop-color:#ffed00"
         id="stop4153" />
      <stop
         offset="1"
         style="stop-color:#ed9647"
         id="stop4155" />
    </linearGradient>
    <linearGradient
       id="linearGradient4121">
      <stop
         offset="0"
         style="stop-color:#fff6d5"
         id="stop4123" />
      <stop
         offset="1"
         style="stop-color:#f4eed7;stop-opacity:0"
         id="stop4125" />
    </linearGradient>
    <linearGradient
       id="linearGradient4030">
      <stop
         offset="0"
         style="stop-color:#ffeb02"
         id="stop4032" />
      <stop
         offset="1"
         style="stop-color:#ed9845"
         id="stop4034" />
    </linearGradient>
    <linearGradient
       id="linearGradient3977">
      <stop
         offset="0"
         style="stop-color:#37abc8"
         id="stop3979" />
      <stop
         offset="1"
         style="stop-color:#ffe680"
         id="stop3981" />
    </linearGradient>
    <linearGradient
       id="linearGradient3940">
      <stop
         offset="0"
         style="stop-color:#800000"
         id="stop3942" />
      <stop
         offset="1"
         style="stop-color:#ff0000"
         id="stop3944" />
    </linearGradient>
    <linearGradient
       id="linearGradient3922">
      <stop
         offset="0"
         style="stop-color:#550000"
         id="stop3924" />
      <stop
         offset="1"
         style="stop-color:#d40000"
         id="stop3926" />
    </linearGradient>
    <filter
       inkscape:collect="always"
       x="-0.0124"
       y="-.58508"
       color-interpolation-filters="sRGB"
       width="1.0248"
       height="2.1702"
       id="filter5642">
      <feGaussianBlur
         inkscape:collect="always"
         stdDeviation="3.7710552"
         id="feGaussianBlur5644" />
    </filter>
    <linearGradient
       inkscape:collect="always"
       x1="1087.7"
       y1="830.79"
       gradientTransform="matrix(0.77032,0,0,1.6483278,-252.03916,-586.29941)"
       x2="211.36"
       gradientUnits="userSpaceOnUse"
       y2="830.79"
       id="linearGradient5981">
      <stop
         offset="0"
         style="stop-color:#2b1100"
         id="stop4641" />
      <stop
         offset=".5"
         style="stop-color:#784421"
         id="stop4647" />
      <stop
         offset="1"
         style="stop-color:#2b1100"
         id="stop4643" />
    </linearGradient>
    <linearGradient
       inkscape:collect="always"
       x1="1264.7"
       y1="820.02"
       x2="36.185"
       gradientUnits="userSpaceOnUse"
       y2="820.02"
       id="linearGradient5983"
       gradientTransform="matrix(0.77032,0,0,0.77032,-250.75103,131.75646)">
      <stop
         offset="0"
         style="stop-color:#2b1100"
         id="stop5399" />
      <stop
         offset=".5"
         style="stop-color:#9b5800"
         id="stop5401" />
      <stop
         offset="1"
         style="stop-color:#2b1100"
         id="stop5403" />
    </linearGradient>
    <linearGradient
       inkscape:collect="always"
       x1="649.1"
       y1="480.42"
       gradientTransform="matrix(0.82386372,0,0,1.4148944,-284.59888,-370.25604)"
       x2="649.1"
       gradientUnits="userSpaceOnUse"
       y2="793.2"
       id="linearGradient6120">
      <stop
         offset="0"
         style="stop-color:#2ad4ff"
         id="stop5359" />
      <stop
         offset="1"
         style="stop-color:#ffd42a"
         id="stop5361" />
    </linearGradient>
    <linearGradient
       inkscape:collect="always"
       x1="2449.2"
       y1="1028.2"
       gradientTransform="matrix(0.86678701,0,0,1.4148944,-1808.7665,-746.23598)"
       x2="2449.2"
       gradientUnits="userSpaceOnUse"
       y2="653.34"
       id="linearGradient6123">
      <stop
         offset="0"
         style="stop-color:#00ccff"
         id="stop6005" />
      <stop
         offset="1"
         style="stop-color:#fff6d5;stop-opacity:0"
         id="stop6007" />
    </linearGradient>
    <radialGradient
       inkscape:collect="always"
       r="361.94"
       gradientTransform="matrix(0.99720465,1.8972319e-8,0,1.5395465,-398.37445,-503.59568)"
       cx="650.23"
       cy="647.63"
       gradientUnits="userSpaceOnUse"
       id="radialGradient6126">
      <stop
         offset="0"
         style="stop-color:#93a7ac"
         id="stop4827" />
      <stop
         offset="1"
         style="stop-color:#00112b"
         id="stop4829" />
    </radialGradient>
    <linearGradient
       inkscape:collect="always"
       x1="917.02"
       y1="556.53"
       gradientTransform="matrix(-0.91002,0,0,1,1087.7,0)"
       x2="789.24"
       gradientUnits="userSpaceOnUse"
       xlink:href="#linearGradient3922"
       y2="556.53"
       id="linearGradient6130" />
    <linearGradient
       inkscape:collect="always"
       x1="577.84"
       y1="310.85"
       gradientTransform="matrix(1.2342,0,0,1.2813,-333.58,90.634)"
       x2="577.84"
       gradientUnits="userSpaceOnUse"
       xlink:href="#linearGradient3977"
       y2="470.76"
       id="linearGradient6132" />
    <linearGradient
       inkscape:collect="always"
       x1="364.46"
       y1="768.71"
       x2="364.46"
       gradientUnits="userSpaceOnUse"
       xlink:href="#linearGradient4149"
       y2="522.36"
       id="linearGradient6134" />
    <linearGradient
       inkscape:collect="always"
       x1="914.4"
       y1="399.86"
       gradientTransform="matrix(-1.2342,0,0,1,1379.4,0)"
       x2="734.33"
       gradientUnits="userSpaceOnUse"
       xlink:href="#linearGradient3940"
       y2="399.86"
       id="linearGradient6136" />
    <linearGradient
       inkscape:collect="always"
       x1="556.8"
       y1="320.85"
       gradientTransform="matrix(1.1068,0.54604,-0.56686,1.149,-120.66,-468.97)"
       x2="573.56"
       gradientUnits="userSpaceOnUse"
       xlink:href="#linearGradient3977"
       y2="509.04"
       id="linearGradient6138" />
    <linearGradient
       inkscape:collect="always"
       x1="821.04"
       y1="482.37"
       gradientTransform="matrix(-1.2503,0,0,1.0101,1393.9,-3.2112)"
       x2="710.63"
       gradientUnits="userSpaceOnUse"
       xlink:href="#linearGradient4159"
       y2="399.62"
       id="linearGradient6140" />
    <linearGradient
       inkscape:collect="always"
       x1="408.93"
       y1="511.8"
       x2="270.62"
       gradientUnits="userSpaceOnUse"
       xlink:href="#linearGradient4030"
       y2="480.86"
       id="linearGradient6142" />
    <linearGradient
       inkscape:collect="always"
       x1="387.18"
       y1="527.35"
       x2="288.68"
       gradientUnits="userSpaceOnUse"
       xlink:href="#linearGradient4121"
       y2="502.42"
       id="linearGradient6144" />
    <linearGradient
       inkscape:collect="always"
       x1="560.46"
       y1="319.11"
       gradientTransform="matrix(1.1068,0.54604,-0.56686,1.149,-120.66,-468.97)"
       x2="573.56"
       gradientUnits="userSpaceOnUse"
       xlink:href="#linearGradient3977"
       y2="509.04"
       id="linearGradient6154" />
    <linearGradient
       inkscape:collect="always"
       x1="771.99"
       y1="366.92"
       gradientTransform="matrix(1.2342,0,0,1,-62.961,0.015091)"
       x2="386.03"
       gradientUnits="userSpaceOnUse"
       y2="366.92"
       id="linearGradient6162">
      <stop
         offset="0"
         style="stop-color:#cf0000"
         id="stop3902" />
      <stop
         offset="0.5"
         style="stop-color:#ed0000"
         id="stop3908" />
      <stop
         offset="1"
         style="stop-color:#cf0000"
         id="stop3904" />
    </linearGradient>
    <linearGradient
       inkscape:collect="always"
       x1="579.1"
       y1="238.11"
       gradientTransform="matrix(1.2342,0,0,1,-62.965,8.4406e-7)"
       x2="579.1"
       gradientUnits="userSpaceOnUse"
       xlink:href="#linearGradient3977"
       y2="410.23"
       id="linearGradient6164" />
    <linearGradient
       inkscape:collect="always"
       x1="309.43"
       y1="363.11"
       gradientTransform="matrix(1.2342,0,0,1.0188,-62.965,-5.9544)"
       x2="847.59"
       gradientUnits="userSpaceOnUse"
       y2="363.11"
       id="linearGradient6166">
      <stop
         offset="0"
         style="stop-color:#ed9647"
         id="stop4009" />
      <stop
         offset=".5"
         style="stop-color:#ffed00"
         id="stop4015" />
      <stop
         offset="1"
         style="stop-color:#ed9647"
         id="stop4011" />
    </linearGradient>
    <linearGradient
       inkscape:collect="always"
       xlink:href="#linearGradient3922"
       id="linearGradient4638"
       gradientUnits="userSpaceOnUse"
       gradientTransform="matrix(-0.91002,0,0,1,1087.7,0)"
       x1="917.02"
       y1="556.53"
       x2="789.24"
       y2="556.53" />
    <linearGradient
       inkscape:collect="always"
       xlink:href="#linearGradient3977"
       id="linearGradient4640"
       gradientUnits="userSpaceOnUse"
       gradientTransform="matrix(1.2342,0,0,1.2813,-333.58,90.634)"
       x1="577.84"
       y1="310.85"
       x2="577.84"
       y2="470.76" />
    <linearGradient
       inkscape:collect="always"
       xlink:href="#linearGradient4149"
       id="linearGradient4642"
       gradientUnits="userSpaceOnUse"
       x1="364.46"
       y1="768.71"
       x2="364.46"
       y2="522.36" />
    <linearGradient
       inkscape:collect="always"
       xlink:href="#linearGradient3940"
       id="linearGradient4644"
       gradientUnits="userSpaceOnUse"
       gradientTransform="matrix(-1.2342,0,0,1,1379.4,0)"
       x1="914.4"
       y1="399.86"
       x2="734.33"
       y2="399.86" />
    <linearGradient
       inkscape:collect="always"
       xlink:href="#linearGradient4159"
       id="linearGradient4646"
       gradientUnits="userSpaceOnUse"
       gradientTransform="matrix(-1.2503,0,0,1.0101,1393.9,-3.2112)"
       x1="821.04"
       y1="482.37"
       x2="710.63"
       y2="399.62" />
    <linearGradient
       inkscape:collect="always"
       xlink:href="#linearGradient4030"
       id="linearGradient4648"
       gradientUnits="userSpaceOnUse"
       x1="408.93"
       y1="511.8"
       x2="270.62"
       y2="480.86" />
    <linearGradient
       inkscape:collect="always"
       xlink:href="#linearGradient4121"
       id="linearGradient4650"
       gradientUnits="userSpaceOnUse"
       x1="387.18"
       y1="527.35"
       x2="288.68"
       y2="502.42" />
    <linearGradient
       inkscape:collect="always"
       x1="1821.9"
       y1="421.32999"
       gradientTransform="matrix(0.86789061,0,0,-0.91167372,-1839.5644,1248.9899)"
       x2="2990.8"
       gradientUnits="userSpaceOnUse"
       y2="431.76999"
       id="linearGradient5931">
      <stop
         offset="0"
         style="stop-color:#000000"
         id="stop5611" />
      <stop
         offset=".5"
         style="stop-color:#d38d5f"
         id="stop5617" />
      <stop
         offset="1"
         style="stop-color:#000000"
         id="stop5613" />
    </linearGradient>
    <filter
       style="color-interpolation-filters:sRGB"
       inkscape:collect="always"
       x="-0.0124"
       y="-0.58508003"
       width="1.0247999"
       height="2.1702001"
       id="filter5642-8">
      <feGaussianBlur
         inkscape:collect="always"
         stdDeviation="3.7710552"
         id="feGaussianBlur5644-0" />
    </filter>
    <linearGradient
       inkscape:collect="always"
       xlink:href="#linearGradient5203"
       id="linearGradient4652"
       gradientUnits="userSpaceOnUse"
       x1="2403.6001"
       y1="510.84"
       x2="2403.6001"
       y2="330.76999" />
    <linearGradient
       inkscape:collect="always"
       x1="2322.7"
       y1="406.57001"
       x2="2322.7"
       gradientUnits="userSpaceOnUse"
       xlink:href="#linearGradient5113"
       y2="642.38"
       id="linearGradient5909" />
    <linearGradient
       inkscape:collect="always"
       x1="2475.3"
       y1="419.38"
       x2="2475.3"
       gradientUnits="userSpaceOnUse"
       xlink:href="#linearGradient5193"
       y2="645.63"
       id="linearGradient5911" />
    <linearGradient
       inkscape:collect="always"
       x1="2274.3999"
       y1="424.20999"
       x2="2274.3999"
       gradientUnits="userSpaceOnUse"
       xlink:href="#linearGradient5143"
       y2="541.12"
       id="linearGradient5913" />
    <linearGradient
       inkscape:collect="always"
       xlink:href="#linearGradient5203"
       id="linearGradient4654"
       gradientUnits="userSpaceOnUse"
       x1="2403.6001"
       y1="510.84"
       x2="2403.6001"
       y2="330.76999" />
    <linearGradient
       inkscape:collect="always"
       x1="2603.2"
       y1="424.20999"
       x2="2603.2"
       gradientUnits="userSpaceOnUse"
       xlink:href="#linearGradient5143"
       y2="603.25"
       id="linearGradient5917" />
    <linearGradient
       inkscape:collect="always"
       xlink:href="#linearGradient5203"
       id="linearGradient4656"
       gradientUnits="userSpaceOnUse"
       x1="2403.6001"
       y1="510.84"
       x2="2403.6001"
       y2="330.76999" />
    <linearGradient
       inkscape:collect="always"
       x1="2475.3"
       y1="423.32999"
       x2="2475.3"
       gradientUnits="userSpaceOnUse"
       xlink:href="#linearGradient5193"
       y2="594.64001"
       id="linearGradient5921" />
    <linearGradient
       inkscape:collect="always"
       x1="2265.2"
       y1="383.07999"
       x2="2265.2"
       gradientUnits="userSpaceOnUse"
       xlink:href="#linearGradient5113"
       y2="718.35999"
       id="linearGradient5923" />
    <linearGradient
       inkscape:collect="always"
       x1="2274.3999"
       y1="424.20999"
       x2="2274.3999"
       gradientUnits="userSpaceOnUse"
       xlink:href="#linearGradient5143"
       y2="615.53998"
       id="linearGradient5925" />
    <linearGradient
       inkscape:collect="always"
       x1="2403.6001"
       y1="510.84"
       x2="2403.6001"
       gradientUnits="userSpaceOnUse"
       xlink:href="#linearGradient5203"
       y2="330.76999"
       id="linearGradient5907" />
    <linearGradient
       inkscape:collect="always"
       x1="1149.5"
       y1="213.10001"
       gradientTransform="matrix(0.86789061,0,0,-0.94248829,-314.34419,1015.0544)"
       x2="144.42"
       gradientUnits="userSpaceOnUse"
       y2="213.10001"
       id="linearGradient5905">
      <stop
         offset="0"
         style="stop-color:#2b1100"
         id="stop5383" />
      <stop
         offset=".5"
         style="stop-color:#824421"
         id="stop5385" />
      <stop
         offset="1"
         style="stop-color:#2b1100"
         id="stop5387" />
    </linearGradient>
    <linearGradient
       inkscape:collect="always"
       x1="2388"
       y1="495.70999"
       gradientTransform="translate(-0.0032,0)"
       x2="2388"
       gradientUnits="userSpaceOnUse"
       y2="602.03003"
       id="linearGradient6128">
      <stop
         offset="0"
         style="stop-color:#000000"
         id="stop5832" />
      <stop
         offset="1"
         style="stop-color:#000000;stop-opacity:0"
         id="stop5834" />
    </linearGradient>
    <filter
       style="color-interpolation-filters:sRGB"
       inkscape:collect="always"
       x="-0.032237001"
       y="-0.43226001"
       width="1.0645"
       height="1.8645"
       id="filter5826">
      <feGaussianBlur
         inkscape:collect="always"
         stdDeviation="9.421875"
         id="feGaussianBlur5828" />
    </filter>
    <linearGradient
       inkscape:collect="always"
       x1="1155.6"
       y1="266"
       gradientTransform="matrix(0.80976038,0,0,0.93910592,-272.48042,-249.19802)"
       x2="130.13"
       gradientUnits="userSpaceOnUse"
       y2="266"
       id="linearGradient5929">
      <stop
         offset="0"
         style="stop-color:#2b1100"
         id="stop5391" />
      <stop
         offset=".5"
         style="stop-color:#9d5900"
         id="stop5393" />
      <stop
         offset="1"
         style="stop-color:#2b1100"
         id="stop5395" />
    </linearGradient>
    <linearGradient
       inkscape:collect="always"
       x1="1087.7"
       y1="830.78998"
       gradientTransform="matrix(0.88062301,0,0,1.4056154,-323.31515,-193.76994)"
       x2="211.36"
       gradientUnits="userSpaceOnUse"
       y2="830.78998"
       id="linearGradient5981-2">
      <stop
         offset="0"
         style="stop-color:#1a0900;stop-opacity:1"
         id="stop4641-6" />
      <stop
         offset=".5"
         style="stop-color:#472916;stop-opacity:1"
         id="stop4647-0" />
      <stop
         offset="1"
         style="stop-color:#1a0a00;stop-opacity:1"
         id="stop4643-5" />
    </linearGradient>
    <linearGradient
       inkscape:collect="always"
       x1="1264.7"
       y1="820.02002"
       x2="36.185001"
       gradientUnits="userSpaceOnUse"
       y2="820.02002"
       id="linearGradient5983-1"
       gradientTransform="matrix(0.83626321,0,0,0.79349888,-290.14958,460.78561)">
      <stop
         offset="0"
         style="stop-color:#260f00;stop-opacity:1"
         id="stop5399-5" />
      <stop
         offset=".5"
         style="stop-color:#693b00;stop-opacity:1"
         id="stop5401-8" />
      <stop
         offset="1"
         style="stop-color:#260f00;stop-opacity:1"
         id="stop5403-8" />
    </linearGradient>
    <linearGradient
       id="linearGradient829">
      <stop
         offset="0"
         style="stop-color:#ffea22"
         id="stop830" />
      <stop
         offset="1"
         style="stop-color:#c57500"
         id="stop831" />
    </linearGradient>
    <linearGradient
       id="linearGradient822">
      <stop
         offset="0"
         style="stop-color:#000000"
         id="stop823" />
      <stop
         offset="1"
         style="stop-color:#9d9f9a"
         id="stop824" />
    </linearGradient>
    <linearGradient
       id="linearGradient701">
      <stop
         offset="0"
         style="stop-color:#000000"
         id="stop702" />
      <stop
         offset="1"
         style="stop-color:#000000;stop-opacity:0"
         id="stop703" />
    </linearGradient>
    <linearGradient
       id="linearGradient611">
      <stop
         offset="0"
         style="stop-color:#c56c24"
         id="stop612" />
      <stop
         offset="1"
         style="stop-color:#9a3d24"
         id="stop613" />
    </linearGradient>
    <linearGradient
       x1="640.43"
       x2="-158.7"
       gradientTransform="matrix(.95609 0 0 1.0459 -53.537 -33.627)"
       y1="438.69"
       gradientUnits="userSpaceOnUse"
       xlink:href="#linearGradient611"
       y2="-311.63"
       id="linearGradient609" />
    <radialGradient
       r="411.6"
       gradientTransform="matrix(.95609 0 0 1.0459 -53.537 -33.627)"
       cx="126.75"
       cy="84.333"
       gradientUnits="userSpaceOnUse"
       xlink:href="#linearGradient611"
       id="radialGradient610" />
    <radialGradient
       r="166.22"
       gradientTransform="matrix(2.2408 0 0 .44626 -53.537 -33.627)"
       cx="130.72"
       cy="516.61"
       gradientUnits="userSpaceOnUse"
       xlink:href="#linearGradient701"
       id="radialGradient614" />
    <linearGradient
       x1="187.2"
       x2="52.655"
       gradientTransform="matrix(2.2353 0 0 .44738 -53.537 -33.627)"
       y1="729.11"
       gradientUnits="userSpaceOnUse"
       y2="277.22"
       id="linearGradient618">
      <stop
         offset="0"
         style="stop-color:#cd6c24"
         id="stop607" />
      <stop
         offset="1"
         style="stop-color:#7a270d"
         id="stop608" />
    </linearGradient>
    <linearGradient
       x1="85.248"
       x2="121.58"
       gradientTransform="matrix(.77664 0 0 1.2876 -53.537 -33.627)"
       y1="170.2"
       gradientUnits="userSpaceOnUse"
       xlink:href="#linearGradient701"
       y2="170.68"
       id="linearGradient619" />
    <radialGradient
       r="247.86"
       gradientTransform="matrix(.93768 0 0 1.0665 -53.537 -33.627)"
       cx="318.9"
       cy="265.09"
       gradientUnits="userSpaceOnUse"
       xlink:href="#linearGradient701"
       id="radialGradient688" />
    <linearGradient
       x1="217.64"
       x2="228.87"
       gradientTransform="matrix(1.261 0 0 .79305 -53.537 -33.627)"
       y1="560.73"
       gradientUnits="userSpaceOnUse"
       xlink:href="#linearGradient829"
       y2="574.82"
       id="linearGradient747" />
    <linearGradient
       x1="98.154"
       x2="82.324"
       gradientTransform="matrix(3.4833 0 0 .28709 -53.537 -33.627)"
       y1="811.87"
       gradientUnits="userSpaceOnUse"
       y2="723.01"
       id="linearGradient821">
      <stop
         offset="0"
         style="stop-color:#bdbdba"
         id="stop671" />
      <stop
         offset="1"
         style="stop-color:#ffffff"
         id="stop672" />
    </linearGradient>
    <linearGradient
       x1="81.112"
       x2="50.386"
       gradientTransform="scale(5.0545 .19784)"
       y1="2314"
       gradientUnits="userSpaceOnUse"
       xlink:href="#linearGradient822"
       y2="2233.5"
       id="linearGradient825" />
    <linearGradient
       x1="222.02"
       x2="226.82"
       gradientTransform="matrix(1.261 0 0 .79305 -53.537 -33.627)"
       y1="562.44"
       gradientUnits="userSpaceOnUse"
       xlink:href="#linearGradient829"
       y2="570.5"
       id="linearGradient832" />
    <linearGradient
       x1="710.88"
       x2="239.93"
       gradientTransform="matrix(.93768 0 0 1.0665 -53.537 -33.627)"
       y1="440.41"
       gradientUnits="userSpaceOnUse"
       xlink:href="#linearGradient701"
       y2="31.413"
       id="linearGradient836" />
    <linearGradient
       id="linearGradient3220">
      <stop
         offset="0"
         style="stop-color:#3f1a1c"
         id="stop3222" />
      <stop
         offset="1"
         style="stop-color:#d88e27"
         id="stop3224" />
    </linearGradient>
    <linearGradient
       inkscape:collect="always"
       id="linearGradient21874">
      <stop
         offset="0"
         style="stop-color:#ffffff"
         id="stop21876" />
      <stop
         offset="1"
         style="stop-color:#ffffff;stop-opacity:0"
         id="stop21878" />
    </linearGradient>
    <linearGradient
       inkscape:collect="always"
       id="linearGradient11326">
      <stop
         offset="0"
         style="stop-color:#ffffff"
         id="stop11328" />
      <stop
         offset="1"
         style="stop-color:none"
         id="stop11330" />
    </linearGradient>
    <linearGradient
       inkscape:collect="always"
       x1="-177"
       y1="454.63"
       gradientTransform="matrix(1.3775,0,0,0.49378,409.59,61.303)"
       x2="-177"
       gradientUnits="userSpaceOnUse"
       xlink:href="#linearGradient21874"
       y2="648.56"
       id="linearGradient4373" />
    <linearGradient
       inkscape:collect="always"
       x1="-247.43"
       y1="411.57"
       gradientTransform="matrix(0.71229,0,0,0.66532,339.96,-15.46)"
       x2="-215.86"
       gradientUnits="userSpaceOnUse"
       spreadMethod="reflect"
       xlink:href="#linearGradient21874"
       y2="405.36"
       id="linearGradient4376" />
    <linearGradient
       inkscape:collect="always"
       x1="-98.593"
       y1="289.05"
       gradientTransform="matrix(0.68229,0.17498,0.015167,0.25494,230.98,213.46)"
       x2="-332.37"
       gradientUnits="userSpaceOnUse"
       xlink:href="#linearGradient21874"
       y2="246.84"
       id="linearGradient4379" />
    <linearGradient
       inkscape:collect="always"
       x1="-177"
       y1="454.63"
       gradientTransform="matrix(0.71229,0,0,0.66532,452.67,-72.118)"
       x2="-177"
       gradientUnits="userSpaceOnUse"
       xlink:href="#linearGradient21874"
       y2="648.56"
       id="linearGradient4382" />
    <linearGradient
       inkscape:collect="always"
       x1="-177"
       y1="454.63"
       gradientTransform="matrix(0.71229,0,0,0.49378,220.59,31.172)"
       x2="-177"
       gradientUnits="userSpaceOnUse"
       xlink:href="#linearGradient21874"
       y2="648.56"
       id="linearGradient4385" />
    <linearGradient
       inkscape:collect="always"
       x1="-177"
       y1="454.63"
       gradientTransform="matrix(0.71229,0,0,0.66532,341.8,-15.667)"
       x2="-177"
       gradientUnits="userSpaceOnUse"
       xlink:href="#linearGradient21874"
       y2="648.56"
       id="linearGradient4388" />
    <linearGradient
       inkscape:collect="always"
       x1="-29.718"
       y1="362.42"
       gradientTransform="matrix(0.71229,0,0,0.66532,341.13,-17.549)"
       x2="-7.9826"
       gradientUnits="userSpaceOnUse"
       spreadMethod="reflect"
       xlink:href="#linearGradient21874"
       y2="362.42"
       id="linearGradient4391" />
    <linearGradient
       inkscape:collect="always"
       x1="-98.593"
       y1="289.05"
       gradientTransform="matrix(0.71229,0,0,0.66532,290.9,24.882)"
       x2="-332.37"
       gradientUnits="userSpaceOnUse"
       xlink:href="#linearGradient21874"
       y2="246.84"
       id="linearGradient4394" />
    <linearGradient
       inkscape:collect="always"
       x1="53.321"
       y1="328.71"
       gradientTransform="matrix(0.71229,0,0,0.85994,272.63,-43.255)"
       x2="61.129"
       gradientUnits="userSpaceOnUse"
       spreadMethod="reflect"
       xlink:href="#linearGradient11326"
       y2="328.71"
       id="linearGradient4397" />
    <linearGradient
       inkscape:collect="always"
       x1="53.321"
       y1="328.71"
       gradientTransform="matrix(0.71229,0,0,0.66532,341.7,-16.289)"
       x2="61.129"
       gradientUnits="userSpaceOnUse"
       spreadMethod="reflect"
       xlink:href="#linearGradient11326"
       y2="328.71"
       id="linearGradient4400" />
    <linearGradient
       inkscape:collect="always"
       x1="185.75"
       y1="318.02"
       gradientTransform="matrix(0.45507,0,0,0.66532,193.28,-5.2095)"
       x2="187.57"
       gradientUnits="userSpaceOnUse"
       xlink:href="#linearGradient3220"
       y2="299.96"
       id="linearGradient4415" />
    <linearGradient
       inkscape:collect="always"
       x1="389.42"
       y1="225.05"
       gradientTransform="matrix(0.71229,0,0,0.66532,-34.819,-109.1)"
       x2="665.18"
       gradientUnits="userSpaceOnUse"
       y2="217.48"
       id="linearGradient4418">
      <stop
         offset="0"
         style="stop-color:#ffffff"
         id="stop11318" />
      <stop
         offset="1"
         style="stop-color:#ffffff;stop-opacity:0"
         id="stop11320" />
    </linearGradient>
    <linearGradient
       inkscape:collect="always"
       x1="-327.64"
       y1="274.21"
       gradientTransform="matrix(0.71229,0,0,0.66532,340.12,-15.34)"
       x2="-179.93"
       gradientUnits="userSpaceOnUse"
       y2="266.13"
       id="linearGradient4421">
      <stop
         offset="0"
         style="stop-color:#000000"
         id="stop8677" />
      <stop
         offset=".5"
         style="stop-color:#000000"
         id="stop8683" />
      <stop
         offset="1"
         style="stop-color:#ffffff"
         id="stop8679" />
    </linearGradient>
    <linearGradient
       inkscape:collect="always"
       x1="305.58"
       y1="343.24"
       gradientTransform="matrix(0.71229,0,0,0.66532,-34.819,-109.1)"
       x2="511.64"
       gradientUnits="userSpaceOnUse"
       y2="139.18"
       id="linearGradient4424">
      <stop
         offset="0"
         style="stop-color:#ffffff"
         id="stop10435" />
      <stop
         offset="1"
         style="stop-color:#ffffff;stop-opacity:0"
         id="stop10437" />
    </linearGradient>
    <linearGradient
       inkscape:collect="always"
       x1="-84.706"
       y1="290.29"
       gradientTransform="matrix(0.71229,0,0,0.66532,341.67,-17.856)"
       x2="-66.626"
       gradientUnits="userSpaceOnUse"
       spreadMethod="reflect"
       y2="286"
       id="linearGradient4427">
      <stop
         offset="0"
         style="stop-color:#000000"
         id="stop7772" />
      <stop
         offset="1"
         style="stop-color:#ffffff"
         id="stop7774" />
    </linearGradient>
    <linearGradient
       inkscape:collect="always"
       x1="72.357"
       y1="335.22"
       gradientTransform="matrix(0.71229,0,0,0.66532,-34.819,-109.1)"
       x2="567.57"
       gradientUnits="userSpaceOnUse"
       y2="325.22"
       id="linearGradient4430">
      <stop
         offset="0"
         style="stop-color:#e04422"
         id="stop19231" />
      <stop
         offset="1"
         style="stop-color:#6e1d05;stop-opacity:.28866"
         id="stop19233" />
    </linearGradient>
    <linearGradient
       inkscape:collect="always"
       x1="185.75"
       y1="318.02"
       gradientTransform="matrix(0.71229,0,0,0.66532,195.45,-30.492)"
       x2="187.57"
       gradientUnits="userSpaceOnUse"
       xlink:href="#linearGradient3220"
       y2="299.96"
       id="linearGradient4434" />
    <linearGradient
       inkscape:collect="always"
       x1="185.75"
       y1="318.02"
       gradientTransform="matrix(0.6077,0,0,0.66532,195.96,-18.516)"
       x2="187.57"
       gradientUnits="userSpaceOnUse"
       xlink:href="#linearGradient3220"
       y2="299.96"
       id="linearGradient4437" />
    <linearGradient
       inkscape:collect="always"
       x1="332.48"
       y1="503.81"
       gradientTransform="matrix(0.71229,0,0,0.66532,-34.819,-109.1)"
       x2="587.33"
       gradientUnits="userSpaceOnUse"
       xlink:href="#linearGradient3220"
       y2="372.53"
       id="linearGradient4440" />
    <filter
       inkscape:collect="always"
       style="color-interpolation-filters:sRGB"
       id="filter19606"
       x="-0.043578111"
       width="1.0871562"
       y="-0.053420611"
       height="1.1068412">
      <feGaussianBlur
         inkscape:collect="always"
         stdDeviation="1.5894016"
         id="feGaussianBlur19608" />
    </filter>
    <filter
       inkscape:collect="always"
       style="color-interpolation-filters:sRGB"
       id="filter19580"
       x="-0.050266236"
       width="1.1005325"
       y="-0.04592929"
       height="1.0918586">
      <feGaussianBlur
         inkscape:collect="always"
         stdDeviation="1.45759"
         id="feGaussianBlur19582" />
    </filter>
    <filter
       inkscape:collect="always"
       style="color-interpolation-filters:sRGB"
       id="filter19580-1"
       x="-0.050266236"
       width="1.1005325"
       y="-0.04592929"
       height="1.0918586">
      <feGaussianBlur
         inkscape:collect="always"
         stdDeviation="1.45759"
         id="feGaussianBlur19582-7" />
    </filter>
    <filter
       inkscape:collect="always"
       style="color-interpolation-filters:sRGB"
       id="filter19606-7"
       x="-0.043578111"
       width="1.0871562"
       y="-0.053420611"
       height="1.1068412">
      <feGaussianBlur
         inkscape:collect="always"
         stdDeviation="1.5894016"
         id="feGaussianBlur19608-6" />
    </filter>
  </defs>
  <sodipodi:namedview
     id="base"
     pagecolor="#ffffff"
     bordercolor="#666666"
     borderopacity="1.0"
     inkscape:pageopacity="0.0"
     inkscape:pageshadow="2"
     inkscape:zoom="0.3980278"
     inkscape:cx="366.3192"
     inkscape:cy="505.93848"
     inkscape:document-units="px"
     inkscape:current-layer="layer1"
     showgrid="false"
     inkscape:window-width="1120"
     inkscape:window-height="695"
     inkscape:window-x="50"
     inkscape:window-y="50"
     inkscape:window-maximized="0" />
  <metadata
     id="metadata7">
    <rdf:RDF>
      <cc:Work
         rdf:about="">
        <dc:format>image/svg+xml</dc:format>
        <dc:type
           rdf:resource="http://purl.org/dc/dcmitype/StillImage" />
        <dc:title />
      </cc:Work>
    </rdf:RDF>
  </metadata>
  <g
     inkscape:label="Layer 1"
     inkscape:groupmode="layer"
     id="layer1">
    <g
       id="g16688"
       inkscape:export-filename="C:\Users\jfinlay\AndroidStudioProjects\LittleFamily\LittleFamilyApp\src\main\res\drawable\stage.png"
       inkscape:export-xdpi="57.389999"
       inkscape:export-ydpi="57.389999">
      <path
         d="m -90.159463,867.82112 -11.450247,242.86388 0,32.4613 225.01972,0.8496 236.14787,0 244.04217,1.5932 0,-32.4162 -14.15191,-245.34475 -221.72326,0 -236.14788,0 z"
         inkscape:connector-curvature="0"
         style="fill:url(#linearGradient5981-2)"
         sodipodi:nodetypes="ccccccccccc"
         id="rect4633-6" />
      <path
         d="m -101.60972,1131.3651 0,18.3743 705.75592,0 0,-18.3743 z"
         inkscape:connector-curvature="0"
         style="fill:url(#linearGradient5983-1)"
         sodipodi:nodetypes="ccccc"
         id="rect4950-7" />
      <g
         transform="matrix(1.00197,0,0,1.0300899,0.1794742,-2.3311291)"
         id="g5463">
        <path
           id="path5365"
           sodipodi:nodetypes="acccca"
           style="fill:url(#linearGradient5905)"
           inkscape:connector-curvature="0"
           d="m 248.91682,889.07935 c -113.90196,4.9e-4 -253.2417966,-17.88977 -340.02218,-36.838 l 16.055979,-91.91495 647.880331,0 16.08288,91.91495 c -86.78125,18.94731 -226.10286,36.83709 -339.99614,36.838 z" />
        <g
           id="g5749"
           transform="matrix(0.86789061,0,0,-0.91167372,-1839.5644,1248.9899)">
          <path
             id="path5502"
             style="opacity:0.5;fill:url(#linearGradient4652)"
             inkscape:connector-curvature="0"
             d="m 2380.8,420.06 c -4.7327,0.0546 -9.4541,0.14407 -14.188,0.21875 l 7.8,101.72 63.938,0 7.8125,-101.59 c -21.795,-0.3057 -43.596,-0.43061 -65.375,-0.34375 z" />
          <path
             id="path5500"
             style="opacity:0.5;fill:url(#linearGradient5909)"
             inkscape:connector-curvature="0"
             d="m 2358,420.44 c -19.404,0.35802 -38.818,0.909 -58.219,1.6562 l 7.6875,99.906 60.656,0 -10.125,-101.56 z" />
          <path
             id="path5498"
             style="opacity:0.5;fill:url(#linearGradient5911)"
             inkscape:connector-curvature="0"
             d="m 2454.7,420.5 -10.125,101.5 60.656,0 7.7188,-99.906 c -19.405,-0.72181 -38.834,-1.2688 -58.25,-1.5938 z" />
          <path
             id="path5496"
             style="opacity:0.5;fill:url(#linearGradient5913)"
             inkscape:connector-curvature="0"
             d="m 2291.2,422.41 c -19.398,0.80992 -38.786,1.8498 -58.156,3.125 l 7.4063,96.469 60.687,0 -9.9374,-99.594 z" />
          <path
             id="path5494"
             style="opacity:0.5;fill:url(#linearGradient4654)"
             inkscape:connector-curvature="0"
             d="m 2521.5,422.41 -10,99.59 60.688,0 7.4062,-96.562 c -19.373,-1.2637 -38.75,-2.2455 -58.156,-3.0312 z" />
          <path
             id="path5492"
             style="opacity:0.5;fill:url(#linearGradient5917)"
             inkscape:connector-curvature="0"
             d="m 2588.1,426.03 -9.6,95.97 60.688,0 7,-91.125 c -19.345,-1.9022 -38.724,-3.5024 -58.125,-4.8438 z" />
          <path
             id="path5490"
             style="opacity:0.5;fill:url(#linearGradient4656)"
             inkscape:connector-curvature="0"
             d="m 2224.6,426.09 c -19.401,1.3507 -38.776,2.9497 -58.125,4.8438 l 7.0312,91.062 60.656,0 -9.5625,-95.906 z" />
          <path
             id="path5488"
             style="opacity:0.5;fill:url(#linearGradient5921)"
             inkscape:connector-curvature="0"
             d="m 2654.4,431.69 -9,90.312 60.688,0 6.4062,-83.344 c -19.324,-2.641 -38.691,-4.9742 -58.094,-6.9688 z" />
          <path
             id="path5486"
             style="opacity:0.5;fill:url(#linearGradient5923)"
             inkscape:connector-curvature="0"
             d="m 2158.2,431.78 c -19.399,1.9828 -38.77,4.2376 -58.094,6.8438 l 6.4063,83.375 60.688,0 -9,-90.219 z" />
          <path
             id="path5484"
             style="opacity:0.5;fill:url(#linearGradient5925)"
             inkscape:connector-curvature="0"
             d="m 2092.1,439.75 c -20.423,2.8536 -40.814,6.0487 -61.125,9.6875 4.5667,24.187 9.1291,48.374 13.687,72.562 l 55.625,0 -8.1874,-82.25 z" />
          <path
             id="path5405"
             style="opacity:0.5;fill:url(#linearGradient5907)"
             inkscape:connector-curvature="0"
             d="m 2720.6,439.75 -8.1876,82.25 55.563,0 c 4.5729,-24.125 9.1457,-48.25 13.719,-72.375 -20.315,-3.712 -40.665,-6.9802 -61.094,-9.875 z" />
        </g>
        <path
           id="path5619"
           style="opacity:0.31731005;fill:#2b1100;filter:url(#filter5642-8)"
           inkscape:connector-curvature="0"
           d="m 2041.4,514.94 0,15.469 729.88,0 0,-15.469 -729.88,0 z"
           transform="matrix(0.85348362,0,0,-1.2525485,-1804.9186,1426.1463)" />
        <path
           id="path5601"
           style="opacity:0.52404001;fill:url(#linearGradient5931)"
           inkscape:connector-curvature="0"
           d="M 248.91682,878.99624 C 136.8461,878.99672 1.1253762,862.26064 -89.612586,843.7254 l 0.433945,-2.47865 c 90.7379634,18.01558 226.207001,34.2452 338.095461,34.24428 111.88846,-4.8e-4 247.33146,-16.22961 338.06943,-34.24428 l 0.43394,2.5071 c -90.74664,18.5325 -226.45002,35.24166 -338.50337,35.24166 z" />
        <g
           id="g5734"
           transform="matrix(0.86789061,0,0,-0.91167372,-1839.578,1248.9899)">
          <path
             id="path5651"
             d="m 2400.3,439.43 2.5598,16.408 -5.9899,-15.487 -10.47,6.0411 10.393,12.901 -12.902,-10.393 -6.041,10.47 15.538,6.0155 -16.485,-2.5598 0,12.082 16.434,-2.5598 -15.487,5.9899 6.041,10.47 12.927,-10.418 -10.418,12.927 10.47,6.0411 5.9898,-15.435 -2.5598,16.357 12.082,0 -2.5598,-16.357 5.99,15.435 10.47,-6.0411 -10.418,-12.927 12.927,10.418 6.041,-10.47 -15.41,-5.9899 16.357,2.5598 0,-12.082 -16.536,2.5854 15.589,-6.0411 -6.041,-10.47 -12.902,10.393 10.393,-12.901 -10.47,-6.0411 -5.99,15.487 2.5598,-16.408 -12.082,0 z m 6.0411,17.56 c 6.5596,0 11.877,5.3177 11.877,11.877 0,6.5597 -5.3178,11.877 -11.877,11.877 -6.5597,0 -11.877,-5.3177 -11.877,-11.877 0,-6.5597 5.3177,-11.877 11.877,-11.877 z m 0,2.4574 c -5.2025,0 -9.42,4.2175 -9.42,9.42 0,5.2025 4.2175,9.42 9.42,9.42 5.2025,0 9.42,-4.2175 9.42,-9.42 0,-5.2025 -4.2175,-9.42 -9.42,-9.42 z"
             style="opacity:0.54808003;fill:#683a1c"
             inkscape:connector-curvature="0" />
          <g
             id="g5689">
            <path
               id="path5677"
               d="m 2328.6,443.67 2.0679,13.255 -4.8389,-12.511 -8.4577,4.8802 8.3958,10.422 -10.422,-8.3956 -4.8801,8.4576 12.552,4.8595 -13.317,-2.0679 0,9.7604 13.276,-2.0679 -12.511,4.8388 4.8801,8.4576 10.443,-8.4163 -8.4163,10.443 8.4577,4.8802 4.8388,-12.469 -2.0679,13.214 9.7604,0 -2.0679,-13.214 4.839,12.469 8.4576,-4.8802 -8.4164,-10.443 10.443,8.4163 4.8802,-8.4576 -12.449,-4.8388 13.214,2.0679 0,-9.7604 -13.358,2.0886 12.593,-4.8802 -4.8802,-8.4576 -10.422,8.3956 8.3958,-10.422 -8.4576,-4.8802 -4.839,12.511 2.0679,-13.255 -9.7604,0 z m 4.8802,14.186 c 5.2991,0 9.595,4.2958 9.595,9.595 0,5.2992 -4.2959,9.595 -9.595,9.595 -5.2992,0 -9.595,-4.2958 -9.595,-9.595 0,-5.2992 4.2958,-9.595 9.595,-9.595 z m 0,1.9852 c -4.2028,0 -7.6098,3.407 -7.6098,7.6098 0,4.2028 3.407,7.6098 7.6098,7.6098 4.2028,0 7.6098,-3.407 7.6098,-7.6098 0,-4.2028 -3.407,-7.6098 -7.6098,-7.6098 z"
               style="opacity:0.54808003;fill:#6e3d1f"
               inkscape:connector-curvature="0" />
            <path
               id="path5681"
               style="opacity:0.54808003;fill:#4f2912"
               inkscape:connector-curvature="0"
               d="m 2195.7,450.04 2.0679,13.255 -4.8389,-12.511 -8.4577,4.8802 8.3958,10.422 -10.422,-8.3956 -4.8801,8.4576 12.552,4.8595 -13.317,-2.0679 0,9.7604 13.276,-2.0679 -12.511,4.8388 4.8801,8.4576 10.443,-8.4163 -8.4163,10.443 8.4577,4.8802 4.8388,-12.469 -2.0679,13.214 9.7604,0 -2.0679,-13.214 4.839,12.469 8.4576,-4.8802 -8.4164,-10.443 10.443,8.4163 4.8802,-8.4576 -12.449,-4.8388 13.214,2.0679 0,-9.7604 -13.358,2.0886 12.593,-4.8802 -4.8802,-8.4576 -10.422,8.3956 8.3958,-10.422 -8.4576,-4.8802 -4.839,12.511 2.0679,-13.255 -9.7604,0 z m 4.8802,14.186 c 5.2991,0 9.595,4.2958 9.595,9.595 0,5.2992 -4.2959,9.595 -9.595,9.595 -5.2992,0 -9.595,-4.2958 -9.595,-9.595 0,-5.2992 4.2958,-9.595 9.595,-9.595 z m 0,1.9852 c -4.2028,0 -7.6098,3.407 -7.6098,7.6098 0,4.2028 3.407,7.6098 7.6098,7.6098 4.2028,0 7.6098,-3.407 7.6098,-7.6098 0,-4.2028 -3.407,-7.6098 -7.6098,-7.6098 z" />
            <path
               id="path5683"
               d="m 2262.9,446.5 2.0679,13.255 -4.8389,-12.511 -8.4577,4.8802 8.3958,10.422 -10.422,-8.3956 -4.8801,8.4576 12.552,4.8595 -13.317,-2.0679 0,9.7604 13.276,-2.0679 -12.511,4.8388 4.8801,8.4576 10.443,-8.4163 -8.4163,10.443 8.4577,4.8802 4.8388,-12.469 -2.0679,13.214 9.7604,0 -2.0679,-13.214 4.839,12.469 8.4576,-4.8802 -8.4164,-10.443 10.443,8.4163 4.8802,-8.4576 -12.449,-4.8388 13.214,2.0679 0,-9.7604 -13.358,2.0886 12.593,-4.8802 -4.8802,-8.4576 -10.422,8.3956 8.3958,-10.422 -8.4576,-4.8802 -4.839,12.511 2.0679,-13.255 -9.7604,0 z m 4.8802,14.186 c 5.2991,0 9.595,4.2958 9.595,9.595 0,5.2992 -4.2959,9.595 -9.595,9.595 -5.2992,0 -9.595,-4.2958 -9.595,-9.595 0,-5.2992 4.2958,-9.595 9.595,-9.595 z m 0,1.9852 c -4.2028,0 -7.6098,3.407 -7.6098,7.6098 0,4.2028 3.407,7.6098 7.6098,7.6098 4.2028,0 7.6098,-3.407 7.6098,-7.6098 0,-4.2028 -3.407,-7.6098 -7.6098,-7.6098 z"
               style="opacity:0.54808003;fill:#7c3114"
               inkscape:connector-curvature="0" />
            <path
               id="path5685"
               d="m 2062.8,459.23 2.0679,13.255 -4.8389,-12.511 -8.4577,4.8802 8.3958,10.422 -10.422,-8.3956 -4.8801,8.4576 12.552,4.8595 -13.317,-2.0679 0,9.7604 13.276,-2.0679 -12.511,4.8388 4.8801,8.4576 10.443,-8.4163 -8.4163,10.443 8.4577,4.8802 4.8388,-12.469 -2.0679,13.214 9.7604,0 -2.0679,-13.214 4.839,12.469 8.4576,-4.8802 -8.4164,-10.443 10.443,8.4163 4.8802,-8.4576 -12.449,-4.8388 13.214,2.0679 0,-9.7604 -13.358,2.0886 12.593,-4.8802 -4.8802,-8.4576 -10.422,8.3956 8.3958,-10.422 -8.4576,-4.8802 -4.839,12.511 2.0679,-13.255 -9.7604,0 z m 4.8802,14.186 c 5.2991,0 9.595,4.2958 9.595,9.595 0,5.2992 -4.2959,9.595 -9.595,9.595 -5.2992,0 -9.595,-4.2958 -9.595,-9.595 0,-5.2992 4.2958,-9.595 9.595,-9.595 z m 0,1.9852 c -4.2028,0 -7.6098,3.407 -7.6098,7.6098 0,4.2028 3.407,7.6098 7.6098,7.6098 4.2028,0 7.6098,-3.407 7.6098,-7.6098 0,-4.2028 -3.407,-7.6098 -7.6098,-7.6098 z"
               style="opacity:0.54808003;fill:#6e3d1f"
               inkscape:connector-curvature="0" />
            <path
               id="path5687"
               style="opacity:0.54808003;fill:#874e2a"
               inkscape:connector-curvature="0"
               d="m 2128.5,454.28 2.0679,13.255 -4.8389,-12.511 -8.4577,4.8802 8.3958,10.422 -10.422,-8.3956 -4.8801,8.4576 12.552,4.8595 -13.317,-2.0679 0,9.7604 13.276,-2.0679 -12.511,4.8388 4.8801,8.4576 10.443,-8.4163 -8.4163,10.443 8.4577,4.8802 4.8388,-12.469 -2.0679,13.214 9.7604,0 -2.0679,-13.214 4.839,12.469 8.4576,-4.8802 -8.4164,-10.443 10.443,8.4163 4.8802,-8.4576 -12.449,-4.8388 13.214,2.0679 0,-9.7604 -13.358,2.0886 12.593,-4.8802 -4.8802,-8.4576 -10.422,8.3956 8.3958,-10.422 -8.4576,-4.8802 -4.839,12.511 2.0679,-13.255 -9.7604,0 z m 4.8802,14.186 c 5.2991,0 9.595,4.2958 9.595,9.595 0,5.2992 -4.2959,9.595 -9.595,9.595 -5.2992,0 -9.595,-4.2958 -9.595,-9.595 0,-5.2992 4.2958,-9.595 9.595,-9.595 z m 0,1.9852 c -4.2028,0 -7.6098,3.407 -7.6098,7.6098 0,4.2028 3.407,7.6098 7.6098,7.6098 4.2028,0 7.6098,-3.407 7.6098,-7.6098 0,-4.2028 -3.407,-7.6098 -7.6098,-7.6098 z" />
          </g>
          <g
             id="g5696"
             transform="matrix(-1,0,0,1,4812.7,0)">
            <path
               id="path5698"
               style="opacity:0.54808003;fill:#6e3d1f"
               inkscape:connector-curvature="0"
               d="m 2328.6,443.67 2.0679,13.255 -4.8389,-12.511 -8.4577,4.8802 8.3958,10.422 -10.422,-8.3956 -4.8801,8.4576 12.552,4.8595 -13.317,-2.0679 0,9.7604 13.276,-2.0679 -12.511,4.8388 4.8801,8.4576 10.443,-8.4163 -8.4163,10.443 8.4577,4.8802 4.8388,-12.469 -2.0679,13.214 9.7604,0 -2.0679,-13.214 4.839,12.469 8.4576,-4.8802 -8.4164,-10.443 10.443,8.4163 4.8802,-8.4576 -12.449,-4.8388 13.214,2.0679 0,-9.7604 -13.358,2.0886 12.593,-4.8802 -4.8802,-8.4576 -10.422,8.3956 8.3958,-10.422 -8.4576,-4.8802 -4.839,12.511 2.0679,-13.255 -9.7604,0 z m 4.8802,14.186 c 5.2991,0 9.595,4.2958 9.595,9.595 0,5.2992 -4.2959,9.595 -9.595,9.595 -5.2992,0 -9.595,-4.2958 -9.595,-9.595 0,-5.2992 4.2958,-9.595 9.595,-9.595 z m 0,1.9852 c -4.2028,0 -7.6098,3.407 -7.6098,7.6098 0,4.2028 3.407,7.6098 7.6098,7.6098 4.2028,0 7.6098,-3.407 7.6098,-7.6098 0,-4.2028 -3.407,-7.6098 -7.6098,-7.6098 z" />
            <path
               id="path5700"
               d="m 2195.7,450.04 2.0679,13.255 -4.8389,-12.511 -8.4577,4.8802 8.3958,10.422 -10.422,-8.3956 -4.8801,8.4576 12.552,4.8595 -13.317,-2.0679 0,9.7604 13.276,-2.0679 -12.511,4.8388 4.8801,8.4576 10.443,-8.4163 -8.4163,10.443 8.4577,4.8802 4.8388,-12.469 -2.0679,13.214 9.7604,0 -2.0679,-13.214 4.839,12.469 8.4576,-4.8802 -8.4164,-10.443 10.443,8.4163 4.8802,-8.4576 -12.449,-4.8388 13.214,2.0679 0,-9.7604 -13.358,2.0886 12.593,-4.8802 -4.8802,-8.4576 -10.422,8.3956 8.3958,-10.422 -8.4576,-4.8802 -4.839,12.511 2.0679,-13.255 -9.7604,0 z m 4.8802,14.186 c 5.2991,0 9.595,4.2958 9.595,9.595 0,5.2992 -4.2959,9.595 -9.595,9.595 -5.2992,0 -9.595,-4.2958 -9.595,-9.595 0,-5.2992 4.2958,-9.595 9.595,-9.595 z m 0,1.9852 c -4.2028,0 -7.6098,3.407 -7.6098,7.6098 0,4.2028 3.407,7.6098 7.6098,7.6098 4.2028,0 7.6098,-3.407 7.6098,-7.6098 0,-4.2028 -3.407,-7.6098 -7.6098,-7.6098 z"
               style="opacity:0.54808003;fill:#844b28"
               inkscape:connector-curvature="0" />
            <path
               id="path5702"
               style="opacity:0.54808003;fill:#291102;fill-opacity:0.17551"
               inkscape:connector-curvature="0"
               d="m 2262.9,446.5 2.0679,13.255 -4.8389,-12.511 -8.4577,4.8802 8.3958,10.422 -10.422,-8.3956 -4.8801,8.4576 12.552,4.8595 -13.317,-2.0679 0,9.7604 13.276,-2.0679 -12.511,4.8388 4.8801,8.4576 10.443,-8.4163 -8.4163,10.443 8.4577,4.8802 4.8388,-12.469 -2.0679,13.214 9.7604,0 -2.0679,-13.214 4.839,12.469 8.4576,-4.8802 -8.4164,-10.443 10.443,8.4163 4.8802,-8.4576 -12.449,-4.8388 13.214,2.0679 0,-9.7604 -13.358,2.0886 12.593,-4.8802 -4.8802,-8.4576 -10.422,8.3956 8.3958,-10.422 -8.4576,-4.8802 -4.839,12.511 2.0679,-13.255 -9.7604,0 z m 4.8802,14.186 c 5.2991,0 9.595,4.2958 9.595,9.595 0,5.2992 -4.2959,9.595 -9.595,9.595 -5.2992,0 -9.595,-4.2958 -9.595,-9.595 0,-5.2992 4.2958,-9.595 9.595,-9.595 z m 0,1.9852 c -4.2028,0 -7.6098,3.407 -7.6098,7.6098 0,4.2028 3.407,7.6098 7.6098,7.6098 4.2028,0 7.6098,-3.407 7.6098,-7.6098 0,-4.2028 -3.407,-7.6098 -7.6098,-7.6098 z" />
            <path
               id="path5704"
               style="opacity:0.54808003;fill:#44200a"
               inkscape:connector-curvature="0"
               d="m 2062.8,459.23 2.0679,13.255 -4.8389,-12.511 -8.4577,4.8802 8.3958,10.422 -10.422,-8.3956 -4.8801,8.4576 12.552,4.8595 -13.317,-2.0679 0,9.7604 13.276,-2.0679 -12.511,4.8388 4.8801,8.4576 10.443,-8.4163 -8.4163,10.443 8.4577,4.8802 4.8388,-12.469 -2.0679,13.214 9.7604,0 -2.0679,-13.214 4.839,12.469 8.4576,-4.8802 -8.4164,-10.443 10.443,8.4163 4.8802,-8.4576 -12.449,-4.8388 13.214,2.0679 0,-9.7604 -13.358,2.0886 12.593,-4.8802 -4.8802,-8.4576 -10.422,8.3956 8.3958,-10.422 -8.4576,-4.8802 -4.839,12.511 2.0679,-13.255 -9.7604,0 z m 4.8802,14.186 c 5.2991,0 9.595,4.2958 9.595,9.595 0,5.2992 -4.2959,9.595 -9.595,9.595 -5.2992,0 -9.595,-4.2958 -9.595,-9.595 0,-5.2992 4.2958,-9.595 9.595,-9.595 z m 0,1.9852 c -4.2028,0 -7.6098,3.407 -7.6098,7.6098 0,4.2028 3.407,7.6098 7.6098,7.6098 4.2028,0 7.6098,-3.407 7.6098,-7.6098 0,-4.2028 -3.407,-7.6098 -7.6098,-7.6098 z" />
            <path
               id="path5706"
               d="m 2128.5,454.28 2.0679,13.255 -4.8389,-12.511 -8.4577,4.8802 8.3958,10.422 -10.422,-8.3956 -4.8801,8.4576 12.552,4.8595 -13.317,-2.0679 0,9.7604 13.276,-2.0679 -12.511,4.8388 4.8801,8.4576 10.443,-8.4163 -8.4163,10.443 8.4577,4.8802 4.8388,-12.469 -2.0679,13.214 9.7604,0 -2.0679,-13.214 4.839,12.469 8.4576,-4.8802 -8.4164,-10.443 10.443,8.4163 4.8802,-8.4576 -12.449,-4.8388 13.214,2.0679 0,-9.7604 -13.358,2.0886 12.593,-4.8802 -4.8802,-8.4576 -10.422,8.3956 8.3958,-10.422 -8.4576,-4.8802 -4.839,12.511 2.0679,-13.255 -9.7604,0 z m 4.8802,14.186 c 5.2991,0 9.595,4.2958 9.595,9.595 0,5.2992 -4.2959,9.595 -9.595,9.595 -5.2992,0 -9.595,-4.2958 -9.595,-9.595 0,-5.2992 4.2958,-9.595 9.595,-9.595 z m 0,1.9852 c -4.2028,0 -7.6098,3.407 -7.6098,7.6098 0,4.2028 3.407,7.6098 7.6098,7.6098 4.2028,0 7.6098,-3.407 7.6098,-7.6098 0,-4.2028 -3.407,-7.6098 -7.6098,-7.6098 z"
               style="opacity:0.54808003;fill:#874d2a"
               inkscape:connector-curvature="0" />
          </g>
        </g>
        <path
           id="path5805"
           style="opacity:0.49038002;fill:url(#linearGradient6128);filter:url(#filter5826)"
           inkscape:connector-curvature="0"
           d="m 2057,533.34 c -0.8947,1.4005 -1.375,2.8177 -1.375,4.25 0,26.556 157.02,48.062 350.72,48.062 193.7,0 350.72,-21.507 350.72,-48.062 0,-1.4295 -0.4838,-2.8522 -1.375,-4.25 l -698.69,0 z"
           transform="matrix(0.81916258,0,0,-0.77032,-1722.3487,1216.7331)" />
      </g>
      <path
         id="rect4811"
         sodipodi:nodetypes="ccccc"
         style="fill:url(#radialGradient6126)"
         inkscape:connector-curvature="0"
         d="m -48.067596,47.095349 596.378476,0 0,669.881781 -596.378476,0 z" />
      <path
         id="path5985"
         d="m 135.90117,94.522614 -30.96986,0 21.34466,622.454516 11.72853,0 21.48883,0 z m -121.009102,0 1.164779,0 75.465913,622.454516 17.52523,0 2.60037,0 L 59.83227,94.522614 Z m 229.132972,0 0.13546,0 -10.58748,622.454516 48.21167,0 -14.19352,-622.454516 z m -52.5765,0 -1.00232,0 -34.10301,622.454516 43.52967,0 26.74096,-622.454516 z m 146.40881,0 -49.19124,0 24.48687,622.454516 c 22.48983,3.33504 124.9554,5.24968 67.46949,0 L 338.56094,94.522614 Z m 99.0861,0 0.56887,0 20.11052,622.454516 27.69746,0 -23.99832,-622.454516 z m -7.82827,0 -37.83595,0 3.27939,622.454516 23.89205,0 10.09562,-622.454516 z"
         sodipodi:nodetypes="ccccccccccccccccccccccccccccccccccccccccccc"
         style="opacity:0.23153998;fill:url(#linearGradient6123)"
         inkscape:connector-curvature="0" />
      <path
         id="rect5344"
         sodipodi:nodetypes="sccccs"
         d="m 250.08868,320.16997 c -132.52672,0 -246.6565559,124.98895 -298.189231,304.78242 l 0,92.0318 596.378461,0 0,-92.0318 C 496.70405,445.16175 382.59892,320.16997 250.03925,320.16997 Z"
         style="opacity:0.26442003;fill:url(#linearGradient6120)"
         inkscape:connector-curvature="0" />
      <path
         id="path5649"
         style="opacity:0.31731005;fill:#2b1100;filter:url(#filter5642)"
         inkscape:connector-curvature="0"
         d="m 2041.4,514.94 0,15.469 729.88,0 0,-15.469 -729.88,0 z"
         transform="matrix(0.82293286,0,0,0.86538987,-1731.2059,334.50217)" />
      <g
         transform="matrix(1,0,0,1.250267,0,-170.04937)"
         id="g16041">
        <path
           id="rect4633"
           sodipodi:nodetypes="ccccccccccc"
           style="fill:url(#linearGradient5981)"
           inkscape:connector-curvature="0"
           d="m -55.665535,655.5414 -22.117354,89.54622 1.894499,16.65502 221.75972,0 206.56901,0 221.78283,0 0,-19.66106 -20.24982,-81.94377 -201.52916,-1.52939 -206.56901,0 z" />
        <path
           id="rect4950"
           sodipodi:nodetypes="ccccc"
           style="fill:url(#linearGradient5983)"
           inkscape:connector-curvature="0"
           d="m -75.88839,743.89895 0,17.83753 650.10386,0 0,-17.83753 z" />
      </g>
      <g
         transform="matrix(0.83468118,0,0,1.5234169,-294.29461,-491.58409)"
         id="g4606">
        <g
           transform="translate(6.0728,-8.4406e-7)"
           id="g4480">
          <g
             transform="matrix(-1,0,0,1,1284.4,0)"
             id="g4444">
            <g
               transform="matrix(0.99268,0,0,1,1.9681,0)"
               id="g4446">
              <path
                 d="m 268.85,769.21 118.74,0 c 0.78321,-6.8336 1.2075,-13.813 1.2075,-20.906 0,-81.285 1.5644,-347.43 -119.94,-347.43 z"
                 style="fill:url(#linearGradient4638)"
                 inkscape:connector-curvature="0"
                 sodipodi:nodetypes="ccscc"
                 id="path4448" />
              <path
                 d="m 268.84,496.91 0,272.31 27.875,0 0,-272.31 -27.875,0 z m 47.375,0 0,272.31 29.531,0 0,-272.31 -29.531,0 z m 49.031,8.6562 0,263.66 22.344,0 c 0.78321,-6.8336 1.1875,-13.813 1.1875,-20.906 0,-47.667 0.52633,-158.89 -23.531,-242.75 z"
                 inkscape:connector-curvature="0"
                 style="opacity:0.28365;fill:url(#linearGradient4640)"
                 id="path4450" />
              <path
                 inkscape:connector-curvature="0"
                 style="fill:url(#linearGradient4642)"
                 sodipodi:nodetypes="ccsccscc"
                 d="m 268.84,400.88 0,5.3438 c 112.6,9.9755 112.38,263.78 112.38,342.38 0,6.9959 0.84229,13.885 0.0714,20.625 l 8.8125,0 c 0.78321,-6.8336 -0.0714,-13.813 -0.0714,-20.906 0,-81.285 0.31083,-347.44 -121.2,-347.44 z"
                 id="path4452" />
            </g>
            <g
               transform="matrix(1,0,0,0.99747,0,0.80075)"
               id="g4454">
              <path
                 d="m 268.85,317.09 0,174.48 c 10.795,1.1509 21.82,1.7744 33.025,1.7744 128.4,0 233.23,-78.109 239.47,-176.25 l -272.49,0 z"
                 inkscape:connector-curvature="0"
                 style="fill:url(#linearGradient4644)"
                 id="path4456" />
              <path
                 d="m 270.78,317.09 -1.9375,3.9375 0,66.688 34.844,-70.625 -32.906,0 z m 54.688,0 -56.625,114.81 0,59.656 c 1.0893,0.11614 2.1873,0.2072 3.2812,0.3125 l 86.219,-174.78 -32.875,0 z m 54.625,0 -86.875,176.12 c 2.871,0.0816 5.7605,0.125 8.6562,0.125 8.3358,0 16.571,-0.32625 24.688,-0.96875 l 86.469,-175.28 -32.938,0 z m 54.688,0 -85.156,172.56 c 12.715,-1.9884 25.07,-4.7404 36.969,-8.2188 l 81.062,-164.34 -32.875,0 z m 54.688,0 -76.6,155.22 c 15.925,-6.4478 30.775,-14.246 44.344,-23.188 l 65.125,-132.03 -32.875,0 z m 51.25,6.8125 -46.906,95.125 c 26.134,-26.962 42.967,-59.622 46.906,-95.125 z"
                 inkscape:connector-curvature="0"
                 style="opacity:0.28365;fill:url(#linearGradient6138)"
                 id="path4458" />
              <path
                 d="m 539.24,317.09 c -10.349,96.128 -114.75,171.69 -242.03,171.69 -9.5931,0 -19.062,-0.45155 -28.366,-1.2942 l 0,5.8398 c 10.936,1.1626 22.112,1.7993 33.463,1.7993 130.08,0 236.28,-78.896 242.6,-178.03 l -5.6668,0 z"
                 inkscape:connector-curvature="0"
                 style="fill:url(#linearGradient4646)"
                 id="path4460" />
            </g>
            <path
               d="m 268.84,462.56 0,39.625 c 0,0 31.444,11.613 47.405,16.707 18.76,5.99 56.76,16.27 56.76,16.27 l 15.998,-51.833 c 0,0 -44.169,-6.9965 -66.197,-10.825 -18.018,-3.1318 -53.957,-9.9352 -53.957,-9.9352 z"
               inkscape:connector-curvature="0"
               style="fill:url(#linearGradient4648);stroke:url(#linearGradient4650)"
               sodipodi:nodetypes="ccaccac"
               id="path4462" />
          </g>
          <g
             transform="translate(4.6922,0)"
             id="g4181">
            <g
               transform="matrix(0.99268,0,0,1,1.9681,0)"
               id="g4170">
              <path
                 inkscape:connector-curvature="0"
                 style="fill:url(#linearGradient6130)"
                 d="m 268.85,769.21 118.74,0 c 0.78321,-6.8336 1.2075,-13.813 1.2075,-20.906 0,-81.285 1.5644,-347.43 -119.94,-347.43 z"
                 sodipodi:nodetypes="ccscc"
                 id="path3918" />
              <path
                 d="m 268.84,496.91 0,272.31 27.875,0 0,-272.31 -27.875,0 z m 47.375,0 0,272.31 29.531,0 0,-272.31 -29.531,0 z m 49.031,8.6562 0,263.66 22.344,0 c 0.78321,-6.8336 1.1875,-13.813 1.1875,-20.906 0,-47.667 0.52633,-158.89 -23.531,-242.75 z"
                 inkscape:connector-curvature="0"
                 style="opacity:0.28365;fill:url(#linearGradient6132)"
                 id="path4042" />
              <path
                 d="m 268.84,400.88 0,5.3438 c 112.6,9.9755 112.38,263.78 112.38,342.38 0,6.9959 0.84229,13.885 0.0714,20.625 l 8.8125,0 c 0.78321,-6.8336 -0.0714,-13.813 -0.0714,-20.906 0,-81.285 0.31083,-347.44 -121.2,-347.44 z"
                 inkscape:connector-curvature="0"
                 style="fill:url(#linearGradient6134)"
                 sodipodi:nodetypes="ccsccscc"
                 id="path4141" />
            </g>
            <g
               transform="matrix(1,0,0,0.99747,0,0.80075)"
               id="g4102">
              <path
                 d="m 268.85,317.09 0,174.48 c 10.795,1.1509 21.82,1.7744 33.025,1.7744 128.4,0 233.23,-78.109 239.47,-176.25 l -272.49,0 z"
                 inkscape:connector-curvature="0"
                 style="fill:url(#linearGradient6136)"
                 id="path3912" />
              <path
                 d="m 270.78,317.09 -1.9375,3.9375 0,66.688 34.844,-70.625 -32.906,0 z m 54.688,0 -56.625,114.81 0,59.656 c 1.0893,0.11614 2.1873,0.2072 3.2812,0.3125 l 86.219,-174.78 -32.875,0 z m 54.625,0 -86.875,176.12 c 2.871,0.0816 5.7605,0.125 8.6562,0.125 8.3358,0 16.571,-0.32625 24.688,-0.96875 l 86.469,-175.28 -32.938,0 z m 54.688,0 -85.156,172.56 c 12.715,-1.9884 25.07,-4.7404 36.969,-8.2188 l 81.062,-164.34 -32.875,0 z m 54.688,0 -76.6,155.22 c 15.925,-6.4478 30.775,-14.246 44.344,-23.188 l 65.125,-132.03 -32.875,0 z m 51.25,6.8125 -46.906,95.125 c 26.134,-26.962 42.967,-59.622 46.906,-95.125 z"
                 inkscape:connector-curvature="0"
                 style="opacity:0.28365;fill:url(#linearGradient6154)"
                 id="path4051" />
              <path
                 inkscape:connector-curvature="0"
                 style="fill:url(#linearGradient6140)"
                 d="m 539.24,317.09 c -10.349,96.128 -114.75,171.69 -242.03,171.69 -9.5931,0 -19.062,-0.45155 -28.366,-1.2942 l 0,5.8398 c 10.936,1.1626 22.112,1.7993 33.463,1.7993 130.08,0 236.28,-78.896 242.6,-178.03 l -5.6668,0 z"
                 id="path4093" />
            </g>
            <path
               inkscape:connector-curvature="0"
               style="fill:url(#linearGradient6142);stroke:url(#linearGradient6144)"
               sodipodi:nodetypes="ccaccac"
               d="m 268.84,462.56 0,39.625 c 0,0 31.444,11.613 47.405,16.707 18.76,5.99 56.76,16.27 56.76,16.27 l 15.998,-51.833 c 0,0 -44.169,-6.9965 -66.197,-10.825 -18.018,-3.1318 -53.957,-9.9352 -53.957,-9.9352 z"
               id="path4023" />
          </g>
        </g>
        <g
           id="g4534">
          <path
             d="m 380.41,317.09 c 7.0332,56.012 125.28,100.59 270.18,100.59 144.9,0 263.2,-44.579 270.23,-100.59 l -540.41,0 z"
             inkscape:connector-curvature="0"
             style="fill:url(#linearGradient6162)"
             id="path3102" />
          <path
             d="m 390.76,317.09 0,24.219 c 6.8585,9.2654 16.835,18.001 29.505,26.031 l 0,-50.25 -29.505,0 z m 49.021,0 0,61.062 c 9.0004,4.3754 18.866,8.4557 29.505,12.219 l 0,-73.281 -29.505,0 z m 49.021,0 0,79.562 c 9.3788,2.7431 19.242,5.2439 29.505,7.5 l 0,-87.062 -29.505,0 z m 49.021,0 0,90.938 c 9.555,1.7176 19.39,3.252 29.505,4.5312 l 0,-95.469 -29.505,0 z m 49.021,0 0,97.625 c 9.647,0.91214 19.485,1.6297 29.505,2.125 l 0,-99.75 -29.505,0 z m 49.021,0 0,100.41 c 4.8791,0.1025 9.7888,0.15625 14.733,0.15625 4.96,0 9.8776,-0.0531 14.772,-0.15625 l 0,-100.41 -29.505,0 z m 49.021,0 0,99.75 c 10.019,-0.49586 19.859,-1.2124 29.505,-2.125 l 0,-97.625 -29.505,0 z m 49.021,0 0,95.469 c 10.109,-1.2794 19.956,-2.8142 29.505,-4.5312 l 0,-90.938 -29.505,0 z m 49.021,0 0,87.062 c 10.276,-2.2595 20.115,-4.7837 29.505,-7.5312 l 0,-79.531 -29.505,0 z m 49.021,0 0,73.25 c 10.636,-3.7623 20.508,-7.8447 29.505,-12.219 l 0,-61.031 -29.505,0 z m 49.021,0 0,50.219 c 12.655,-8.0225 22.652,-16.745 29.505,-26 l 0,-24.219 -29.505,0 z"
             inkscape:connector-curvature="0"
             style="opacity:0.28365;fill:url(#linearGradient6164)"
             id="rect3946" />
          <path
             d="m 380.42,317.09 c 7.0332,57.063 125.28,102.45 270.18,102.45 144.9,0 263.18,-45.388 270.21,-102.45 l -8.5623,0 c -15.795,53.387 -126.93,94.778 -261.65,94.778 -134.72,0 -245.82,-41.392 -261.61,-94.778 l -8.5623,0 z"
             inkscape:connector-curvature="0"
             style="fill:url(#linearGradient6166)"
             id="path3985" />
        </g>
      </g>
      <path
         d="m -68.744716,-11.472741 633.289306,0 0,28.196658 -633.289306,0 z"
         inkscape:connector-curvature="0"
         style="fill:url(#linearGradient5929)"
         id="rect5325" />
    </g>
    <g
       transform="matrix(0.5785841,0,0,0.5785841,347.45631,874.82961)"
       inkscape:label="highlights"
       id="layer3"
       inkscape:export-filename="C:\Users\jfinlay\AndroidStudioProjects\LittleFamily\LittleFamilyApp\src\main\res\drawable\piano.png"
       inkscape:export-xdpi="57.389999"
       inkscape:export-ydpi="57.389999">
      <path
         d="m 349.28,37.52 -84.87,1.092 -107.54,98.258 -14.02,2.19 c 0,0 -6.09,-2.7 -10.9,0.31 -4.81,3.01 -2.79,3.82 -8.35,11.74 -5.55,7.91 -4.13,16.06 -16.99,15.24 -12.855,-0.82 -45.583,4.37 -45.583,4.37 0,0 5.592,19.5 1.169,26.2 -12.818,19.42 -23.891,7.99 -28.097,15.87 -1.208,2.26 -4.485,9.89 -4.631,16.89 -0.124,5.96 -0.08,6.7 3.507,8.73 15.353,8.67 58.443,25.11 58.443,25.11 0,0 3.763,54.21 6.012,74.51 0.396,3.58 9.64,6.43 11.52,1.92 7.14,-17.19 3.51,-69.72 3.51,-69.72 l 47.04,21.76 -1.46,4.28 0,60.05 -9.35,2.19 -1.17,8.73 26.89,14.19 c 0,0 9.26,3.12 12.77,-0.42 3.51,-3.55 1.25,-13.77 1.25,-13.77 0,0 -0.75,11.36 -2.12,-5.89 -3.88,-7.29 -3.96,-40.15 -3.39,-63.09 9.97,-8.89 20.71,-5.26 20.71,-5.26 l 6.84,11.23 c 0,0 4.55,76.81 5.01,92.25 4.97,8.15 17.37,3.51 17.37,3.51 l 5.84,-94.98 c 0,0 5.85,-10.92 14.03,-14.19 8.18,-3.28 14.03,-4.37 14.03,-4.37 l -1.17,-2.19 40.91,-5.45 c 0,0 -1.17,-6.56 3.5,-12.01 4.68,-5.46 8.06,-4.87 9.02,-3.04 7.42,14.14 7.35,64.18 7.35,64.18 l 9.18,4.09 8.35,-4.09 3.51,-79.7 4.67,-7.65 25.72,-6.55 6.22,-15.01 0.79,-45.04 -143.77,-9.82 49.64,-12.95 c 0,0 64.91,-23.08 74.26,-35.09 9.35,-12.01 19.87,-21.837 9.35,-26.204 -10.52,-4.367 -46.6,-13.512 -63.12,-19.652 18.76,-11.231 39.29,-31.662 38.12,-32.754 z"
         style="fill:#000000;fill-rule:evenodd;stroke:#000000;stroke-width:0.68839997px"
         sodipodi:nodetypes="ccccssscsssscsscccccccsccccccccscccssccccccccccsscc"
         id="path3105"
         inkscape:connector-curvature="0" />
      <path
         d="m 103.82,171.56 114.14,37.54 96.57,-5.95 c 0,0 5.63,-0.58 6.26,-4.68 0.63,-4.09 5.01,-9.36 12.53,-11.7 7.51,-2.34 49.48,-9.36 50.11,-11.7 0.62,-2.34 -1.88,-6.44 -1.88,-6.44 0,0 -41.34,-13.45 -88.95,-12.87 -47.6,0.59 -98.58,5.27 -188.78,15.8 z"
         style="fill:url(#linearGradient4440);fill-rule:evenodd"
         sodipodi:nodetypes="cccssscsc"
         id="path2229"
         inkscape:connector-curvature="0" />
      <path
         d="m 202.94,180.51 106.21,0.55 c 0,0 15.45,4.91 15.45,9.28 0,4.36 -4.48,-2.19 -13.46,-1.64 -8.97,0.54 -96.73,4.37 -100.72,4.37 -3.99,0 -11.47,-2.73 -11.47,-2.73 l 3.99,-9.83 z"
         style="fill:url(#linearGradient4437);fill-rule:evenodd"
         sodipodi:nodetypes="ccssscc"
         id="path4131"
         inkscape:connector-curvature="0" />
      <path
         d="m 203.63,168.53 124.48,0.55 c 0,0 18.12,4.91 18.12,9.28 0,4.37 -5.26,-2.18 -15.78,-1.64 -10.52,0.55 -113.38,4.37 -118.06,4.37 -4.67,0 -13.44,-2.73 -13.44,-2.73 l 4.68,-9.83 z"
         style="fill:url(#linearGradient4434);fill-rule:evenodd"
         sodipodi:nodetypes="ccssscc"
         id="path3248"
         inkscape:connector-curvature="0" />
      <path
         d="m 98.423,216.61 c 0,0 -53.485,0.02 -55.747,2.34 -1.056,1.08 1.879,6.14 1.879,6.14 l 112.74,43.88 c 0,0 -0.94,-2.19 0,-4.97 0.94,-2.78 3.76,-4.68 3.76,-4.68 0,0 18.17,-1.9 25.68,-4.1 7.52,-2.19 4.39,-4.68 4.39,-4.68 L 98.418,216.61 Z"
         style="fill:#ffffff;fill-rule:evenodd"
         sodipodi:nodetypes="csccsczcc"
         id="path4855"
         inkscape:connector-curvature="0" />
      <path
         d="m 336.59,44.544 -65.13,0 -115.24,97.266 61.66,11.13 c 0,0 64.4,-4.49 90.91,-15.8 26.34,-11.24 25.8,-20.28 29.83,-48.875 1.85,-13.124 -47.82,-19.959 -46.81,-25.662 1.02,-5.703 41.72,-15.207 44.78,-18.059 z"
         style="fill:url(#linearGradient4430);fill-rule:evenodd"
         sodipodi:nodetypes="ccccsssc"
         id="path7780"
         inkscape:connector-curvature="0" />
      <path
         d="M 293.74,205.2 260.68,69.32 302,205.2 l -8.26,0 z"
         style="fill:url(#linearGradient4427);fill-rule:evenodd;stroke:#000000;stroke-width:0.68839997px"
         id="path6895"
         inkscape:connector-curvature="0" />
      <path
         d="m 268.82,46.677 -105.77,94.763 -20.87,-0.67 c 0,0 23.03,-7.4 23.03,-10.08 0,-2.69 100.01,-91.406 100.01,-91.406 l 3.6,7.393 z"
         style="fill:url(#linearGradient4424);fill-rule:evenodd;stroke:#000000;stroke-width:0.68839997px"
         id="path9558"
         inkscape:connector-curvature="0" />
      <path
         d="M 193.28,202.28 99.57,172.31 c 0,0 22.79,-13.1 23.81,-20.7 1.02,-7.6 3.05,-20.91 9.16,-18.06 6.1,2.85 -2.31,4.54 7.86,3.59 10.18,-0.95 32.84,-2.64 39.96,5.92 7.13,8.55 13.76,7.99 23.41,7.6 9.15,-0.37 -0.77,16.38 -3.5,29.8 -1.39,12.74 -6.99,21.82 -6.99,21.82 z"
         style="fill:url(#linearGradient4421);fill-rule:evenodd"
         sodipodi:nodetypes="ccssssscc"
         id="path8663"
         inkscape:connector-curvature="0" />
      <path
         d="m 347.96,35.923 -83.46,2.689 2.16,6.721 83.46,-3.361 -2.16,-6.049 z"
         style="fill:url(#linearGradient4418);fill-rule:evenodd;stroke:#000000;stroke-width:0.68839997px"
         id="path10441"
         inkscape:connector-curvature="0" />
      <path
         d="m 198.51,193.82 79.53,0.54 c 0,0 11.57,4.92 11.57,9.28 0,4.37 -3.36,-2.18 -10.08,-1.63 -6.72,0.54 -72.44,4.36 -75.42,4.36 -2.99,0 -8.59,-2.73 -8.59,-2.73 l 2.99,-9.82 z"
         style="fill:url(#linearGradient4415);fill-rule:evenodd"
         sodipodi:nodetypes="ccssscc"
         id="path4135"
         inkscape:connector-curvature="0" />
      <g
         transform="matrix(0.27652,0,0.4402,0.14729,-185.56,159.91)"
         id="g4264">
        <g
           id="g4248">
          <rect
             x="288.57001"
             y="385.22"
             width="95.713997"
             height="17.143"
             ry="38.905998"
             rx="35.606998"
             style="fill:#000001"
             id="rect4240" />
          <rect
             x="288.57001"
             y="413.22"
             width="95.713997"
             height="17.143"
             ry="38.905998"
             rx="35.606998"
             style="fill:#000001"
             id="rect4242" />
          <rect
             x="288.57001"
             y="443.22"
             width="95.713997"
             height="17.143"
             ry="38.905998"
             rx="35.606998"
             style="fill:#000001"
             id="rect4244" />
          <rect
             x="288.57001"
             y="473.22"
             width="95.713997"
             height="17.143"
             ry="38.905998"
             rx="35.606998"
             style="fill:#000001"
             id="rect4246" />
        </g>
        <g
           transform="translate(0,116)"
           id="g4254">
          <rect
             x="288.57001"
             y="385.22"
             width="95.713997"
             height="17.143"
             ry="38.905998"
             rx="35.606998"
             style="fill:#000001"
             id="rect4256" />
          <rect
             x="288.57001"
             y="413.22"
             width="95.713997"
             height="17.143"
             ry="38.905998"
             rx="35.606998"
             style="fill:#000001"
             id="rect4258" />
          <rect
             x="288.57001"
             y="443.22"
             width="95.713997"
             height="17.143"
             ry="38.905998"
             rx="35.606998"
             style="fill:#000001"
             id="rect4260" />
          <rect
             x="288.57001"
             y="473.22"
             width="95.713997"
             height="17.143"
             ry="38.905998"
             rx="35.606998"
             style="fill:#000001"
             id="rect4262" />
        </g>
      </g>
      <path
         d="m 219.36,403.59 c -12.55,-10.94 -4.2,-33.73 -8.03,-49.34 -1.51,-12.85 -0.29,-38.15 -3.45,-43.54 -6.88,16.54 -14.3,33.5 -20.49,49.91 4.02,4.89 9.74,26.51 -9.51,22.99 -8.68,2.39 -3.3,-14.44 -1.2,-2.59 17.96,2.84 12.73,-15.32 3.99,-20.54 0,-12.56 -0.19,-32.38 3.56,-40.22 -2.96,-3.43 -8.16,-38.95 10.93,-28.65 13.68,-1.18 16.63,9.03 14.13,12.13 5.45,4.47 1.77,25.32 3.94,35.41 1.21,19.81 1.78,39.67 3.34,59.46 24.4,12.67 14.81,-23.15 17.79,-35.84 1.59,-20.1 1.14,-40.85 3.59,-60.69 8.98,-13.26 26.14,-18.71 40.82,-21.98 33.74,-0.48 21.11,-16.04 39.77,-21.49 11.64,21.19 9.16,57.23 9.64,69.55 20.62,8.35 12.62,-20.03 15.38,-31.23 1.93,-17.39 -0.33,-35.54 4.74,-52.41 4.13,-11.82 27.31,-3.85 26.72,-16.04 0.11,-17.05 0.22,-34.09 0.34,-51.14 18.4,-8.19 -16.6,-12.1 -24.58,-14.53 -20.29,-3.64 -40.95,-5.46 -61.61,-5.45 -3.47,4.97 1.17,-6.03 9.85,-1.59 28.92,1.12 59.39,2.4 85.7,14.57 1.59,13.39 0.26,28.26 0.86,42.12 2.4,8.55 -5.37,5.03 -8.58,23.24 -9.57,4.86 -29.38,3.85 -28.05,18.3 -1.58,25.64 -2.54,51.33 -4.99,76.91 -31.23,10.06 -16.83,-22.26 -19.98,-36.32 -2.79,-9.01 0.09,-26.45 -10.05,-30.24 -2.98,14.04 -12.69,19.59 -29.31,18.04 -16.82,2.73 -42.43,8.87 -44.64,27.96 -2.66,30.63 -1.86,61.63 -5.62,92.08 -4.48,1.36 -10.45,2.54 -15,1.16 z m -33.88,-52.66 c 8.04,-16.65 14.42,-34.14 21.42,-51.24 -12.62,-11.48 -15.55,18.45 -21.9,25.78 -0.59,3.2 -3.39,38.52 0.48,25.46 z m 3.72,-0.88 c 5.35,-16.14 -8.14,19.17 0,0 z m -3.68,-35.87 c 3.64,-6.32 13.87,-25.81 -0.55,-18.95 -0.05,3.27 -1.6,25.03 0.55,18.95 z m 198.67,-114.7 c 0.4,-7.64 -1.68,25.99 -0.42,22.28 0.33,-7.42 0.38,-14.85 0.42,-22.28 z M 163.09,368.6 c 8.16,-1.86 -16.42,-2.53 -4.54,-2.9 5.19,-2.36 16.96,3.29 4.54,2.9 z m -13.89,-4.03 c -3.18,-10.41 13.24,-9.49 8.45,-20.05 -0.41,-18.17 -0.75,-36.34 -1.68,-54.49 -12.64,-3.39 -31.26,-16.25 -40.18,-13.11 -1.68,21.13 -1,42.74 -4.13,63.58 -23.292,8.89 -18.003,-18.76 -19.412,-31.9 -4.654,-14.79 5.599,-38.7 -8.694,-48.06 -16.708,-7.81 -34.9,-13.39 -50.906,-22.13 -6.229,-15.45 -3.06,-35.57 19.189,-32.58 24.721,-4.75 -3.973,-40.97 22.735,-37.49 13.53,-3.29 33.468,2.43 43.778,-5.49 5.94,-12.78 7.89,-36.79 29.05,-26.26 20.11,-0.23 30.05,-21.69 45.22,-31.75 24.9,-22.389 49.42,-45.153 74.5,-67.373 27.87,-0.462 55.74,-0.926 83.6,-1.704 -0.02,14.54 -22.25,22.899 -32.38,33.49 -8.38,-4.09 -6.79,-5.54 -0.65,-2.895 10.47,-9.109 22.09,-17.528 31.67,-27.207 -14.77,-2.781 -32.13,0.152 -47.88,-0.386 -9.66,2.639 -35.65,-5.494 -33.61,8.025 -11.69,16.23 -30.11,28.087 -44.4,42.602 -18,16.138 -35.78,32.498 -54.29,48.128 -15.89,6.3 -42.89,-10.36 -43.12,14.78 -2.51,24.61 -32.267,15.04 -50.22,18.9 -13.833,-2.59 -11.864,6.89 -9.398,16.66 3.618,20.12 -21.984,20.65 -31.87,25.72 -1.293,6.8 -4.961,23.68 6.287,26.07 16.888,7.59 34.87,13.35 51.04,22.15 3.116,24.95 2.523,50.28 4.939,75.33 21.342,9.81 11.042,-24.15 14.762,-35.32 1.28,-8.76 0.76,-34.1 0.46,-31.39 18.43,4.83 34.06,16.32 52.66,20.71 -1.12,-13.21 3.15,-25.89 -3.86,-31.3 -34.35,-13.24 -69.061,-26.09 -103.58,-38.98 -25.761,-2.29 8.076,10.2 15.475,12.72 29.375,11.54 59.065,22.46 88.175,34.53 3.58,17.95 -21.44,-3.25 -30,-4.01 -12.5,-7.11 30.12,11.74 25.79,8.03 -30.13,-12.27 -60.716,-23.66 -90.618,-36.36 31.324,10.67 61.528,24.22 92.528,35.67 -7.93,-8.39 -30.12,-12.65 -43.4,-19.32 -23.448,-9.53 -47.746,-17.47 -70.787,-27.7 -5.197,-16.77 19.7,-2.72 30.906,-0.27 28.991,11.69 58.781,21.5 87.551,33.36 10.25,8.45 3.26,25 3.67,36.38 -15.36,-3.43 -3.11,27.15 -6.52,38.2 -2.25,8.79 6.16,23.62 -6.98,26.27 -1.02,7.38 -2.85,10.98 -3.87,6.22 z m 24.43,-234 c 30.87,-27.18 61.11,-54.971 91.61,-82.502 -2.68,-12.566 -17.65,12.107 -24.68,15.123 -26.36,24.354 -53.63,48.509 -79.78,72.679 5.5,2.36 9.31,-2.22 12.85,-5.3 z m 51.79,-52.086 c 8.35,-7.698 16.81,-15.287 25.29,-22.867 -10.82,10.465 -21.88,20.712 -33.48,30.42 2.73,-2.518 5.46,-5.035 8.19,-7.553 z m -57.38,244.72 c 1.92,-8.55 -2.84,-26.75 3.77,-30.11 1.25,18.24 1.13,36.59 0.76,54.87 -8.24,15.83 -3.55,-19.43 -4.53,-24.76 z m 3.06,-21.63 c -0.62,1.67 0.04,25.3 0.1,7.15 l -0.02,-3.81 -0.08,-3.34 z m 3.65,-41.83 c 10.8,-3.06 14.42,-0.41 0.99,0.77 l -2.67,0.24 1.68,-1.01 z m 14.21,-8.58 c -30.07,-10.75 -60.52,-20.8 -90.399,-32 14.689,0.74 32.039,10.49 47.799,14.7 15.06,5.21 30.1,10.5 45.29,15.41 9.07,-4.36 5.66,-4.2 7.26,-9.19 4.76,8.25 5.51,-12.95 -1.03,-15.9 -5.2,-5.28 -8.1,-5.56 -7.68,-8.43 -32.65,-11.72 -66.67,-20.21 -98.976,-32.55 33.826,9.94 67.836,20.09 101.29,31.22 9.73,7.27 -0.87,-10.16 -10.67,-8.13 -27.94,-10.61 32.53,8.43 6.01,-0.64 -7.87,-1.87 -18.93,-7.27 -3.35,-2.46 18.35,-1.79 22.22,15 17.66,19.82 9.06,9.99 3.13,30.77 -13.2,28.15 z m 13.67,-25.6 c -5.35,-4.58 0.31,4.81 0,0 z m -2.67,-5.99 c 0.25,-7.33 0.56,-6.35 -1.62,-0.42 -3.73,1.43 0.29,1.57 1.62,0.42 z m -48.26,15.01 c -18,-5.55 -35.52,-13.05 -53.711,-17.62 17.081,-0.1 34.511,11.21 51.721,15.59 8.36,2.45 20.86,8.56 4.15,2.75 l -2.16,-0.72 z m 227.14,-1.31 c -1.27,-11.11 7.23,2.12 0,0 z m -119.23,-27.47 c -17.13,-7.3 -37.61,0.85 -53.54,-9.5 1.1,-5.74 28.86,-2.81 8.78,-2.05 -14.94,2.64 17.39,7.93 23.35,5.54 3.61,-3.28 42.29,10.28 21.41,6.01 z m 21.89,0.73 c -16.73,-6.67 17.08,3.06 5.88,-10.7 -19.27,-9.7 13.07,-2.5 4.24,9.67 -2.23,2.7 -7.18,0.88 -10.12,1.03 z m 12.8,-2.1 c -9.27,-29.12 -16.19,-59.01 -21.56,-88.85 8.17,20.13 9.9,41.96 16.53,62.54 -3.5,-7.04 -1.09,-24.76 0.52,-7.69 -0.87,8.16 14.32,33.9 4.51,34 z m -0.19,-10.56 c -2.15,-9.25 -6.7,-20.31 -2.01,-4.39 1.95,8.42 6.44,20.06 2.01,4.39 z m 6.63,9.74 c -4.3,-8.04 -11.64,-32.95 -8.26,-33.94 4.19,12.89 5.13,42.97 26.25,28.26 -11.89,-1.64 -12.11,-2.26 -0.33,-2.31 3.33,-11.51 29.13,-7.81 26.86,-16.63 4.82,6.15 29.77,-3.19 10.18,3.74 -12.62,4.99 -31.62,2.52 -36.43,17.66 -2.75,3.26 -14.03,4.74 -18.27,3.22 z m -108.99,-2.06 c -8.23,-2.36 -28.83,-10.49 -8.54,-4.95 21.65,11.54 12.53,-21.43 21.45,-31.97 4.96,-5.52 0.13,-20.35 5.2,-5.64 -12.74,10.03 -2.55,40.88 -18.11,42.56 z m 21.56,-11.56 c -18.74,-4.91 2.56,-3.52 8.18,1.58 -2.83,0.03 -5.5,-0.89 -8.18,-1.58 z m 73.05,0.81 c -5.75,-9.19 -1.77,-28.99 -11.06,-33.11 -7.95,-2.33 -18.17,-0.08 -25.84,-2.3 12.74,1.13 34.75,-11.62 32.15,9.29 0.71,7.15 9.84,23.37 4.75,26.12 z m -85.15,-5.33 c -4.76,-15.21 16.33,-18.16 19.94,-14.43 -16.52,-2.34 -16.49,6.23 -19.94,14.43 z m -114.35,-3.11 c -13.462,-4.58 9.087,0.97 0,0 z m -13.632,-3.91 c -17.014,-6.8 21.58,5.94 0,0 z m 272.14,-1.4 c -3.79,-3.33 -31.92,-7.99 -21.91,-7.25 6.52,-1.29 31.35,7.06 25.39,7.62 l -3.48,-0.37 z m -130.27,-18.68 c 8.36,-0.93 40.69,-5.35 16.84,-0.28 -4.94,-0.03 -13.74,1.27 -16.84,0.28 z m 70.25,-6.56 c -4.35,-7.79 -11.09,-35.38 -8.34,-31.67 5.88,11.78 4.02,38.46 24.62,25.72 28.73,-8.92 59.58,-22.31 74.95,-47.994 -9.72,-14.334 -31.96,-12.764 -47.14,-19.296 -9.52,0.714 -28.55,-20.984 -10.92,-7.506 17.92,8.851 38.7,10.843 56.92,18.899 10.11,17.897 -16.99,30.697 -29.38,40.487 -18.33,10.38 -38.89,18.14 -59.83,21.93 l -0.88,-0.57 z M 295.408,65.2 c -5.03,-10.487 16.15,1.022 0,0 z m -5.87,-23.931 c 9.45,-2.169 25.02,1.154 6.84,0.565 l -2.91,-0.113 -3.93,-0.452 z m 29.2,0.036 c -15.64,0.387 4.56,-2.749 8.87,0.012 -2.5,1.302 -6.11,-0.481 -8.87,-0.012 z m 11.04,-0.701 c 10.98,-2.32 22.18,1.438 4.3,0.622 l -2.5,-0.129 -1.8,-0.493 z"
         style="fill:#000000"
         sodipodi:nodetypes="cccccccccccccccccccccccccccccccccccccccccccccccccccccccccccccccccccccccccccccccccccccccccccccccccccccccccccccccccccccccccccccccccccccccccccccccccccccccccccccccccccccccccccccccccccccccccccccccccccccccccccccccccccccccccccccccccccccccccc"
         id="path1350"
         inkscape:connector-curvature="0" />
      <path
         d="m 381.27,175.11 -5.25,2.38 c 0,0 -1.81,43.92 0.23,54.29 4.69,-3.28 7.92,-12.81 7.92,-12.81 l -0.17,-46.59 -2.73,2.73 z"
         style="fill:url(#linearGradient4400);fill-rule:evenodd"
         sodipodi:nodetypes="cccccc"
         id="path11324"
         inkscape:connector-curvature="0" />
      <path
         d="m 312.2,204.13 -5.25,3.08 c 0,0 -1.81,56.76 0.23,70.17 4.69,-4.24 7.92,-16.56 7.92,-16.56 l -0.17,-60.22 -2.73,3.53 z"
         style="opacity:0.8;fill:url(#linearGradient4397);fill-rule:evenodd"
         sodipodi:nodetypes="cccccc"
         id="path13957"
         inkscape:connector-curvature="0" />
      <path
         d="m 82.313,182.09 c 0,0 -2.505,15.8 -0.626,19.31 1.879,3.51 25.053,15.21 31.943,17.55 6.89,2.34 89.57,33.35 89.57,33.35 0,0 6.27,-10.53 6.27,-15.21 0,-4.68 0.62,-14.63 -4.39,-16.39 -5.01,-1.75 -120.89,-37.44 -122.77,-38.61 z"
         style="opacity:0.69444;fill:url(#linearGradient4394);fill-rule:evenodd"
         id="path13961"
         inkscape:connector-curvature="0" />
      <path
         d="m 335.09,187.85 c 0,0 -8.73,-0.62 -9.4,3.76 -0.67,4.39 -4.7,8.16 -4.7,8.16 l -0.67,59.57 c 0,0 2.68,-15.05 8.05,-16.31 5.37,-1.25 6.72,-0.62 6.72,-3.13 l 0,-52.05 z"
         style="fill:url(#linearGradient4391);fill-rule:evenodd;stroke:#000000;stroke-width:0.68839997px"
         id="path17471"
         inkscape:connector-curvature="0" />
      <path
         d="m 208.87,295.08 c 0,0 13.43,5.64 13.43,8.15 0,2.51 0.67,100.96 0.67,100.96 l -10.74,-5.02 c 0,0 0,-76.5 -2.01,-86.53 -2.02,-10.03 -2.02,-17.56 -1.35,-17.56 z"
         style="opacity:0.6;fill:url(#linearGradient4388);fill-rule:evenodd"
         id="path18354"
         inkscape:connector-curvature="0" />
      <path
         d="m 87.664,261.8 c 0,0 13.426,4.19 13.426,6.05 0,1.86 0.67,74.93 0.67,74.93 l -6.97,-7.97 c 0,0 -4.641,-48.33 -2.485,-55.74 1.756,-6.03 -5.313,-17.27 -4.641,-17.27 z"
         style="opacity:0.6;fill:url(#linearGradient4385);fill-rule:evenodd"
         sodipodi:nodetypes="csccsc"
         id="path20110"
         inkscape:connector-curvature="0" />
      <path
         d="m 333.53,243.31 c -1.32,0.5 -0.35,0.96 -0.35,3.47 0,2.51 1.3,85.75 1.3,85.75 l -9.49,-5.02 c 0,0 2.3,-47.72 -8.28,-63.13 4.25,-10.62 6.9,-25.78 16.82,-21.07 z"
         style="opacity:0.4;fill:url(#linearGradient4382);fill-rule:evenodd"
         sodipodi:nodetypes="cscccc"
         id="path20114"
         inkscape:connector-curvature="0" />
      <path
         d="m 34.768,222.46 c 0,0 -2.04,5.44 -0.16,7.24 1.88,1.81 24.347,11.99 31,14.58 6.654,2.58 86.562,34.78 86.562,34.78 0,0 5.76,-2.5 5.65,-4.29 -0.11,-1.8 0.27,-5.45 -4.57,-7.36 -4.84,-1.9 -116.66,-44.04 -118.48,-44.95 z"
         style="opacity:0.39444;fill:url(#linearGradient4379);fill-rule:evenodd"
         sodipodi:nodetypes="csscssc"
         id="path20118"
         inkscape:connector-curvature="0" />
      <path
         d="m 205.93,211.41 0,9.82 c 0,0 2.65,3.31 2.21,7.04 -0.44,3.72 -3.43,20.5 -6.53,22.57 -3.1,2.07 -31.28,4.01 -37.04,8.15 -5.76,4.14 -4.87,9.1 -4.87,9.1 l 0,14.48 5.31,3.31 0,-20.27 c 0,0 5.32,-5.79 6.65,-6.21 1.33,-0.41 17.39,-0.88 21.7,-1.65 10.12,-1.8 20.35,-10.83 20.1,-16.24 -0.25,-5.38 3.98,-13.66 1.33,-17.79 -2.66,-4.14 -1.78,-10.35 -1.78,-10.35 l -7.08,-1.96 z"
         style="fill:url(#linearGradient4376);fill-rule:evenodd"
         sodipodi:nodetypes="ccsssccccsssscc"
         id="path20999"
         inkscape:connector-curvature="0" />
      <path
         d="m 157.23,290.04 c 1.42,-9.29 21.27,5.97 21.25,7.94 -0.08,9.85 1.3,75.9 1.3,74.93 l -20.77,-3.73 c 1.59,5.39 -1.36,-35.7 -1.54,-63.28 -0.05,-8.05 -1.54,-15.86 -0.24,-15.86 z"
         style="opacity:0.24444;fill:url(#linearGradient4373);fill-rule:evenodd"
         sodipodi:nodetypes="csccsc"
         id="path1470"
         inkscape:connector-curvature="0" />
    </g>
    <path
       style="display:inline;opacity:0.8;fill:#212121;fill-opacity:1;filter:url(#filter19580)"
       d="m 79.50969,531.06755 c -0.5671,-0.0176 -1.13313,0.0449 -1.69922,0.0703 -3.18751,0.17532 -6.53794,0.31718 -9.39062,1.96875 -2.9234,1.60168 -5.90852,3.14846 -8.53516,5.24804 -2.57845,2.30143 -4.13847,5.50397 -5.625,8.60743 -0.6375,1.40989 -0.92876,2.94743 -1.18359,4.46874 -0.57186,2.05863 -2.05986,3.79856 -2.17774,5.99805 -0.54136,4.1181 -0.28244,8.4751 1.375,12.29688 a 6.45332,8.6787024 0 0 0 -2.84375,7.18359 6.45332,8.6787024 0 0 0 6.45313,8.67966 6.45332,8.6787024 0 0 0 1.38281,-0.2129 29.839754,35.278362 0 0 0 27.56836,21.85365 29.839754,35.278362 0 0 0 28.88867,-26.61924 5.6546149,8.6787024 0 0 0 5.30078,-8.66015 5.6546149,8.6787024 0 0 0 -2.17187,-6.82422 c 0.94637,-3.70866 1.18418,-7.61002 0.40625,-11.37305 -1.46335,-4.91686 -3.74592,-9.53501 -6.35742,-13.89648 -2.04152,-2.61455 -4.90514,-4.30378 -7.51953,-6.22071 -2.22842,-1.47992 -4.94666,-2.11405 -7.57618,-1.82617 -2.99229,0.0988 -6.02732,0.23016 -8.97265,-0.43359 -2.43537,-0.2376 -4.89132,-0.004 -7.32227,-0.3086 z"
       id="path3790-3-9"
       inkscape:connector-curvature="0"
       inkscape:export-filename="C:\Users\jfinlay\AndroidStudioProjects\LittleFamily\LittleFamilyApp\src\main\res\drawable\man_silhouette.png"
       inkscape:export-xdpi="56.404076"
       inkscape:export-ydpi="56.404076" />
    <path
       inkscape:connector-curvature="0"
       style="display:inline;opacity:0.8;fill:#212121;fill-opacity:1;filter:url(#filter19606)"
       d="m 189.38875,529.44295 c -6.08607,1.42229 -12.5796,2.25858 -17.72461,6.22852 -5.28993,3.06697 -9.21915,8.12374 -12.04688,13.57617 -2.13942,5.37073 -4.30494,11.0854 -3.32422,17.00195 0.10848,4.75111 1.25935,9.73886 -0.23242,14.35352 -1.30519,3.85019 -3.93527,-0.20973 -6.87109,1.23828 -1.1968,2.40367 -0.86322,4.95035 0.83008,7.65428 2.77867,2.3498 5.43114,3.068 8.52734,4.1406 3.49942,1.0619 8.93416,1.8878 10.35742,-2.7148 0.091,-0.6076 0.15875,-1.2175 0.22266,-1.8281 a 30.245253,33.922827 0 0 0 22.8457,11.7558 30.245253,33.922827 0 0 0 25.13672,-15.08591 c 0.061,0.75536 0.12938,1.51023 0.18945,2.26563 1.62768,4.71148 6.84309,4.52928 10.80274,5.11128 3.29021,0.9129 8.42658,-0.4401 7.74023,-5.26558 0.86002,-3.76326 -1.66742,-8.6637 -5.15234,-4.9043 -3.51412,-1.28971 -4.33587,-5.39831 -4.03711,-8.81835 0.0273,-5.24992 0.8257,-10.5266 0.35937,-15.76172 -1.80036,-6.42976 -4.19948,-13.03833 -9.17578,-17.58985 -3.30461,-3.93723 -7.53779,-6.91306 -12.32617,-8.55078 -5.12022,-2.09194 -10.67795,-2.61792 -16.12109,-2.80664 z"
       id="path4330-0-9"
       inkscape:export-filename="C:\Users\jfinlay\AndroidStudioProjects\LittleFamily\LittleFamilyApp\src\main\res\drawable\woman_silhouette.png"
       inkscape:export-xdpi="56.404076"
       inkscape:export-ydpi="56.404076" />
    <path
       style="display:inline;opacity:0.8;fill:#212121;fill-opacity:1;filter:url(#filter19580-1)"
       d="m 291.67118,527.84844 c -0.5671,-0.0176 -1.13313,0.0449 -1.69922,0.0703 -3.18751,0.17532 -6.53794,0.31718 -9.39062,1.96875 -2.9234,1.60168 -5.90852,3.14846 -8.53516,5.24804 -2.57845,2.30143 -4.13847,5.50397 -5.625,8.60743 -0.6375,1.40989 -0.92876,2.94743 -1.18359,4.46874 -0.57186,2.05863 -2.05986,3.79856 -2.17774,5.99805 -0.54136,4.1181 -0.28244,8.4751 1.375,12.29688 a 6.45332,8.6787024 0 0 0 -2.84375,7.18359 6.45332,8.6787024 0 0 0 6.45313,8.67966 6.45332,8.6787024 0 0 0 1.38281,-0.2129 29.839754,35.278362 0 0 0 27.56836,21.85365 29.839754,35.278362 0 0 0 28.88867,-26.61924 5.6546149,8.6787024 0 0 0 5.30078,-8.66015 5.6546149,8.6787024 0 0 0 -2.17187,-6.82422 c 0.94637,-3.70866 1.18418,-7.61002 0.40625,-11.37305 -1.46335,-4.91686 -3.74592,-9.53501 -6.35742,-13.89648 -2.04152,-2.61455 -4.90514,-4.30378 -7.51953,-6.22071 -2.22842,-1.47992 -4.94666,-2.11405 -7.57618,-1.82617 -2.99229,0.0988 -6.02732,0.23016 -8.97265,-0.43359 -2.43537,-0.2376 -4.89132,-0.004 -7.32227,-0.3086 z"
       id="path3790-3-9-4"
       inkscape:connector-curvature="0"
       inkscape:export-filename="C:\Users\jfinlay\AndroidStudioProjects\LittleFamily\LittleFamilyApp\src\main\res\drawable\man_silhouette.png"
       inkscape:export-xdpi="56.404076"
       inkscape:export-ydpi="56.404076" />
    <path
       inkscape:connector-curvature="0"
       style="display:inline;opacity:0.8;fill:#212121;fill-opacity:1;filter:url(#filter19606-7)"
       d="m 401.55025,526.22384 c -6.08607,1.42229 -12.5796,2.25858 -17.72461,6.22852 -5.28993,3.06697 -9.21915,8.12374 -12.04688,13.57617 -2.13942,5.37073 -4.30494,11.0854 -3.32422,17.00195 0.10848,4.75111 1.25935,9.73886 -0.23242,14.35352 -1.30519,3.85019 -3.93527,-0.20973 -6.87109,1.23828 -1.1968,2.40367 -0.86322,4.95035 0.83008,7.65428 2.77867,2.3498 5.43114,3.068 8.52734,4.1406 3.49942,1.0619 8.93416,1.8878 10.35742,-2.7148 0.091,-0.6076 0.15875,-1.2175 0.22266,-1.8281 a 30.245253,33.922827 0 0 0 22.8457,11.7558 30.245253,33.922827 0 0 0 25.13672,-15.08591 c 0.061,0.75536 0.12938,1.51023 0.18945,2.26563 1.62768,4.71148 6.84309,4.52928 10.80274,5.11128 3.29021,0.9129 8.42658,-0.4401 7.74023,-5.26558 0.86002,-3.76326 -1.66742,-8.6637 -5.15234,-4.9043 -3.51412,-1.28971 -4.33587,-5.39831 -4.03711,-8.81835 0.0273,-5.24992 0.8257,-10.5266 0.35937,-15.76172 -1.80036,-6.42976 -4.19948,-13.03833 -9.17578,-17.58985 -3.30461,-3.93723 -7.53779,-6.91306 -12.32617,-8.55078 -5.12022,-2.09194 -10.67795,-2.61792 -16.12109,-2.80664 z"
       id="path4330-0-9-6"
       inkscape:export-filename="C:\Users\jfinlay\AndroidStudioProjects\LittleFamily\LittleFamilyApp\src\main\res\drawable\woman_silhouette.png"
       inkscape:export-xdpi="56.404076"
       inkscape:export-ydpi="56.404076" />
  </g>
</svg>
